<mxfile host="app.diagrams.net" modified="2023-08-09T12:27:32.941Z" agent="Mozilla/5.0 (X11; Linux x86_64) AppleWebKit/537.36 (KHTML, like Gecko) Chrome/115.0.0.0 Safari/537.36" etag="6qdt3hy_wrTW0Mf1wT9L" version="21.6.7" type="github">
  <diagram name="Page-1" id="toykcX45jjMewhP-aGC-">
    <mxGraphModel dx="2261" dy="803" grid="1" gridSize="10" guides="1" tooltips="1" connect="1" arrows="1" fold="1" page="1" pageScale="1" pageWidth="827" pageHeight="1169" math="0" shadow="0">
      <root>
        <mxCell id="0" />
        <mxCell id="1" parent="0" />
        <mxCell id="KiZI3qLmPnLDJ573GTRW-1" value="Server" style="ellipse;shape=cloud;whiteSpace=wrap;html=1;fillColor=#1ba1e2;strokeColor=#006EAF;fontColor=#ffffff;" vertex="1" parent="1">
          <mxGeometry x="-750" y="350" width="200" height="110" as="geometry" />
        </mxCell>
        <mxCell id="KiZI3qLmPnLDJ573GTRW-21" value="" style="group;" vertex="1" connectable="0" parent="1">
          <mxGeometry x="-750" y="500" width="170" height="110" as="geometry" />
        </mxCell>
        <mxCell id="KiZI3qLmPnLDJ573GTRW-2" value="" style="ellipse;whiteSpace=wrap;html=1;aspect=fixed;fillColor=#dae8fc;strokeColor=#6c8ebf;" vertex="1" parent="KiZI3qLmPnLDJ573GTRW-21">
          <mxGeometry width="20.18823529411765" height="20.18823529411765" as="geometry" />
        </mxCell>
        <mxCell id="KiZI3qLmPnLDJ573GTRW-3" value="" style="ellipse;whiteSpace=wrap;html=1;aspect=fixed;fillColor=#dae8fc;strokeColor=#6c8ebf;" vertex="1" parent="KiZI3qLmPnLDJ573GTRW-21">
          <mxGeometry y="41.25" width="20.18823529411765" height="20.18823529411765" as="geometry" />
        </mxCell>
        <mxCell id="KiZI3qLmPnLDJ573GTRW-4" value="" style="ellipse;whiteSpace=wrap;html=1;aspect=fixed;fillColor=#dae8fc;strokeColor=#6c8ebf;" vertex="1" parent="KiZI3qLmPnLDJ573GTRW-21">
          <mxGeometry y="88" width="20.18823529411765" height="20.18823529411765" as="geometry" />
        </mxCell>
        <mxCell id="KiZI3qLmPnLDJ573GTRW-5" value="" style="ellipse;whiteSpace=wrap;html=1;aspect=fixed;fillColor=#dae8fc;strokeColor=#6c8ebf;" vertex="1" parent="KiZI3qLmPnLDJ573GTRW-21">
          <mxGeometry x="74.63414634146342" y="24.75" width="20.18823529411765" height="20.18823529411765" as="geometry" />
        </mxCell>
        <mxCell id="KiZI3qLmPnLDJ573GTRW-18" style="rounded=0;orthogonalLoop=1;jettySize=auto;html=1;exitX=1;exitY=0.5;exitDx=0;exitDy=0;entryX=0;entryY=0.5;entryDx=0;entryDy=0;" edge="1" parent="KiZI3qLmPnLDJ573GTRW-21" source="KiZI3qLmPnLDJ573GTRW-4" target="KiZI3qLmPnLDJ573GTRW-5">
          <mxGeometry relative="1" as="geometry" />
        </mxCell>
        <mxCell id="KiZI3qLmPnLDJ573GTRW-6" value="" style="ellipse;whiteSpace=wrap;html=1;aspect=fixed;fillColor=#dae8fc;strokeColor=#6c8ebf;" vertex="1" parent="KiZI3qLmPnLDJ573GTRW-21">
          <mxGeometry x="74.63414634146342" y="68.75" width="20.18823529411765" height="20.18823529411765" as="geometry" />
        </mxCell>
        <mxCell id="KiZI3qLmPnLDJ573GTRW-15" style="rounded=0;orthogonalLoop=1;jettySize=auto;html=1;exitX=1;exitY=1;exitDx=0;exitDy=0;entryX=0;entryY=0.5;entryDx=0;entryDy=0;" edge="1" parent="KiZI3qLmPnLDJ573GTRW-21" source="KiZI3qLmPnLDJ573GTRW-2" target="KiZI3qLmPnLDJ573GTRW-6">
          <mxGeometry relative="1" as="geometry" />
        </mxCell>
        <mxCell id="KiZI3qLmPnLDJ573GTRW-7" value="" style="ellipse;whiteSpace=wrap;html=1;aspect=fixed;fillColor=#dae8fc;strokeColor=#6c8ebf;" vertex="1" parent="KiZI3qLmPnLDJ573GTRW-21">
          <mxGeometry x="136.8292682926829" y="44" width="20.18823529411765" height="20.18823529411765" as="geometry" />
        </mxCell>
        <mxCell id="KiZI3qLmPnLDJ573GTRW-17" style="rounded=0;orthogonalLoop=1;jettySize=auto;html=1;exitX=1;exitY=0.5;exitDx=0;exitDy=0;entryX=0;entryY=0.5;entryDx=0;entryDy=0;" edge="1" parent="KiZI3qLmPnLDJ573GTRW-21" source="KiZI3qLmPnLDJ573GTRW-3" target="KiZI3qLmPnLDJ573GTRW-6">
          <mxGeometry relative="1" as="geometry" />
        </mxCell>
        <mxCell id="KiZI3qLmPnLDJ573GTRW-8" value="" style="endArrow=classic;html=1;rounded=0;exitX=1;exitY=1;exitDx=0;exitDy=0;entryX=0;entryY=0.5;entryDx=0;entryDy=0;" edge="1" parent="KiZI3qLmPnLDJ573GTRW-21" source="KiZI3qLmPnLDJ573GTRW-2" target="KiZI3qLmPnLDJ573GTRW-5">
          <mxGeometry width="50" height="50" relative="1" as="geometry">
            <mxPoint x="82.92682926829269" y="27.5" as="sourcePoint" />
            <mxPoint x="58.048780487804876" y="46.75" as="targetPoint" />
          </mxGeometry>
        </mxCell>
        <mxCell id="KiZI3qLmPnLDJ573GTRW-19" style="rounded=0;orthogonalLoop=1;jettySize=auto;html=1;exitX=1;exitY=0.5;exitDx=0;exitDy=0;entryX=0;entryY=0.5;entryDx=0;entryDy=0;" edge="1" parent="KiZI3qLmPnLDJ573GTRW-21" source="KiZI3qLmPnLDJ573GTRW-5" target="KiZI3qLmPnLDJ573GTRW-7">
          <mxGeometry relative="1" as="geometry" />
        </mxCell>
        <mxCell id="KiZI3qLmPnLDJ573GTRW-9" value="" style="endArrow=classic;html=1;rounded=0;exitX=1;exitY=0.5;exitDx=0;exitDy=0;entryX=0;entryY=0.5;entryDx=0;entryDy=0;" edge="1" parent="KiZI3qLmPnLDJ573GTRW-21" source="KiZI3qLmPnLDJ573GTRW-3" target="KiZI3qLmPnLDJ573GTRW-5">
          <mxGeometry width="50" height="50" relative="1" as="geometry">
            <mxPoint x="62.19512195121953" y="49.5" as="sourcePoint" />
            <mxPoint x="108.63414634146342" y="66.55" as="targetPoint" />
          </mxGeometry>
        </mxCell>
        <mxCell id="KiZI3qLmPnLDJ573GTRW-20" style="rounded=0;orthogonalLoop=1;jettySize=auto;html=1;exitX=1;exitY=0.5;exitDx=0;exitDy=0;entryX=0;entryY=0.5;entryDx=0;entryDy=0;" edge="1" parent="KiZI3qLmPnLDJ573GTRW-21" source="KiZI3qLmPnLDJ573GTRW-6" target="KiZI3qLmPnLDJ573GTRW-7">
          <mxGeometry relative="1" as="geometry" />
        </mxCell>
        <mxCell id="KiZI3qLmPnLDJ573GTRW-10" value="" style="endArrow=classic;html=1;rounded=0;entryX=0;entryY=0.5;entryDx=0;entryDy=0;exitX=1;exitY=0.5;exitDx=0;exitDy=0;" edge="1" parent="KiZI3qLmPnLDJ573GTRW-21" source="KiZI3qLmPnLDJ573GTRW-4" target="KiZI3qLmPnLDJ573GTRW-6">
          <mxGeometry width="50" height="50" relative="1" as="geometry">
            <mxPoint x="82.92682926829269" y="27.5" as="sourcePoint" />
            <mxPoint x="103.65853658536585" y="13.75" as="targetPoint" />
          </mxGeometry>
        </mxCell>
        <mxCell id="KiZI3qLmPnLDJ573GTRW-63" value="Source trained Model&amp;nbsp;" style="text;html=1;strokeColor=none;fillColor=none;align=center;verticalAlign=middle;whiteSpace=wrap;rounded=0;" vertex="1" parent="KiZI3qLmPnLDJ573GTRW-21">
          <mxGeometry x="61.39" y="98.48" width="88.61" height="9.71" as="geometry" />
        </mxCell>
        <mxCell id="KiZI3qLmPnLDJ573GTRW-64" value="exemplar Data" style="shape=cylinder3;whiteSpace=wrap;html=1;boundedLbl=1;backgroundOutline=1;size=15;" vertex="1" parent="1">
          <mxGeometry x="-705" y="640" width="80" height="70" as="geometry" />
        </mxCell>
        <mxCell id="KiZI3qLmPnLDJ573GTRW-67" value="Client 1" style="rounded=1;whiteSpace=wrap;html=1;flipH=0;fillColor=#eeeeee;strokeColor=#36393d;" vertex="1" parent="1">
          <mxGeometry x="-400" y="240" width="120" height="60" as="geometry" />
        </mxCell>
        <mxCell id="KiZI3qLmPnLDJ573GTRW-68" value="Client 2" style="rounded=1;whiteSpace=wrap;html=1;flipH=0;fillColor=#eeeeee;strokeColor=#36393d;" vertex="1" parent="1">
          <mxGeometry x="-400" y="340" width="120" height="60" as="geometry" />
        </mxCell>
        <mxCell id="KiZI3qLmPnLDJ573GTRW-71" value="Client 3" style="rounded=1;whiteSpace=wrap;html=1;flipH=0;fillColor=#eeeeee;strokeColor=#36393d;" vertex="1" parent="1">
          <mxGeometry x="-400" y="440" width="120" height="60" as="geometry" />
        </mxCell>
        <mxCell id="KiZI3qLmPnLDJ573GTRW-72" value="Client N" style="rounded=1;whiteSpace=wrap;html=1;flipH=0;fillColor=#eeeeee;strokeColor=#36393d;" vertex="1" parent="1">
          <mxGeometry x="-400" y="550" width="120" height="60" as="geometry" />
        </mxCell>
        <mxCell id="KiZI3qLmPnLDJ573GTRW-80" style="edgeStyle=orthogonalEdgeStyle;rounded=0;orthogonalLoop=1;jettySize=auto;html=1;exitX=0.75;exitY=0;exitDx=0;exitDy=0;entryX=0.5;entryY=0;entryDx=0;entryDy=0;fillColor=#eeeeee;strokeColor=#36393d;" edge="1" parent="1" source="KiZI3qLmPnLDJ573GTRW-67" target="KiZI3qLmPnLDJ573GTRW-67">
          <mxGeometry relative="1" as="geometry" />
        </mxCell>
        <mxCell id="KiZI3qLmPnLDJ573GTRW-81" value="" style="endArrow=classic;startArrow=classic;html=1;rounded=0;exitX=0;exitY=0.5;exitDx=0;exitDy=0;entryX=0.875;entryY=0.5;entryDx=0;entryDy=0;entryPerimeter=0;targetPerimeterSpacing=0;" edge="1" parent="1" source="KiZI3qLmPnLDJ573GTRW-67" target="KiZI3qLmPnLDJ573GTRW-1">
          <mxGeometry width="100" height="100" relative="1" as="geometry">
            <mxPoint x="360" y="350" as="sourcePoint" />
            <mxPoint x="460" y="250" as="targetPoint" />
          </mxGeometry>
        </mxCell>
        <mxCell id="KiZI3qLmPnLDJ573GTRW-82" value="" style="endArrow=classic;startArrow=classic;html=1;rounded=0;exitX=0;exitY=0.5;exitDx=0;exitDy=0;targetPerimeterSpacing=0;" edge="1" parent="1" source="KiZI3qLmPnLDJ573GTRW-68">
          <mxGeometry width="100" height="100" relative="1" as="geometry">
            <mxPoint x="316" y="470" as="sourcePoint" />
            <mxPoint x="-570" y="405" as="targetPoint" />
          </mxGeometry>
        </mxCell>
        <mxCell id="KiZI3qLmPnLDJ573GTRW-83" value="" style="endArrow=classic;startArrow=classic;html=1;rounded=0;exitX=0;exitY=0.5;exitDx=0;exitDy=0;entryX=0.875;entryY=0.5;entryDx=0;entryDy=0;entryPerimeter=0;targetPerimeterSpacing=0;" edge="1" parent="1" source="KiZI3qLmPnLDJ573GTRW-71" target="KiZI3qLmPnLDJ573GTRW-1">
          <mxGeometry width="100" height="100" relative="1" as="geometry">
            <mxPoint x="350" y="480" as="sourcePoint" />
            <mxPoint x="362" y="208" as="targetPoint" />
          </mxGeometry>
        </mxCell>
        <mxCell id="KiZI3qLmPnLDJ573GTRW-84" value="" style="endArrow=classic;startArrow=classic;html=1;rounded=0;exitX=0;exitY=0.5;exitDx=0;exitDy=0;entryX=0.875;entryY=0.5;entryDx=0;entryDy=0;entryPerimeter=0;targetPerimeterSpacing=0;" edge="1" parent="1" source="KiZI3qLmPnLDJ573GTRW-72" target="KiZI3qLmPnLDJ573GTRW-1">
          <mxGeometry width="100" height="100" relative="1" as="geometry">
            <mxPoint x="640" y="465" as="sourcePoint" />
            <mxPoint x="520" y="210" as="targetPoint" />
          </mxGeometry>
        </mxCell>
        <mxCell id="KiZI3qLmPnLDJ573GTRW-85" value="" style="endArrow=none;dashed=1;html=1;dashPattern=1 3;strokeWidth=2;rounded=0;fillColor=#eeeeee;strokeColor=#36393d;" edge="1" parent="1">
          <mxGeometry width="50" height="50" relative="1" as="geometry">
            <mxPoint x="590" y="500" as="sourcePoint" />
            <mxPoint x="630" y="500" as="targetPoint" />
          </mxGeometry>
        </mxCell>
        <mxCell id="KiZI3qLmPnLDJ573GTRW-91" style="edgeStyle=orthogonalEdgeStyle;rounded=0;orthogonalLoop=1;jettySize=auto;html=1;entryX=0.4;entryY=0.891;entryDx=0;entryDy=0;entryPerimeter=0;" edge="1" parent="1" source="KiZI3qLmPnLDJ573GTRW-90" target="KiZI3qLmPnLDJ573GTRW-1">
          <mxGeometry relative="1" as="geometry" />
        </mxCell>
        <mxCell id="KiZI3qLmPnLDJ573GTRW-90" value="" style="rounded=0;whiteSpace=wrap;html=1;opacity=50;dashed=1;fillColor=#dae8fc;strokeColor=#6c8ebf;" vertex="1" parent="1">
          <mxGeometry x="-780" y="490" width="220" height="230" as="geometry" />
        </mxCell>
        <mxCell id="KiZI3qLmPnLDJ573GTRW-93" value="" style="endArrow=none;dashed=1;html=1;dashPattern=1 3;strokeWidth=2;rounded=0;" edge="1" parent="1">
          <mxGeometry width="50" height="50" relative="1" as="geometry">
            <mxPoint x="-340" y="540" as="sourcePoint" />
            <mxPoint x="-340" y="510" as="targetPoint" />
          </mxGeometry>
        </mxCell>
        <mxCell id="KiZI3qLmPnLDJ573GTRW-96" value="" style="shape=image;verticalLabelPosition=bottom;labelBackgroundColor=default;verticalAlign=top;aspect=fixed;imageAspect=0;image=data:image/png,iVBORw0KGgoAAAANSUhEUgAAAcoAAAAsCAIAAABqlG+gAAAACXBIWXMAAA7EAAAOxAGVKw4bAAAgAElEQVR4nOy9aYxdx3Uuuqr2fOaxT5+eZzabg0iJokZKlEXKtizJThxnsh0D8UuUALJhB0mA/HBGB4KRi9gwXhzkPQS5Dmz5WrZkDbZEyRJJmbQkzmOz2c2eh9N95nHPu2q9H4dstTiJlJObixd+DQLnnF27hlVVX61aa1WRICLcwi3cwi3cwn806H91BW7hFm7hFv7/iVv0egu3cAu38J+CW/R6C7dwC7fwn4Jb9HoLt3ALt/CfAvG/ugL/jbHWp0j+y2rxn4K1/lLyf0TbruXCJf8V1XuvMv9bil/b9l+pwCtl+H9G5344ICIiAiIQsiqWVVmRNT9+aPy3o9drx0kgADSlDQCEQPPvQ4NctbhmIQjAgXsA/NLvFKgIQIGQGxiy1+Dlq5d4+buXmne1RwgA+EF1eD81XEFbCJyDo4NjgCCBpIGkAKE3vICsyQ0vVmXtY0II5/zyl24Atm1Xq2XLNBEopVSSJFmW/X6/LMvXmkUXf199ellLP/TcQ/Q8r64bBCAYDAiCsJozYwwABEH4D2RdRHRdt1wuM8+LxmKqqiIi55xSSgi5icAhztFxeKOBpgkANBAggQARxRuUQ7OsD9d3N4vrCBDfE7VnGFatWqlXSlSUItGEJAmcY71Wsx0nGAqFQiFNU5tS+tDd8d+LXq8/lDiCy8HhwBFkCjJF4VcY5VcpCwE5Mg89Azwd3BpwB5AToCioKIVACoKoESpcXcVAREBAAGQADAAAKBABCL0JlYQjAAC9KrsCcI4AQK+b3cVV6GIabC5J7z1mDOpZmDwIhWkIt0G8C9o2gj8GhL7XhEtqQ/MNsgoA4AzMKggSCCJYddBCIKqrE5gAASCMMY5I6VUbcY1Wcz47PXbgjWempi5UraioBAOBYDgc3nbH7du3b/f5fFdtcXNqrW244ziWZSmKIivKhzarMc4zufxbx0/6Rbr7/vuCwSACcM4JQL1ep5QGg8H/QHpljC0szH/ve993bPtzn//88PCw53m1Wi0cDguC4DjOtQbb+xQ6x/GyWefsWfvIEXd2FgDUO+7Qdu+W+vqIJH1gHQghoihyzj3P+8DEiIh4MaUkXXPxu9a7zaEkCMI1ckZE7jhOPpdbXpjx6gsarVYMPKUHAgqaDokEaSgcKOWCqj+WTLXG4wlFkdeO0JvCfy96vQ6a3GpwdBkwBIeDTwAVgJJrkB0AIrKLewsQCNBrS7+pFjIH3TrYJXBqwG2CfJWDiVsndglFH8pRVOIoqoTSNbozAjLwXGQGeDp4FqALAEBEFP0gR0DSKLkGKV+G6ye5Ucq6Zi4IrgGTB2HpNARboDAF1WUIt6MWZei5rlur1UvFQqlQMPSG57mAwAFUzZdIJtva2sLhsOTpZHQPSAok+2H5HLQMQsdtIMjvK5FQSvAy7rs+EMC2aty8QN1Jo9FrVa3JySnGWKlUGhwa8gcClF6bLRE5oscY5zybLxwfm0hEI7cND/m1Zic15XHDyxvntUbj1MzcjE26mOexVW0OAYjneVflhRtpIGfMcRxAlCSJrlHfbNs6curY29NvD3cMy7Lc/LFJXk1VjnP+vlXkkn6HiAQAPY+Vy9bBg+YvfmGfOoXlMnoeINoTE16xGPziF8V0mlB68S1EsG1umug4RJap3w+S1GS7G2oFoue5pl4v55eMyoqshVo6hwOh8JXibRZ3HbFfmaDJrI7jVEqlSjFjlqZCUA7HLInU3UbjzIwd9ZOK7rWMJDuj/UwOG65RWpkx6qVIrCUciTZFd7MMe4teL/aEx9HmxGZgeWgzEAgykVACCr2KUJvc6iFaHngIIgGFgkQv7vybyVeXO0RAhp7FzRw4FeIZAPx9e14EBA6coeegraNTJ0oEpABQEYAAMuAOujp4DeKZwG1ADoDNfSuQMjh11Fq4GiV4A4RznRQ3OHSulwwBmAuA0LMduAtmBdtG0B+3LDufz02MjU2eH12ZvWDmF4jdENG1PCyZaAlaa2fPxq133HnPfb1tCb9VJ4uniGuBWYW5oxBMQbRjrXnhMvG+r3y82AWrWkwzDaU01TaQGvjk2dnXF5aXqGCHw2HGWL1etyz7Oo0iAJzzSqUys7Cou6xu2u/MLZOlkqBqHYmYJAqqJGqqKjdJ5IMEyBEN0zw/Oz+aq6EaiPq4KAqI71UY1rDbDQIRm6PRcZzZmZnMUqYlnUokk5pPlQVJkqRytTyVnZTS0patt7W0tKwV1JWiu6wJyJg7N2f8/OfGT3/qZTJg2+89Kpetw4fV++8X4nGiqgCAnPNCwTl71j56lOXzQmurtmOHtH49DQRupBWcc9NoVPJL1eVxqs/LrOKK0bIkqb7Novg+mrq8kmsU7cv4dO1XzrlpmivLy9Xisl+st4VKArcc21kuO/mG2ta/PhGL+Cu1mrmwvDSbTBixUDKkBmvV2eXKQiPR29LW5dN8N7Wowy165Zxblu1x5KLsEWp6oLuge4iAlgeEkLAEMsHLuhQRXAY1F3QPEMAnAKe8YTayK8umYfr9vng8Hg6HJUkCAO6BVeZGlrtVApyQ90drICDjnmHUFnMzpeqKIJB0sjcZawuE/IJMCQHuIXcBGb0KKSNBF5wScBdFGeQAfqAh7D/My3FVEADZD4M7gYpQmsF4H4v1VC3vyKH9Rw/uzZ07FHdW+nxud5D4A6RsssNL9lzWIUBk48L00pGlsZN37Xrsrg3bQ4CkMA1tm6CagZUxCCZB0labTshVXCyr0HV9enq6oesd7e3RaFRV1aYlzucPRiORoNpIRBVJS4qiXKk1lku1hmlen9E4Yi6ff+3Q0SkLTDlY8yQIRGrHZ0J0yi9AOqQNphPDnW3RcFiWxOuY/BCxrhvnZ2cPTS9aoRZeWPGFwo7jgh8BgDFOhJvuDkRkjBm6bjR0zzSzk1M//sEPTI10bu2NJCOpaGrLuq2FlfxCeX4gPXDn5u2apt145gSA1Wr6iy/qL7zAS6XLhY7oray44+PKbbeBoiDnLJttPPec+frr3uIieB5IknPqVOC3fkvdsUOIRK7fCtdxquVcfvYUVC4khHLUj4pEykYpW7jAutZdRq/XyWet/C+jWl3X52dmGpWVdAJCYs0olhcKVqGhMbk30T/QNzQcCAR03ZiaOLeUuZAt55PBbLo1mlBQcYzMzGK9uqm7f304EoGbmTj/rekVAarV2sTkpO54fcMjVPEbLtRcrjNABJuhQFEgECIg0vd2xIhoMyw7mLfQ46BQACSWZ+WXlhzT8Dw2v7gEfHzLbZu6e3qQEavAa0tutdAgKPjUoCjQNRVAhu5CfvL42KvZ+p5YYllR6NzEQMK3a0PPo8lYuygIQJq66mVOHgTCgCAAABeYTpw6iBoI19vjIiLW6zVd1wOBgN8fuNml+AZAQJQhlARElNczJJmV/P4339j78o/U0tQnOt2NCSHukyiQqbJ7ZMk6l3PTfvpAt7opJXO03sm+fejlCiGf2z60JYTHKXMhvR5sAzwbpBviBc75+fPn//273x07N9be0bF+ZOSOO+4YGRlJJpO1arm4dLQ1MFdPdCnhdjWUKMysrFhkqayvd91rTeAmf1FJDYYijeJyXogFOgbEQGzB8jzPocBVy/zlWPGubHXHUOdAR5ssiVfaGZqZVOqN4xPTxzNFM9jqcVbNLY96jWgoFAmHbs7FtKaxruvOTU+fOXCweOZs0rDThG7P5PZ4uQOxWdEfDGNofGYS53hdbzy8bVdXuuumLA8IwGs159w5Xq1efUGzbVYocF2n0SjP5Yw9e4yXXmIrK8AYAABj9tmzIMvE7xfuuw+uJuHmmDSNRjEz3cicDjpzcb8TkAmhhDPGHcOzC7yZ2yWs7l2uXuc1e8e1grIdZ2FurlFd6kigyleyC5n5HAFff8vgunR7ZzAY1nwaIURRFHXz1lpP/8rSfHH5Qnl6qTNuxUOkI2AvFk7OETI0skVV1Vv0+sFAAI64lF0p1+oOh2JNV8NanYHBLvp/LA5lB0UKEiU+ggIB0jTRMijZfNnEigsAJCAABW5Vqrqut7WmJUVFSvVKRZYV4ODWeXXJmZ2ayxdzAx3DRH1/xyCW68W3jj3vyD956OPnU62OQKFcmh47M3l0vHbn+t9NRtMCFa7g1ksgF/1DyMCzAD/IK9uo1/e98dri/NTgupEtd9wVjydvUC+4cVx0dSGioORyuTde/dmJPT/sqE8T4kpEDsqiItALRfeVC8Z4wb23U9nRrfVGBE2iABCQvQMrZ99+9blA4PO3d29XmEFaBsGzQVRvvAK5XG52ZnZqcmpmeubQu+++/tprn/vc5z71a78mK6oUGsaI15tMLdbInrnaXMMX9PmWClXH9XzXYG/O+dJK9hdnRs/WOUv2BsJpKdJqUH+D0qblnHCW0/RCebY2Ov9rktTblrrMSoCIjutmi8VjkwtvZWrVUHtLMOxlJmm8TVep6TjNZJSQmwtFQPBcb3565o3vPcP2/2JjWe9AUCgB7o2FsSQiJqAmNo7UjrGCN9QxODKwQVFVxA/e36yCABBFEWIxEEW40iVFAAiCZ4FjgmXYJ04Yr732Hrc2Ydv2mTPCq68qvb3Q339l0ci5aTSWZ8642ZNJmo+HUBIoILct29D1bL5ek8LMcxGxuWhddRG6Ptk117ZqpZZZnOlO2gqvLM4vzpd8sc5t3f1DiURCluW1ekYgEPD5fNFotNDaMT89Mb18wrIr7QmMSoXFzHg53ZNMJkXxRsO2hL/+67/+wEQfGoyxRqPhOI4kSYQQXdd1XW+25z+v0BsEInocKw2jWCxJkpQvluoouqLK4T3BeRw8BApEIEAJIoLlYdHGJd0r24wj4QAMgVlGJZvxy1IoErNtp1ostKVSXV0d4AmVeefE8RMXZsa7Un0tiTZBeG//iIi2ax8+/Yt9x/6f27ef33an5fdzRcVQyJXU2vHTmWox3p7sUxQfInLknHPO2aURRggQgpQgbXrUJT8oYULFa3Y553xqcmLPy9/3iTXmlEulmuYLNf0GH1qHfb/BBD3mNaxGtVFtGI1arbbnpy+feuX7D/oXH+0VOeI7i9aKzvM6f25Mn6t6u/q0nT1qTCO6ixWb12wuEEwobGl5ZcEQ2zbeHekeJloYfFEQJCCXmnxJ0btWtQ3DOD92fnFpyfaQCrS9rW3btm0DgwOiJFsonctYey403srTigNiZYkZjZ5U5I6R/oBPu2pujusePnHytaMnFtEn9tzmxXt1UA0uMhAQKBIKRERRM5VwVrekRrEnFvSpyqoVlXPeMM3RmfnXR2d+WaXLsUHujwRQ9/v9wXC0letb+3sioRAAeIwJlFqWRQjRtKtX5n29iXw5k3ntxz+2Xt7zkXK9l3MNecXz3mDOO2G0ejVIiCARzj3UwJ8OhrQw6pxyqsoKIpqm2YyXaEZKrbVdvvcZgMgyUVVWKLBcDlZjqigIftDS4O8ngS6UtQqUFsz9+6wTZ9B0rpCgw6pVKZ1W+vpAllcDs5rC0Wvl7PQpvvxup1aJB0Ag6LpOpVrLFYqZTLGcKTIbpERfKJ6iggA3titvhg00GYZz3mgYE1OZ0YnFmelpyVmslYpZPdk5/MCGzVtjsah0hdG8+VWSpGAwkGhp9UggU9Ab1XK+bE1nadnUbJdpqqzI8o3Mm19JefE8r1qtZjKZlZUVxlhHR0c6nW4GfDRLzufzf/qnfxqPx7/+9a8Hg8Fvfetbr7zyyo9//ON0Ov2rlPurAwEZ56bryZrPsKyYpsrMy0yNh7shEI0L4kUS5AC6B0XCAYjNAAAaHhZszFX1UjHrD0V9oQgQUi/kJdsMJtoQQW/oAiHJZEKSJLPOJi9MHzn5zob+29tTXWu5tQnDbIxOnsrmFjizAYBzQATTJLkcLCzVXd98w2j4tGC1UV7JLxUrOQQzGg4kot3xcIciqYS8t0oRcrVIsGYEFAAi1mrV7PJ8Mqq0pwJAvFpxcvQUlWUl2ZISxWsaDW8cHHmpXi7VSq7rcMYXp+ZP7f3pbdLKvW1CUqOKoBou/mLeWqrpS3XeGRImy95SnTkMDZd7DAiATyZJv0CovXju6KnT29u6elR6lQDG6+yjCSF9fX2//hu/QRTfocmVDT1tn//1j42sX18sV945Nfbayel3MqbOlLTibmihi1JsbLGUXZwr5POpeOyqEhAoTSUT6UQySyIGVW0u2EgRLmqal/4BiFo10H60NrUxkw/5faoiAwBjrFyrn5ld3D9XmBESlWjakfwRyfFLqgwoZWfXt8aT8Vhzwbgp+TdDWacnJubfPXxfXU8gCAAegA6IyPtKuPR2tSSCfFuAqhTDJAOZl5defqcUGyR9j9/3eCKeBLgswvj9YVhw8TmRZeWOO4AQIsvO6Cgvlwl4chJCA0RrpaIfiDRHplaQqAHawE6rYQO33svk4iQql51z59hDDwl+/2oRnHNTr+fmTkPhZGeg4VcJIFqWlatUJgu5clVXK9agSESWrV84YnX0+yNxuIJeL3PHXfnUdb3FTGEuU9I9lWmdp+bN7pbk0OY7+voHfT6tyaSrcwQuBec2P1BK/X6tb3CdKEqT5+SlUkWO9FUd9dx0wXP55o09yrUjplfx4em1WCx+85vf/PGPfzwxMbFap8HBwc9+9rNPPfVULBYDANu2T548mU6nm/HSzUp/6BJvBJZlvf3224ODg52dnddKg4iM80q1Oj2/mCtWSuWKXqu0d3QFuLVy/mS8dziaSgui1JxCHkLVAY+hIgBDMDhYHlq2VVqYqQrzrQMjsqrqpXxHSNNUzXGcRr2aTCQikQihtFBafuvd1/1qaF3vBlXRyKXYT0TeXCYt21xYmZtfNI8cpZ3dRFagUhHGJ6Szp8JE37Zx8z2q6p+aP7/n4AtvH99Xd2Y2bjbv2hZdqD7QFf2ddV13S5JyUaoEiHD5FG0O4nK5ZBq649hT42fnJ4/HAxIlhCEPql69OHH6hLh5630tqfTaSOwPjHqBS1E7TXJp7r9My8wWVgQqxIPxQq5wZP/+VG38oSFo8QkCJakgebhPm6145/NuR0gQCDm2ZLsIFEASQKIEER0OBNAn0Rqd5vvfuvPue9rb22+W9wOBwI4HdoAvnN1/fiAdaO/qPjUx/drR8denKkXUEhL9RLv44IaBoslHa5M+rSE0CitLSxuG1101N0ppNBJholyXYo4QIVy4dNLh4h5iNR2XA/N2/Him0N8ab5WjnGO5Vnt7bPJApjEf6Kn5Whtc0gj6FFmT0Jw/n9SLQ13rtEuGvJs9SuBY9tToOWkp04UoAQUACtBOxN8SxbqHB/LeCwXXcREVAQA9dFdwOStnx6bGVEH9+P2PNqOXL+/Q91egyTU0EFDvvVdMp62337YOvSMUxoLdVX87UhUJADAHbBd4Q4ujuJmgC/oschvgsqxdd63RABFtSy8sjJLcsTatFtQocu7YVqFYmqzmVqJ1L+QhuKojhanpLJ+srtyjBiM3G7LWNMtUanokFg+LAUnzzzpuoqdtaN2IfCmU9bK2rw3hIIQAkEDA3zswZLiCIZdbOzptlPPZ3HK+MmhYiiR94GGZD0mvMzMzX/rSl/bu3btly5Zvf/vbGzZsoJQeOXLkhz/84d///d+PjY1961vfSqVSl7315S9/+cknn4xc1434K2JqaurP/uzP/uIv/uJa9NoknXw+P3FhyvFYSFN9fT22bZqmzh3HzuUW6lVvcET1Bd9TCAkpEUIo4ZfOdHmuo4oiqxWLk2cF1Z9UaDwSJpTqjQZwlkjEZVkCgPnlmXwp9+g9HwkHos2e4Jzbjtkw6wEtqMgaIUSRFMvSXtkDJyfjQjRtQbxUkTxD6op1vDu3ULa9cmHutYMvTS+e+cgu/PRncP36yuxkY26MRgMdkWALIcSn+kGgF6O4EDlHIEApbWqsh995a3H2HOGuXStVFzIArP+2/kgiDMA5uqWVsdFTkrx9RyyWuKhrcL52Ab+ODCkhAIQjN01zbnZuama6btepRwb6ByYnJpbPHfnNFpbQRJsh89DjuFTzyhbb2aM+NuRTBGJ6CACSQHwSkSgggu7yosmnSu6hZXvm3Km52dlUKrUaqnkjuLizE0VNUzmhY9ML//dK5kQJ5wxBJeKOOH/8jsHtG4ZqpvXiT4/oLqyPixTdSqVyLY2YUBqLhDf19RxfFu2m1QgB0APmABFAkGB1A0GprYQu1LNLhXLIpxqmdWxq9mDWyoQHykpS5xICEODcc43qcml2IqTA2iNMN8WtnHNd18uZTNJ0AkA4AQ5IkMgACqAI2KKKgZhc1ZmzYBK/KLXJoBCuIevmB2YO9qZ7B7uHrmzwZULASwf8iCRJ/f1CW5t2z1bx9P+UCwep6xBGgBNomqAFIBSlEAkOgltHK3MpC0pBUaTubu2uu4RoFC5RmOtYpcyUs3y8Q6sHVIKcW6ZZqZQXs8Ucr/mGKZXlGvK5KW8DE3zGSn7ihBrviCaSHyiry4iSM46AtbpBJOI5ZsCnxOIRSZIofc+ZsXaHd7XuILIsRaMRNWeZtscJInOozDhyjpziB1jMPwy9cs7/4R/+4Wc/+9kXvvCFp59+enWn/+CDD376059+8sknn3/++e3bt3/1q1+97MVAIBC4WhCc67qlUsnn8wUCgStl57puoVBAxGQyKV3tiAgi1ut1z/Oi0ejU1NTS0tJ1Dodwzhu6PnHhAhLaP9AvySoCeoyZpmXqZjKZKpSLXjFjFgg2fUUIlBBCKRDKLw04QaAqd9VQiKNn14ut6SGfP8gY13VdlOVAMNQUuiRKA13Dna3dzTBvRHRcey4zSakQ9IUIAb8vdPvI3SenJyZ1rOFWH2mPhIPxBNR1a87GhYwdXDofNRdX6g1JcUc20P4BDIZYZ2+hmD1Wqk9xDq7ndbb2CrJCLi2lvKlXAjiOc+b48aNvvO5XTOI6K+NLRs3ov2ud4vcRQjnzPNcTuDc9eTIcbw0Gw00iaxI0IaQ53q4cPM0EjHEiCIQAY3zs3Nj/+sH/yuZygxsHZUEKB8Onjx/zSktumB1f5jWbGR6YLp7NOecL3kM9qiKQhJ8GZaqKRKSEXhqiHIEh3NWuDCfc5xeL0xcmNm3e3LSOXas3rwpEdBy3XNfHp3MskBRUrUvUPz4U+9g9t40M9Zu2s/+t42cL9vq28IOtsbePHF+pWezSIdHLsiKEqKoajkSFMlyKvUWwdTE7ztQQi/dSUQZCALmAKFOqg7yQK6aC2txK4cRyNR/oLcjJBpcAiAA8IjgBVuPMUiIx16p4Hrtq/W+kgdVatV7ItzGUgNQEWhQxafEwEAKAlBCf0FHnyQO1pQv17LAq+hNSUGACMpfPVxeOnT3elmgDuFz7uUybw6aP0nXBddHzgHNBI7JqUIqEAFAOhAIF8AgAEAaAVI6DklIcUwKkRJZpS4s0MKDdc4+6YwcNBJqLCeesWlwxls8khXxAIYDcse1qpZrLlBvzZdlvoaEySlwBDBkqdU836guld1whuX7HTu1qB0CualpBRNuyi4Vctbg4OZXngt/n97W3hFItMUJv/Ij2RSUjHg0F/YWl7Eq5UrMaRTmtFgtRTZEEv+/6B+c/DL0ePnz4ueeeGxwc/Pa3vx0MBtc+6unp+eY3v/nKK6888sgjV7741FNPPfPMMydPnuzq6nr++eefeuqpv/3bv81kMt/5znfy+bwsyzt37vzHf/zH4eHhprxmZ2effvrpZ599Vtd1RIxEIp/97Ge/9rWvxeNxADhz5szjjz/++c9/XpKkp59+etu2bZ2dnS+++KJhGF/84hf/5E/+5Hvf+95HPvKRtRXgnBeKxaOnzh45fmLD8FB7Vx9F0rSF+/2y3x+KxhN9nL2nVrxvD0Ww+YUAIJCLPnuOyAVRBkBd1y3HSaVbURARAQh0pnuFTQmf6m82h3E2tzI5tTBx+8hdkiQjomE2cg1db90e1mIjreK6JLlzQ0vQr5w+fbZk8pNL/FwjuaB0s8h8sLSgyLYkAiHg87vx1rydWWK8Zyk3H/KHVX+KCmsjxwhjLL+ysv+550f3vBGUKfGYazm+vjTISilbFVuDiiIqsji3kDtzfrFcZa3p9ra2Dkopvi/GFy8biJe4lQFcfOLY9r59+yYmJh5/4vGtd2+lAq0WqmfOnM0sVqaWPJeDSIlIoWbzvMFjKvnFvDVWcNqCQk9E6o9KXWGhJSBqIpEoCJQICJJCN6ekqYadmR7XGw1FUVzPRY6KoiiysnYeNfUO27ZN0ySE+Hy+JhfX6vXT58YX8hVL9HUKxke6fY/fc8/tm4bDoRBj7PDo1Kujy35VfuL23tv6O45nGhlXLpZKkVBIFMXmJn2te4czbrkMhTXuJtdyJ4/ZnAp3Rki4hQBI3PNxWyWeS6SFYjEd8h1bKq7IrToNux4CBSAgE2wRLT/aRJACAr9raCAeu7rB91pY5RHOealUqmTzPkQEsPyi6JfklQZwQCACwkANOw7aoLP9jO5pB9/R+hAIsy3i8mg1uMRPtx3a0re1p6d3dbt9WagDACBjaJrewoIzNuZOTHhLS9w0Zb8Z6ZpRVRcEBCTAADgBBBA5IAGCQiIS+Mxu2Xc7yH4SDArRKInFhECASlIzXBmRm3q9snAy5M7Fg0AJOo5TrpSXFwrGZKmn7noBOnHYqqeobHK1ShaXsZ7lGmayuZdEWVt///2Kpq3dv1/HEF+pVGcvnPK5893+ylzGVtRNm0c2xaPhy0R+pen2SiNJMOQf7m8tZY9li+fSwUbY4VOna5qyS9M0Qq8XjHHT9Mo5P3z4cKlU+oM/+IMrlU1CyMjIyMjIyFXHja7r5XK5SV6IWKlU/v3f/10QhG984xupVOonP/nJ97///T//8z//7ne/G4vFDMP42te+9uyzz375y19+5JFHHMd55plnvvOd7wSDwb/6q79qHmGu1+v79u1jjP3RH/3R+vXrBwcHRVH84Q9/+MUvfvH+++9fv++h7ToAACAASURBVH792tIRsVarjY6dn1xYGp+e8Rynb2CdLDuqqoqSBAAEgApUeC929AOMj4icc2bZdjGXRc4t2+VUlP0hDwhHEADCwSgmw+A148WxWi+dmzwdCydDgRgl1DD1d8eOvHZhlim+3SO+33x4i1+h4VBwenw8FQ18dPe27bPL33/1yC8raZ6+He3z5cq0abEwACAwzjlHSZR1o16o5JItCULFVZETAo16/ejBg7mljC+ecJcy6DpAiFcxchNLbjqSSGoEJEO3JyaX5mZmiyW9u3fw4UcejTedHoCX9tlXUQqa3UcpoRf3ykgI2bZt2+5Hdkfj0WwpO35+vFYrc44tIWEwLnWFRYHAoSXrQtH72IDWE5VqNi8abCzvjuaciEoH49JIQu6OCGFFECgQQlSRpDWcK+by+Xy5UrkwdaFYKG5Yv2Hr1q2qqq26IxzHWVxcPHzo8Nz8PCFk/frhzZs3t7a2nptZ3H8+o7t8Y4h9YefmB+68rTPdqqoKAKzki2+cmZmuOju7/Xeu6/H71EgodG5y7plnfhCLhNva2jdt2pRIJJq2ndVRQAlZs8oCqgEr2uU0qr7mc+Q+tFVwEGiFCVN1XYClKRIvijHGuQqOSwRGBIGASAVmuo3p8+s1HO7vURR5rWCbfvzmwXxRXI2fXVUiXdd1FUURBIEjcsdVPE8DkADiDRdMV7q4aQGJQ8pAALQRugShp4z9WWtLHd5UGVadB2mg1h1wHOtat6sQQpBzViya+/cbe/Z4s7O80UDHAc5YEHwCKp2EqAhIgPKL6gYB8AAIoBIR+jcpPfcTWcWmNZlcGkiEAKLrOJXcrNSYjmkuJYQxT2/ohVzZWqolal4cKWsAn8LKPJclAjapFuU480dlX61Syx0+0rZuXbKz8zJH/7VmKBWo60G9UAkrdl/KcxUW0BQqXL5Hueo4vywBJcTnU5MRwd8FPhEbdY+JlwLhr7s+3jS9MsbGx8clSdq8efNVbXM3uCA33z137tyRI0d6e3sBYMeOHYVC4cUXXxwdHd2xY0culwOAL3zhC3/5l3/Z1JG3bNly9uzZV1999Q//8A87OzsppYIgTExM/Nu//dsnPvEJAEDEkydPPvfcc/fee+9v/uZvXlloNpf3kKwbGKhWygFZBoBSqRAKhQVBoKIAHIlACAClAiGUNo2PhCJvGrzhkiyREOAcTdNwXQcRTV1vNOqVhtE2MEwVzUNgCBKCKImyBl6jeY0JPz9zZjm3uKF/iyKriDC3Mvvm6JllLt3Ryj+2rWv77RtkSZqdmjq2Z08knU61JH2aet/0RPbQ9FRkndP20MRceWqyFA4z2xJq5XCIpnxqQBCF5cJiX98AoWKzdpRSz3VHT546euBA+/phO9UyWyiA4wCCWzMqC7lYaxCBGDYrNagDfsahkF18Y89PQuHIgw/t0jQ/fMCYQ0ppkwgBsDkSxsbO16r1ZDIZ8UckWbxna197t3l3SO8KkaBMF2veVNkLKcKnhv0DMYkj1hzMNthUyR3Lu+8u2mey7qaUfGe73B4UfRKIlMQ1YjbK2VxW9WsnTp7Y/+Zbux/ePTS0TlW1psLiuu7pU6ef/dGP9u7dW6vVEDGdTu98aOfuRz7287HMybwnSPJdG3s+sfPe1pYEpRQBDMN4d3TqwEw5IMJHN3a1tcQWlzLl3PLRY6dPvXRSIZhOpx999NHHHnts3bqhVVuBQKmmiIS5sGqLFDVp3b3Usag/TABk7sroARCTygbRTuethZrD+4dMGpC5KwNTuGdRqglMYrqr10AQqCxc5kts2v+q1eriwkIsHuvp6Q2FQk0TDWO80WiMnTun1+uDg0OUgGlZaJi3+UNpkhWRE46EvXcRGgOoA4oAKsB6oL4V7PVImNFK1Ukx2qvwk/UGcH6dWYqc24cP1595xpuaWuuSYnUwZ4kaorJ46T45BKAIFFEAjmguWLY1IRppaWCAhsOE0rWaHSLXa0VjZaxVqmkSIDLT0EvFSjVXjTI7IVOwsepyAFjnSgIh4zUmWVJnIBiU5IjHStPTy+Pj0dZW6QbM8YhIqeiJifO5FLiVgOJt7ErLinqdi0GuA0KILEuhcGx6kpZrisXiA4NpQqVmlPd1svww2mutVlMU5TKzwIfDAw880NPT0/zs9/t37979/PPPHzlyZMeOHZ2dnd/5zncIIYqi1Ot113Vt206lUrOzs/V6fTWH9evX33nnnTdYnOG6gVg8HolFQmEgoGparVphnru0tKgoMjIuyhICKLKCAASIoiiiJHHGPc+lVBAEgXME4JIke57XaNQJIeFIOBqPqz6fizlD13XdCKkiowIHFDVQYshs5JybljE6dUIS5US0hRJqu9aJC6fOl+u9qeCnd23ZvGFYVVXbsi6cPt1YWNh+373RWCwUCn3skYdXaq8X5ki+/5On5uv//uP9i5liUIvx2j0DPcOqogLCUnbRti3ONUAClHDG5mdn33z5pVAisW7r1n3PP+9wlJp+L8NyqkJuLu9PRn2p9sFNO7qH7//pCz8YP3tkbmpsz8s/DkeiW7Zua0ZEXpVeCSGCIK5ZaUCSpC1bt5ZKpb1v7q1WK8mWZG4xm25ruWvE11kZt8qFxYJzNGOdyzu3pRSXY8PhAZnENRrT6EBMvL9Lna94x1fsE8v2VMm5s13d1iaHFEGTBdZwcsVsBGKu7Yb8wc7OjrU3kkxOTn7ve9/bu29fo9FoEu7S0tKLL750Zja76OthRt0fCGiqqqoX75TzPG8mk33lzGLZwo8PRG5f318ulV568cWjbx/UHUFDkdv1ubm5Z599ttFo/MEf/F9tbW3NvbMoihFN8WG1fPHYBgIlgj8i+BEAKKKMHgW0QbKIRAUR1AALR1H0eUg8IvvQlsEBoEGJa5Ioh8It4PREZN8V51M55zMzMz949hnJJz7xiU89cO8DmqZZljm7NHfq9Il3Xvn5plBC7To/Nz5erlS4LLcUy8CRXzpcQknTYEVshc75BF/D7fOglUPSJCIAIeQ2Io0IdM7zzkxOaGNj9z/wgKwoV3YxIgLnXibDSyV4/4kp9EBfQOrzQgqVgoSIAAwIErSA6dTM8/Losms8L7S8q+3Yoe7cKQ8PE0Uhl5Qwx7arK9OaNR8OAiFg2065XC3myqphiQRLDMHD04JTEvBBmyQEET1KUNBEURCJJogtlrl46FBqaKils7PZNdexDHgeyxaqlqcMb32wVNWrhYV4a8fa7cJNgRCiyHIgkhQjG5ItQUaUmqXPLBSSydj18/wwtldRFBljruvebLzelRgaGlqbQ1dXFwBkMhmAi77vH/7wh7/4xS9KpZLjOI7jjI6ORiKRtWJtaWkJh8M3WJyLULa9MKHJlhQAeJ7t8/s0n68llWp2GBUoZ4xzZluOrjdqtarf7w9HIpKsUSpQSpFzjlwQRFESEHhzU7eSzxmGKcuyXS+vzM8G5H5fOIACpRKocfAMMKtgWPpKYXl9z2ZV9gFAXa+eWpw3kQyltI3D/e3t7ZTS5Uzm3LvvxoLBtv4BTdM45/F4POwTJd7g4YFy1xd+Oa1N/c+992/Y+ui9n0qE2xCQc16tFR3XwqbDn/NSoXDg5z/XG/qOj31MCwZFf4AEAsSyCGfAuVvRcxcyJBAYSW/oH9wQDIWrlVIxv7KyNDsxdmLPT5/TfP4NGzYpV5t4cFGrfe8rIgKCpqnr1q2rVWsHDhzUNO2dXx7oFAo9d60rKYPjOW/0wsL5ZX2l7rkMXI63peQ72+W2oKiJRBGoomFYkbsiwrq4d2De3Dtj6i7e1R1g/rDGw5NTk7VjjXqlsfPhhx7c+aCmqU3LQKPR2Lt337uHDjUajVWPaK1Wq9Yb70zlfH3p21JaTfbDJTMHItZ1/dDY3PEVsyss7dzY5VOVNw8c+Pnrr1eyJRLpVIIRzULkrFQqvfXWWyMj6x9/7DG/3w+EUEpDihAT+QoyjhzQI8iBiEAEIECQSciRUIeKFLmKLpdl4o+IlGjoGkR2QPCDG5adFsHj5SwUFza0J7euG/RpWjNIgzHmep7nupqqtrS09Az0nlw+uf/UW52dnfFk/NTkqX1jb02OnwtdWOxwQ5F3T0Z0w2RsFr1x5tYQ7ieyItKGJMQcT0MgAKIipQKyZHqCywkhlKAFQBCTRACAMY511200dH6dY7iECK2tNBDghcJlT5gO9QngcpBvDui0HHEcv8d5iZuLaCyiXQBgNV5psFzOnZsLfvaz8oYNRNOaQ8XSa6w6G5dMQSCcMcMwSsWqW9Elg6/kiVcDSjw3AEQgBoCDa+2qRCCQIiR/YXL22NFIS4t63csTmhGv1ZopKr5QPMEExdQrpumtBgmsRhesjurLXl/7++pX0/IisZZALNWwcGVxfiVXdj12jYlyETdNr6Iodnd3Ny/O+NXp9TIVuDmrHccBgPn5+c997nPHjx//6Ec/unXr1mg0iojlctkwjLWvSJJ04yc7uefNF8pc0joiIZ8sCpIcT6YEQn3+IAAAAcexcysr+WzWMA3PcRnnoXBIEIVYPK4oKqUCwqULSzmCJFsuKxnmSsOuVBuaKAieVS4UXKOubtnsi0UESkQfaClwTahVq7ZlxcIJURQ58mK1OFFqKDJ2xmWCnFJSq1bfeuONY4cPP/boo219vZRSz/Nyuezy4rxntHCqYPvdBqI9pm/ofnRj3/2KrJq26Xqe5dqu43EXkIPt2YffPTR6dvSRxx/ffPsd4xMT8Y721KMfu/DKq24uD4CEcavSKMzlKAiKokWjsQcfeqRer/30J9+rlnKHfvkG50B++/c2brrtRlz2jPHllczbB98+Pz4ejUY2bBo5duT4hYnJnLG0spwNjdzhT24Oen6pNp6ExrqEZLi4Z9IYL7q7+tStrYomASVEFCCmiXd3CP0x8Z2M906OVmMtJJqeK5mNzOn169f/7u8+0ZpuDYaat6AiZ2xmZub111+vVCqJeHzXrl09vT2apr3zzrtvHD5TDLb3qXjPUNu7ee55rNlXnueduTD3szNLLofdQy3b1vdllpbe3Lt3cXFREVUtEhxs7bmjK2pb5htvvLm8vPzqq3u2bt06NDjYXE2SwUCXr3DBrTuEBytjfn2xElpvhnpBVAVAAbgHlANVmEldw1LCzN+qEElCJoOHlAYoT4mmapTqM6N+ZvZsHVYkuaYbDdMqVyrFarVUqxLb+ci997S2tn7q0U/5TwWOTx3/2ds/8/cFjldPZIIrmDJafMSYL1MuJIAKQDqAhkDYz2xRgE3+IA2ruFxr3gIsN6yUYRN28aIKRmBOAsmDHo4AkAfuSGIykVgbRnoZoRBBULZsUbZv93I5eP90AwDmSFV5/ZtU2Vc4/UQ5tv1CRco1PBNhVdPlnJdK5ltvIeeh3/99ZeNGpBQAPbOoOssBHwKCY9vlcs0o1BTTrWUJqfpkJui80SowGozXIz6hXAQwALjLuUIRPVA4abHNpTNnzPvvV1T1Wr6BZiuaTpRcsVQ2sV6vGfWqIr9ntL2O2ntlglWWE0WhWjMaXtljzDCqyeBVwpwuw03TK6V08+bNPp/v5ZdffvLJJ6+8g8dxnB/96Ed33XXXwMDAB+ZWq9XWfm3u+pva6EsvvXTkyJEvfelLX/va10KhEACUSqXXX399enr6Zuu8ilgo6F2YnV4muuvF/L6wImmSIAtEpIQCEATbspcWFgiB9vY2TfMRQj3GctmVaqWabu/0BYIegsuYzTzT8WqmXa7Vy+WS67JE16CiKLXMnFPONxp127JXz65KPhBU0M0GpTTgCxJCGWeFWqXBIR7Vtm7Z0NnViYjjY2Pv7t1bazQCPT1aMAgAoiimWlsTqTaWE0EQgIogaqoWiEWSsqwBEM65YTUoEIGI3AZAYIxRUfzIox+/4+67AoFAKtWy+2Mfnx8/P7F3n0WpwLmAKAIIFCqVYrVSak2nE8mWh3Z9rFQq/HL/nnIhe+rYL2VFUVW1v39QVpTrDyDXdfft3f/ss88mU8locsvQ+qHuru7Z6ZlfvL5Qt5ZjjcNdI8Obh9cRX0grz/96u6WBk6k6h5fstxdsn0RHEpIsAANgHB1OQdGG+sOZRPhoCSbHZqkUeuKJJ3Y/sjsYDB44cIAx/tDOnem2Nttxzp45u7S01NbW9uCDDw4NDgZDQVmWWzt7/QVBqDF3abzWJnMeb0Z6cM5L1eq+M7MXSs6muHjfhp6Aqrw9PjE5Oenz+boH1pWVGAPamm4PB/2M8YMHD05OTp49e7a/r6/Z/GAg0B8Ujy6XuD553/J3e83T++qfOgO/xaM9FJEAckIIInUNR6+bckSQAx4hfmb7CAuoJI0Gza/o+cWg50Tj8ali/VR2LFszi44nCAJSQa8Z0Ub+ftcVBCHdmn7U96goCIcmDxlo2SkHJWQhYSpKYM4BJt4jyD4AiUA/0hUqznA2aFh9NpMZNG9b5wCEIQHSvPGHAInJkkA42J5FMEsgnGrt6++/XkAxIUIq5du9252ack6fBtd97xGlJN22PNL3jnPa1BIp2g+nj3uNxlUysW33wgVvZkYeHITm1XFOg3i66XgogW4Y1VING7ZTBdaQk6JfU8R5CyuaGN+0RZZF89hRRTA8z8sahuOpBKDuuSXPcMrzjXIhFI8LggjXPrgliUI0pDI9W1w8S1ldAiR8AC9u8S5r6/WiaFc/IIIsglmZN1cmXNchgtK26Q5J+oCTDjdNr4SQnTt3Dg8P79u377nnnvvt3/7ttcqj53k/+MEPnnzyyS984Qv/8i//8oG5nT59eu3XsbExABgaGgKAc+fOKYqya9euJrcCQDabHR0dvalL1S5DOpkYTMVOz2VmTCcfCgX9vqAq+yTJLwqKKMgC9YBIvkC1XCSUplItkqRYtlMs5Oemp0u1RijdyUXFdL26oRum0ajWbNOQZbWjbzCR7pBkORwJC1atJeALhi8dnSBAREIl4MhEQZIlhRLCGK+ahouCIjLueZyxmQsX3nrxpczkZLK7u71/oDn0bduuVKoV3bHEBBF9gEA8OyDQoC8oUgGAOJ5b16ua6pdFldsEETRVvff++2RZbt7r09nZKQA5+OILniyJA/3EstxiSQkFU8ObegY2BIIhAJAkqbun77EnPsMZO/DmTxu1wuFf/lzTfI9/8jMDQ+uur8N6njc3O9eabv3kb3yyf6C/M91hm3b/QF/5jP+j7Z4mGQul0eK0GWwf6BhoN4U8aWTTSuV+xXhnrvHLeTsgkaBC8wbP20JDVN1Qa10Krei10txsfrH20BO/9YnHH+vu7mo0Gn6f/7XXXo/H46nW1kqlcnZ0VNf1nTsffOyxT2Sz2Wq1alrWVNHQtaSWOVGvz09FNbstgACMedVa7djo5L7JokBg90h6XXfacZwzZ85Uq9Xh4eF77n/gjePj2ZpZN8y+ns4nnnii0ai//fY758+f3/Xww+FwGAiRJWlDKjycuUCzr+0i+1sDpan66XPVB1iog1C8yGLcE/QyY7bs8zWD1l1Kw2CmJBJiXr6cL64s1/zRTEPbO2nWJL9JE2FVGG4NxwIaXRwfSgZ8Ps0yTUEQuju77oK7x/B81soTToERXLA6l737Qe6lVLx4TxoEKdlIxAWPLzhuL6UUAAFcAkVKNI7hix59EBETuksQEKFMyLIqb73n7q6e7oun8t/POOTi5Q6EyLK8aZP/134NGw13aurilS6UCp2d8PDOMymYnSg+MPxAj9kh+SddyF1lcBBCRJGIIlxyErqulzdI3SJh0bBrDaPcIDqzSlKEBFv8PpnSikL0rpbI0ICzskII8Suk4TgFu173bCCgo+34bBmc7PjhaLo9EPqAuwEF4kSFXEvggsqzDUfOZ9bZA32yLK8y8k1tvhnzKsVMhE+k5ZLpVh2hSxY2feDLH8b2Go1G/+Zv/ub3f//3v/KVr8zOzn7mM59paWkRBGF5efmFF174xje+MTIy8sd//Mc3ktWhQ4fefPPNBx54QJKkycnJF154oaWl5e677waAZDJp2/a5c+cefvhhQRCmpqaefvppxphhGLquXytDWZY9z8tms82TBZfZDfx+/7aNGxRZOTk5V62XK7IqyKqiKZqqKaIkilQk1PNHy3XryPhUuVof6u9TNV9bWwfzeKlePzN61mDIOHKPiZRGotHOvv5wslUJxaggAiHBUDQUj0RkUZLXHAvhCEh8ql8QRX7xNi5o/hcujm1lsytjZ8++87OfZY8d/ci99235xKPrN25oBorVarXjx0+cnSmYge0g+YFZslNpC6jhQJgQwpDrRq2qV/vb1smS2rxgWxCEtZZoztiF0bOZubltjz0W7+jIzM0tT07dfu+9G7ff2dXX5/f7mzssSZQGBtc98eu/wzk/dODn1Ur+4L6fWqb5yU//zrrh9YqiXOv4liiKg4ODKCBDZtbNilz2PKapylBCubdTSAcE3cPx0tRPj+VYX78y2G0E0kRoqLTIzdyZTKkw5XmeV0RViiQ70okU5Up58XY33xY1Pdu/YcP6aDSCiIqijGwYOXL4SKlU4pwvzC/MTE8LlCbiiUQikc/nc9ncTCZ7bNH2heJdCWW54izMz7lyeyGsHD12Mpdd3ndmNlP3P7iu9YHNQwGfb2FhcWZmmjE2MjJy5+1bp1fK85W5XKmiKGpvb09//8C77x5aXFjMZrNNYVJKulpi9wUqjvFLQWjMssCKG7FRaN5ljQjAHWLUfOZKRzLIkz4XLUaIaRheZjK3ZBVVrU6juY5WL5wGOcCJSARJE7EjzMIKc3ML8drKpi0bVVU1DYMxtlBYOFw4UoiXBS4hQbRQs+F2i9wHNEQpBdABcxKJEiFhkz4i5DmrUq4SAgCOSHMaTRo8zJpnYggACBwBSB3gJLLgxk07d+9unpys2bWji0fLVtnlrkAEVVSjajThS0TVqF/yS36/9tBDwLnx+uvuxARQKvX0aI88khlqO/D2/6sp/ruG7o6YQSt92J2ehkvRltCkPFEUUilt1y5p0yZySU1WfJGWro3cNTKzZ7xCQ3Fc7hF0hKSsqkRACorfn+rtDISCtUaj0dJKHMfH6hVTLwimqJFwEEmATQk1dn5/tHNI2XinJL1PAV/LmIQQCigLNqBdsf0VO2BXnXKl7vNpqzEb1+HWywKBOee1urGSr5frDkq2QGxNdLjrfOAtkh+GXgkhu3bt+ud//uennnrq7/7u777//e+3t7cLgjA/Pz87OzsyMvJP//RPmzdvvpGsdu7c+dWvfnXbtm3RaPTgwYNnz579yle+0jzPunv37n/913/9H//jf5w5c0YUxaNHj95zzz2/93u/961vfevrX//6H/7h/9femzVJclzngue4e+yZkXtmZdZe1VXVO3pFg93YGyAASlgoUaJkRlLkHWps9AtkepCZnmQmPephbB7GTCaze0e8945EiZQGpEAAJEiAJLob6G6gt6rq2vfKPSMzVnefh6gqVDcaAEldXpkNx826rXILD/fwOHH8O+d83/8ax8HuO7Hh4WHDMP7mb/7mrbfe+uY3v/nCCy/s/5QgplL2kUOHtGR6YXVtfbvmddxuB1qAEggQQplCGQMgXgQ/v36j3WwcOXQolc7qUwe73W547fqtpTlmp0tD49liqVwqjORtpOqmD4FAAKC4kx4fY+IAGFO6yhATZsrUzN14ILF1UyGMqomBwSEhpGFa51966djjjw9OTJiJBAB4nieECDiuh6ko0Q9I0G8Z3vpYsZSxM4DIo2i7vhGF4XD/mKZqALh/Veyl3Fer1ZGjRy++9FI2n5+dmfHOnTt87Hg2n4tpXPbWmaZp4+MTL7z4pSgMf/b2a6169Wc/+QESfOl3/mBq6pCu6/Cg5aiq6vlHz1Odzt+d+/DKh8lEUlHY3dm5tar/AxL2JagEWevxu3ON1bVqe2WRZypGoa8vN5rIHxgY8dY3a61OL1ssVFLKoKjmnOU06ySzdNNRuW4X+4qu63a73Y7TWV1dDaLAMi0A2Nzc2NzayuZyURTNzMx4nrexXb06v9WMUoegm9bpOuJ2oxWsLF8OgtbqvObWq91gND/85ORD/X0FRGw06s1mU1EUz/OcrjM8WDbmt1zPjw/odDqqotRqtUajsbdyVEJyilhy+QducjPKzphDXDEpcCk4BD3Va+hONW/QvmJeSesi5KEIm531+bXpdY+wXB8pj3K7JJkuCQFACjxDAttv+5sbVm3l1MGRcl+RIEoha83aG9NvvOP+tJ1oA0oIASKgfXqv7EddgZGM06+IxiShahAMI61J3pKiCBQRdSGHfdCFBAAOEICkEhQAjnIB5LVU4nMvPHfw0EHOuQRZ9+r/953/Pt+c7/gOAupUT+vpcrJv0B46UToxnhkvJgrGMxeV8fFodhYoZcPDfGhgbunS9Nbs2bGz46VxXZji8OHg+nXRau2sEES0LGViwnj8cfO552ilsps5gMh0qlppO9Gq5tfu3hlGESjYQRkKCQhACDE03bYYo1YhD2dOe7ksuXEdelsreW6qOKbrLSBbvWDIWd64+oaRKxcrg4x9lKG83w0nhKSyeS0z+cGqsLL9mEm3IvLh7ZWEZWaz9n4upAfat/0vpZSu6y8ub7UDM8qcX+3VO43lidxgsTxAP4VfGQB+Zc4BVVW/+MUvXrhw4Z//+Z/ffvvter0OAI8//vhf/MVfvPjii6YZJ1xDIpH48pe/nErtFFw+9dRThmHsD2edPXv2z/7sz/7u7/5udnb2wIEDf/Inf/KVr3wldjkfe+yxb33rW3/7t39brVaTyeSf/umfvvjii3F9zubmZhiGuVzu61//+l6JV9yeffbZv/qrv3rjjTcURXlg6hgiMUyzf2jULA5WXK/dancaNafd7HphEEWcR9L3qIzAdZc26nPTs6tLy4899mhfZcCyip97+Gwqk64FojB+0M7miqZSThKK6ElR9wAQVIqMIiOxQtdu4XMA3MeEYZdyhLm/5QAAIABJREFUZS9wheCMsr5sNm8o1a53Z275iYcfeukb30ilU6ZlxVlEYRguLS5+eOPm21dnto2DMlEGGbHW3EC0dWrqQiqRkVK6fm91a6mQKQ6WRyhlsbMsdxeZEKLX63EhHn78cQRMpuyUbZ8+exYR96Ws758W1HX92NHjCmNMUX/y5r847dqP3/gX13Vf/t0vP/TQKU17AIswpaS/Unnm4jNzC3fnZxeWF5fX1tZCzle4/X/dXB2xQSEYcLnWCi23U1aDXGcj3TCGx4f7Jqb8kbG7rYEwDPsyZqft1Buao6W3pS/CYK0clvtSTtC9cv2K63vdniOEOHPuzImTDwFArV5vNOqnTp0+dfr00tJSvVafX1qdaUZuuLG6XW2YViM93jaLvHy4lsw5zTvDPU9DcWE4eXZq2NS1IAgajYbrukODg5OTk3N359r1luq1W/Xe9PS0YegHDx28du1ax3G6+6M6iJzmOsUvhkEQRGopsv3Nm+3WpqfrZtgustDOFbJ9/aaVpCKS0sPmWmL+DcNpc3UCCeFum4tIMhUoYwhpFhW1QK4uJjtbn//c2amJCYUpABAE/vU713+8/E690pBEgiuC225qJegzVJbSuqqXjSQFsADNbgQgQMoSIQVJGyAFAJOSCcz4XKKUAAEhd5jMRbIgYA3gpxm7/MIzTz/3vG3b8ZNDIUovdFtBqxv03NCVILGNc61ZAPzO9HdOlE68MP7CydKJ9PGjWuwtEdxsbl6av+IF3tHBo6V0H6Oa8fTT4fKyf/my7HaJYdBKRTtzxnj2WXV8nBgG7AugEc3edrUg7BKWYFKxGfAUtuxovdFRNMIkc3yOYdja3HZbbTOTNkeGVxfn3b5a/8UE74nmtag/pE+gpqtGo7Y0fe2nSFip3E/2dbEfhNUNM10cmTpZShUGHBeazcb04nypsJFKJX8ZXikphFjfrDda7sj4aCdQuz1vc2VRs4mVsMmDGN32t38XIWGxWPzmN7/5R3/0R67rAoBlWfdtxnO53J//+Z/vvfza1772ta99bf8XEPHs2bMnTpxwXVdRlPuYwB999NGHH3441uaMHSjTNP/yL/+Scx6TD/z1X//1faekadof//Eff/WrXyWEfFJ2kQQEJIQyqRh6RtfT+bwQIRec8ygKRRRh5NfXlta22pzDB9Oz7XbrsccePzAxYaeSQ/3l9q07jcUZSkDoBY+jTiGlQMAhFKBRUAkwRIqACDyKoohHXUWGYKhGpW9ICM4FZ1RJGol+XSxs9L7/zq2RSmFwaJAyFhfSBEHAueh0nLcv3fjZsowGjlNVQXczXb9+qmAfGj2qMEUIUW1s+qF34uDDtpX+qPBZ7lSsBkHwwftX7XRqaGRk+vbt+fm5s+fOWZYVg/RCSHyQRKOiquMHJl985fcFD3/+zg+b9e2rl34UhZ7g4tjxE5aV2J+qQhABAQkmTGtkaCSXz586ezIMonqt9k//PbN15d9eGgyKBvgR/P0NhxLylVO5UjZJTEtaaWSuv37l2rX12a3u2NHs0XJKpi1fMR1h3miSXF/x2PBYNpMllKSUlGWO2Qk7b+eTVhIAfc/3/dDt9RqNRhiGN2/dajQaulDbQlmxxkl5MrDLoZkCLYkAkbfZ9U2XR4lkMiZ1lVK6rhcEoZVIDA0NNuqNm7du0fa6B4mNjY1HHjkXBAFlLHRdvo8TQNO04yfPHD1+khDs9NwfXbn+6odzvciULOvzEKhUVCXiodOqoeeI2t3e/BXZmEdlXMkUtYHJLtWjKELBqSQpRYwmWVKKpEofOXF8amJCUZQ4xa3nudNrs22jIxVEDtyRfME9dLl3USp9SLOe3KkekxIBpRQA0gDMI6lLzvH+m5kAJAkhKJeI/HkunXnu4sUv/142l93heAVM6+mR1Mit6k2dqQjgRp6UQoCkiNu97beW3ppvzj839tyzY88O2UOMUCHlQnXxxsqNvnTfZHlSYxoSqhw4YH/jG8G5c7LZJNksGxpiw8MklUJFkfuq3RAxaaeLg1NbK9NOQLVEhruNpClKpWi+051rAQBuhcxctMScG2yuJQp9pp1Cpw151CwiLOJYoWyzdK4Y9D/Ul6s4vrs6dyebL2r3pkDsreooEmEEmmEBUERBCIZcbNVanu9Teo+89qeAsEKIMIy2qk1OFKAaIDLKFE3vuG0/iD4Tuf33ktXHIPgvRWv08aYoygO5WuJN631WkhDy6ayGhJA99/kBDXf/RyRILAVUSnsRgIC9M5BSRmGo0OtmuhCpyvu3boeShpxPHpxKWomBYmGz0Wwu31UIBDyX0BhDVBBVhgYFjQIjQHGHglMKCLsgImAKG+kfq9W3wzCghG7W1lobN/2aP6sdeG92M5G8mdDV0dFRVVXv3r3r9Hrvvn/nRwuwljrPMv006rDNdx+itaePPpbPFAmhXuA2nXqlODA5dng/AhXjRLH/6wV+mhBE7HW7mqpSQgDiXEIppfz4viZeYYZhTEwe/MKLv0+I8vaPXu126tcu/1hK6Had02ceSaVSiBhb513OU6SU2glb1/Re0AujSLe0J5+7+IElmJgvpInCyGGt23ClNmSrtk5EpHsN3VkCtzPlt95bdN51lvuPJEfzhiDsTlNeu0PLj/z2iedOlPpKiBjX5jHCGGUECd+RVpVBELRazfi0GUpLIZg9EBTGeboiVQsoA0Apoq5qd0KUftDjJOJC7uZpRVG0vb115fIVAPDcns5Q8Gh1dXVhYdHt9Xq93m6saKcxxmK8MgiC5WpjxkXvwDk9PRZQK/I61dpdZ71mrq1bfivhVcnW+yRw1kRxHTI8DLnnCBYSLkAInUKWcqPTZW6rX5VjgwPx8o4ijghOz9lsb7qGi21IuxLn3VYAtqTDXZJBySWIXT7ECMBFSQFUgCSBLS5DwBgh+uifkAlf3tbZ4mB/8beev/D8cwODg5TSMAzjeTOY8UjlkSvrVxZaC4aiM0q7oSulJJQKKXpRb7o+7fFeL3J+Z+p3+5MDnPPba7cXqgtnRs8M5YYYZYiIuq4eOqQcOACcA2OSEolxhEGA3PVlkAAAZSxb6EPGXNdzso3FTXcg2rbTkCkHrWpHSkjpkiy4q0FvjboH56p5MHIQrPSg0+IRkd1IbEtdlA4Xxg+BxO1r70Ot5kwdUrUHs1YSgoSQlhMKFkYh99xOr9vaWHbWBjNDw0PxtOMua8HHLWz8fhBE29vbG2trrcjgLAVECXwvDP2E/oAt4Mfbb5wYTGwWUAIB0KnMqKBR3PZkGAJBVBECAYEExbKL5WK12kSZzFSGfNV65/0bXdc7cujg6NhYodvbqtW252c6zaaesA3dyKXtlK4aFFUCCoKCgICMUolE+AhSIkI5N6hSHUBWG5tvvvu9Vmelj5Fe23j9snHj7kZOC44eHE+Y5s3pubvb4W0nu559TmbGlNDRNy4f8me+dPrcQ5MnGVWkFH7gppN2Oj1imuZ9PNqxZ26a5qkzZzRNUxTl+IkTjLEdLRCA+4g+97fYOjPGpg4dMUxTM/R3fvhqo7Z+9dKP6tXN1eXF848+1Veu6PpOCvDeeiSE6Joeh2WjKDp96iyR+Po//ud6c+t0ieXQW2u73c1Oyo8M4RIRohQo4XRZqXX1f5l2BbR/52AkJb62IHrJh86eOz9QGbgvReSjfR8hhJB8Pv+5Rz7nB/7y0vLK8grrtSetpEr0en170/EDUIxEUqHE8mo673U7tfeuXH7k6ERfqYiIca60rhuDg4NSyu1qdW111U4mR0dHCvl8Ipm4fOXK/srAfZMjlze2X7+xsGgMuMmhAEwpMdRTfn7cCrMZ0ch7yrFsvxqMApJ2QN5bacwKr+a1ULEIoSYJy0qU7mybrfWzUwdOHDlUyOd2RwdSykat7sxuK+vbaJGpgBzf4C0hswFREXtSrmokR2jRi0AiJ9jMmgSxWO+ZERCgbSlMQgAgAggAmoSsJ4y1ckk/f/b8oxemjh1LJBL3UaYSJKf6Tj07+sx3Zr/T9Jo60yzVCniIAIzQkEcCRNWtvbH4BkXl5cmXddBvLN/wAm+qMpUyd/SxY97fiGJX+M3uxra7veFsOoETipAAMVQjo2XGs+PDmWGFKISQbDZPD59dMe26mV6qzSRbS/lyLZMNVAl2SEXDN0TECVSkGMNAIribsHbVbScwWIqolTo0MM4Utec4amtF8brzlwati69ouvFxtRhdUyqlVKu75XaqPdfzWht5dTuLrTvXva4b9Q+Uk5ap6WosA7J7V2BMPEIQwzDquX6tWpu+dZWFG9Q16+tCM9Nh6NumnBwtJ5OfncL0H2Zei8Xis88+G7MN/M9sMSiKiDGbqxNBJwKHg0ogq0FKgW0fqh5qieTEsRPazO3A9+3jh3pOd/rGzdbP3xdRePLE8UI+l0hY6uradnOzU9sILLtgThqWplJgBBjZ3TgDQSEl32G+UFU9ly4QJHeXp2/evR7xaLQ4oOn2arv6YY26aL2zus7MRNOzOiLpJ8fRKql+NVH94KhcffnYsYcPn7GtWPYONFUv5wdVXSN4r0wBImUUEQlheykEqV2CXSE+LdIpdxsAmqYxfmDit178Ekj59o++V9taW5j5sNOqLy3Onzl34aETp/O5AiGK/EgcG0ACRQIIVKUKY0cOH7v1/tGr73xX295So6C37DaYDkyPCAopGUGFQtagF8cMN4JbteCtJb8a6gva2HOv/P7JU6c+RTDOMAzDMIIg6PZ6jUYjTu8d0o10Lp8tWbVm50ezPw0kPvr4kwP9FVtLN9aUN998U4ncHb4zRNM0NE0jiFEUCSkqlXIUhvl8/sTJE81mc2Njo9ftUkL2h03i5vv+7dX1ZWI5qUFHmBIIoJSAgWpR5qewm1WsgUqpnDuqKiql5Hi19t7Mwk9X1lZD21ESGYMVCc+S6NyRg+dOn0zuZm7IXQLAyA/LvnZwTV3vOYMSz0hFBeSAJgAHMCmhCgOfA0pFyJwXAUUqQAdCkdeAJ4BUCTZ0rZtNtwcq9oljx8+cHp6aTGUyTFFwn7O215J68snhJxfbiz9b/ZnPfUWCQhlDqjI14pEEEFI0/fbrC68XzeJEYmJmY0ahylhxzFB3arG45E2vOVufvb517W7zbtWt1no1DtwNPCG5xnRbtb8w8YUvWl/M6llERKSpTJapRzXdrC4lu3Yx2LqT7a7bvqe2hIzgALJKRM2YJB4g3yXsp2FA0fITMJkKA9GoN3Rdl6ny2ux7zvZrmaEjg1MH7yvwRURKaamYjgRf26xj0IugMTYENAo/XG/W+MbatlfKJw6MVyLf79QaUgghJCAyVUnnM0zVVtfrq1vN6nZja2n1cL+TSfdmNx0Fxov5bKlQGe4v6tpnqxX8erW2PqUNDQ394R/+4dGjR/8n9ysBuARfylBgj0MrgB4HRMxpMGQRW6WBgC5HAGradmlwJM5prW1s1qp1LxKbGxtR4KbsBAEUnPMgEEGQzWX7Cnnb0FSKGgGNIiU75C8ilF4NRUAACCJSxgjSnue02vVcqvTkqeeeOv1M2TSh23K73abPqqHeaXdkY0Zvz6V7i2Pe/LMZ/rsnz5w7dMa2bEIoAOwAQEyjSHe0tgCUBGgZoDvpAJ/U4sc7EkIfiL0KsYMbEEIYY5lMttI/xBR9Y33V7bba7frSwuzdmVudjpPJ5tPpfQTyEkCGILsgPZQ+gci0jOGxcY/Z7y21W61OEAQakULC5Y3wZytBLxQZnXAhAw5IaS1QrnZTcuxzL/z+Vy9+/vOZTObBbEGAALC2tnb9+vVWq4UI6XQ6ZhAeHRs9MDaiM1JbX9lYuDteKfxvX/3yF544f/b4oXwmrRB4+qmnTp8+ZVkWALTb7bfffmdjfV3TtCNHj+i6rqpqJpMZGh4ql8uXLl26dPlypVJ58okn+vv7P+J5BKg2mz9brk6rlXWaCfZmHoXFQqO1xDZuDyf1qYFKLpOxLNM0zXw2Ozk8cKycHZbtfnez6KxVhHN6ZODhUycSu2HMnYNLiQBdp9tcXS/PLx/uhUOCFpEYADoik8AQ7FAYAY83XgRACbjicQQQANsga/ms9fCZubMn/ItPDPzOy2f+4PcOP3phYHTUSiT2Z4kAgBBiT2tLCmmrqYJZ2HA2NpzNbuh4oQ8IGlUJ0rikmBFWd+tO4ATd4K0P30rqyS+d+1IlWyFIumH3VvXWt29/++9v/v1P195ZdVbWnTU36vXCrhM4HIUb9gIRnhs4d6R4RKXqnrSXoqh2JkeNlAeqMO2ONJy6h01PEVInREesCX4rClQkni97TW1K5E9YBeC4uLi8vDCTzKRSfQO91W5qobqwskZzWTuXjwM/uE9rizGatq1iztZV6TcXNNJbqCesvlNaaqDeieYXV7xuZ+3K9fl/++H65WsrVz5Yeu/a/I3bPS7bPl9cbzoBdYXuhqRVW8+oDUpgYHTq6OHJSjlv6NovIrT8GwcOxHxXDICi1Aj0EKSEvCqLOioUEcBmmFXBQXA5jQgFACF4aWi42+22tje472568vrdFcaDXrdrZ3OV0fH+gUrKNFQKKgGVINk/5wRw34Ys9mkHSiNffv4bQoqkldJUY6A4fPzAqYX1xeX61vzm2jvv/9DpbhSyhWN95544+eTR0cmsndMUfS9+hTtaT3t6JBI1yZJwb8cPbLgHuX4CXBWvmZ1sLcbY4NDwC7/1CqXszX/7zuriTOS72xvLb73xKqOsUCgUCoXdnwrJt8H9MQgHgAMwQhJFO/2FL5yaOjT17o9/vH3l3R/MXH99PeKatV7tTFjepksFYauuuolZOjj6+Ilz5x57bGRkJM7G/eQRYH//QKVSeffdd7e3ty9efKZarfYPDFBKcrmclPLVV7/XbrfLfX3lcl8ymSCEjI+P5/K5VCplWVZ812UymWw2s7S4iIi2bQdBWCyWpJSci1KxpGs6j6JCIZ/LZT9aNLFqbK2xLvSGmgoFxOVRCDKjRiN6aDqBFXZHsqOFXNYwDIz5GhF0TRse6K+USkEYuK5LKU1Y1gPVPBFR1dRVp73V67yIpIIIgGtUZCg1Q0FiemEpewgUQNtZARIAFQCDKSsHJ+0/+sozE+OKaaqqQhmLL+ZnLAhAlapH8ke+/tDXB+z+d9ffrXt1LiJKaMqwTREGUUgJFZLf2r61trJW69VG8iMJPQES2n77Jys/fm3+tffW3+8EHV3RwkgAICU0FJGu6BGPhBDDqeHDucMm2wmHxK46IURR1HL/UMJOrS2m28QMrNyieju9utLndxHkEuNvGZHmUSOkJtWHrWRSUwwvDDdaG1qnO1jQJo+lU8m+ZGdpcf69b32LadrY4Z2E8b35jDsyTZLLZheN7OxiV81OHDw0Ve9RwhSn3Xj7zSvFhWlSr9EwAi5cwR0qa/WOfers6JFDuVSh0RFMYXM3tvj62kCl1Fcq2knrF9em+40zrwhAACgCQ9AIqkT6QnKAbiR9IUyKjJCMCipCJ4J2KCMJiKRQrlBCGpvZRDKVLZWYiGjg2oaWTqeSlmHF0S0iVYL3ZGogEgZUkyEBEHvvoa7ppXw/7No4hSkJ0x4sDQWBt15b7VWnr82s5i3l3OGDT50/k0hZwEnUA+HDx/mtgQhmgpYFLQvks7SI9jNdPehTvO8LMUxZqfQ//4WXbDv92qv/eHf6A8GjVn3j9s33a9UX8vn8vuEK4HXg6xBtA98E3qKopRMvnzjx8vDY1NtjB//P/+N/L+XVI1PD/89rl2Yd/2020dc/mO0bODoxNT4x2Vfui8HBT1+4iFgul8fHx999991arb69vUUI6e+vBEEQhmGr1W40Grquj42O2kk7flYkkgkrYe25b4QQ27ZHRkY//PDG/MLC7Oysbad2w1b+/Pz8zMyMkHJwYHDfwwNAyp7rzdfa25CMiJomkS8hkkQFno1aKa9b1PGRx85PDA1YpknvTRWilFJKdV2zP4tkjjFFSSYXKFmV4QAygdBlJKky4CEIQJChhCUCOoHBCAhIFwERFEBNyobvewkzXcgj/nKa3oioMe1o/mjJKk1kJ99Zfefm9o2aW+OSS5AmMzSq6oru9Lobmxte4KWttK7oLb/1zuo7/3jnH5Y6S52gTQklhERRaCoGJUyA9EIviIKS1Xeh/8JIeoQSeh8ugYiMKalUVps8XksXtlZmfdXaSmWduel8q54KyVRAUoi+JCR+7ku0gOaJIiISzs3NVYPMWjvNGDNEdeb2wve/m85mcpWBveSlvYVECLFTqUPHH3ZF1seEx1kUCcEF55Ezv5yt1/OVUr7dhFa7x+WM59duT9fUdG54kugAAJRQVFPJQnHqoYlSX/mBeY2f1P7DwIH/2MZlXOoOgCAleALdCLkEnRKVoEKAEaQ7iaQAgAplSdsulivFYjGbTOTtRDGbyWVs29R1haoENYoaifOxPrayBUQ9lOH+93Hvbt97QQlTVd3UzEanurRx17LNJ59+9OjZKavAVBuovhszBkAKSIFokiVAz4FRAj2H7B5xtv9hLT6olUj0Dw72VYajSDidNo+CTDZ/+sz5Yqm02yUiWqBOgPYQ6CdAOwnaEWBlJDmijYZcvXr1arO2/OJzZyp92dnF6iOPPfOH/+mbT3z+4sOPnJmcHCnkk7quEEI/XagDIYY0sNfrXb36/sbGRq1Wy2Zz+Xyec3779p3XX399bm5ubGz05ZdfGRsb3dst3jc1lFLHcT788Mbi4mIQBJVKWdeNVMqenZ19/fU3Ll++nM1kXn7l5SOHDxNCADFms55dXv3pWqOT7EsarGRIjUBO5Xniaus32Nb8WMo4NTGWtu1fZM/48RaDA57vcSGn5xacRmNUYgrR5qCHguwK/CCgimghahI8kHdRVk0lQ2g9Cm9YxvCZU/2Dg3sbkE86iT1wgBDCdykHKaEJJTGSGjmSP3Iof6gvUU4oiTgSTJAYTKdAm9st7vGTIydPHzj9842f/7db/225s+SGbigig2lSSpWqmqJ7oef4vYCHaT1zcfTib0/8djlZZpTtpbXcdz6KolhJO5UtETMTmMm6ZtSpwv1oQqItwYtEzRM+BwroBbwZeGHkFSLHX91U2jKtaoHLu55j99Z7gHqpX7cSe+DA/ituGgZVlJWNluNJt+fVG9u1pUVl9nY2bU0eO5CoVjXfMylGEhqe1w0E5irETPq+22xUReCefmhicmI45mz7xa/vb573ikhAMkQVQaNSAKoEuQQFwVYgyVCjKEDGiasSUOMQCJASECgljCEoBDUiVQqMYJziuocJfHzaEUFJgmpLz4ulux58YfYIODRDO3fmnIPbqPHRg8NakjKGQgLRQLEk94AH8Y4QiApUA6oDVRDJXqLUr2fGCEml0qfPnM2kM2PjU/PzM2PjkzGp474mEAlIGpfgAM2jMgWsKElqc3Puzq0bB4YLQwOFK1dnDSv7uQvnD02VVPEB8i3wQgACtID6OcDCpw8DERVVmZqaOnTw0NvvvHP58uUo4svLS47jTE/P3L17lzF25MjRsbGxT+JRi13yycnJqanJhYWFDz74AAAGBgZKpeKlS5evX7sWhOHZs2cOHjwY2ykhZRTx5bX1D5dW1HxfxWBBZ5OAkSCESM4I99pbqcgZzU4mLOsXvPfuKfPf931VVY8cObz61BPvtZrXNxu2lPbuD8TOFZYpCcgBAFXAokQfCSB0QfbwweoDv8jJ7MFBhmIM2oPlZPlY8VjTazbcxlZvq+E1nMDZbm29uva9xcaiBHmjeuP7C99f6ixKkH7kUySMMgSkhAZR4IYel9xW7QuDF54ff37QHqRI7+txb+xx15TSRNLW9Ilsvm+7b3ht7rbTN39zccZuVg10nF6n1a0tddsAyEBmjKBEqKXKGbd9qy4E5wS9cuQ7l99YohSeeTlfqezfBuEu31W5mKnkG3eX17pu4PaccHszHbhqMmci8DAEAIqQoAQlqG6ru7W0bWlcSB66owO5wUpeU39p2bffOPMKAAigEFApSgRGgEtAAI3KBEOdIiEgASnEAQTUKUQils4CRKQAjAJDQhEIQpyGReIyrQd3hlQDoyBFKP0GwifeAhJQEk2qSXL8wNTI2YJEXigUKCOxGAlRgTKUCRnnEsYWbMdX/vVY1XsHgYhomtbBw0cGhoY7nbZpmulUGnEvOTSSwTT0fgB8DXgDRBsApfVbqLzMBZmZmXFa1QsPTUYhvzW9PH7gyMTEuEo72H0dwrtAs0ArQPQHQB8PagSxUik//8Lzi0tLs7Ozly5dunbtGuc85rE8fvz4k088USoVP2UHRwgZHBx84oknbt26PTc39/bbbxu6rmqa4zhhGI6NjT377OcrlUp8L0VRtLC69vbtuw0zg5oZzN9sri/b40eDVj3kvJzLTA0UDhQPjQ8Pq59Af/NxXlEpZRRxRKT3apMQQnK53AsvvUikvPrdfzW3ag9xTIEMAbYYmoyk/Yjtir4wwCJI0Q07Uq4g0kI+88uLd8G99h0RKVIKNGfkcnpOpmUkokhEQoqV+srMrdml1aXV9up3p797p30bEEBKlWk60wCkG7qRFCpRkmqiYBZP9Z1+efLl8fS4Ru+v7sGPJTDsoGSKkkpnEkm7PDBS297aWplvbCwtLtwlA7Ww09ncrlMvsGU0aGmhiirhhSSvuk3GZFFHjVDW2lx/858+aLZP/N5XikMj900FISSRME4dG8lnrVariwiNgl5trolut8ulbujS6XIhakGIKus/OH744Sk1lfHDKJUsDw/25bKpXxwT2Gu/ieYVEBmRmpQSQUEQEiiCSnHHA415hojUARGkQkAAuUfTkCADyTD2XoHgJ8SJdroCJMiS0ihLKSDsSBntFTbsHhMBqWSW0HOopJHpuk0qsHvUvXsACeCugmL8qziLSgr5a8EFHjAWZIylUqkdohNERNi9TQSIDoguYBLUPEgOMgSSkoCc84W5OYXySjm7udVc3+qcv3ioUChpEikaAAAJPklEQVQgqYN2AvRHQDsEJIskAWh+pnWNCfc0XT9//vzS0vK3v/3ttbW1mOJHUZShocFXXnnl+EPH4yqVT6H1NAzj3LlzKysr3/rWf93a2uo4DjgOIaSvr++ZZy6eP39e1/X4x612+6fvX11HgzIf7ryXcR1hGbrb1JytriRZC84cmxrs6/skarF4R8w5j5+E8XeEEPHDQFVVSmVc7rEHDQ8OD73yB19+PZF471/+1VleO+WHliQRokdQIJEfzThwAE/KaSlvpxOHH364VC7/CtDEfa70TugJyY62EBKVqgCQVJOGYoQivLF1I6OnUSVJ1RIy8nmEAFxKKYEAsZTEVG7q82OfP106XUqUFPJpHt9+8irYB+MkEknDMEt9Fbd3sttprq8trS3N604jpaFJYLtand/cCptNQb1ICWgUbYFkEQogvVA4t28N1xvFoZGPVwoQQhIJc+rAoBACEdqjfe81qiuvvbV4e74UCiGgE/D1MNIKuaNPfe7EueO6aQJISihj9FfDfH4TzWu8EVIIUAmCSAkYB7sI2SVkgx0TjAiKBBEvtH23aswPG/POfboSL8ThXQQlCWZF+nUMWlIEH1lJZJKYQkmAngZmIlVw9x78KBF1P057X2+fSQz8P7Z9zI7v9a6g/hBoUyABZATSAdSBpCTqbq/TqFUzKUNTlLWNupXMDA+PaJqK0pH+dRBtkCEYjwApANLP9l5jev8wTCaTz33+84yx11//wfbWNiKOjI4++eSTFy5csCwr3E9R+uDDyHQ6/fTTTzsd5yc/+cn6xjoAFIulZ5999vnnn0unU5xzBEBCFKYMZDOm0zXQLUyMzG9uuvXOIAmMQnqzVjs52FcpFlX101Igoyjy/QARYiaRffnF4Pt+rMqBiHuyIgpjpXLphd/94sDI0M033/r+zy8Va42ygGIgXMBoR+OKeAibIG6iuJ1NFR678NQzz8Q1dZ8xgZ/c9iCCB36kMCVlpgiQjtvJyoxGVTf0Ah5KKSihGT0zkZkYsUcmc1NHi0eH7CFLsRhhe7P9i3S9/29KKdF1TddTmUyuVJ44fIKHvuO0260mczoJryejEHgEQsTSxRIQiFJQ9Wypr29k9JM62l/zmcqkBk4dW796o353sR5FgnMnCkPGMqMjw4enEsnE/ijZrzaxn6Zk+/+xJqXkQvJdgcx43HvJTfDJ2CXZ0X3b94N74+sPsAmISEjMFST3dSZCFBGA2Cl2iavHkEqkQCgCuWedxXXoO8fbzafafWe/O/1R/1JKEUXw67qm+w6LhDCKiJxzLvYpMkkB4aoMPgB1EtUxIbBarf7rd/6pkMZjh4d/dvmOG+q//dIruXwWZQ/8G9K7BFEV9FNoPg409anmFSmhlNIwingUIRIheLfbrdfrnucBQCKRSKfT5m721WcNZac6tt3uNJs7EhiGYeRyedtOUsZiIUtCSMR5FHEBkiB6nnfpvasc5PFDBxmlfhBkM1lD/zTScSlBSCG4kBBzF+5c1L0VFReDARBNVTudDqUk1raRUgZ+0Go21haWNubnGnfnuxsbotNVwkilRDENsJPctGgx1zc1NXZwqlwuf2beRXw+URS2223bTsWhrY8DwQ+0CR2v890r3/2Hd/9BUdnF08+kU2mf+1xwhSpJNZk1shk9nTcKSTWhMm0nErHrlsaVzbEO7gMP/nG44IEXTAgphAAp9p3iruMLO3G4mGwkTt64bzbu60II0Wl3Lr36w9Wfvyf8QEjwZUQSicNPP37y8bOWZcZPvr0z/BUs7G+QeRVCXpvfuDa/jkiEgI4vwhh2BQkAGgFVIRSJypCQHQNFAFSvV65tpCCkUmIUgePLcJ81oQgJg6RsjCKJCIwgIERcS1jZowfN/jLfzaOOv74XZ4f9jm/sNMCDbIvc/wDYLY/e+Wjn5UfnQqnXat157XuB4yDBHdaP3Z4lFyAlUiLjrmO/mMQLAD8KzEkJOzJMcSnRjscshQT5EXKsp9LD5x81C8Vbd+7cnZsTO6HtGAoOQXpAdCA6APCId50OpahpzHUDQGrbCYUSlAAQct7jwpeoASYAKe5QlMaWCGQ8fiklgKZphw5OjQwNbW1tra2tx7jIPePfq2rcm7B7HkD3LvT7X92LQiIaut7f359KpbsR9/hOUFII4fseItE0ncTn+omg+0cd752dFJEfbnnRGgJXiVCI2L3+iqWP60pRcB8gQETJhQy5EDKmtAx5FIVBGIaSc9zNGwVKkVCmMFXTFHU3vnn/yB7YpBCUEB32QQ2748b9hgukgJ00LxRCdPxOp9dBgkkjySgTO7FaJIRQQinQWJ39AZOwD3T+zJP797cdBCbGK8g9jvHOuHZHyjmvbtW217di+h4JoGpqeaAvlXkA0vr/gwOf0S7Prv2XN983NOp4cq0VuiFKAAkSJaQ0SOhIkVkaZRQjLgClQonVqD08/d4w9RSVQatD1pvg+B+ZOEagkidDFRIESAjqCgCKwLeLRTWZVEsFPwh3d/eI8f5wp2A2NoD4sR3ZzsZxby8Je4tyd0u5g7jGy0fKuBKGMUoQvWbz6t//526zDoQwReOBh0xBRBTSc1qARLWSPPCRMCkiEXHFMELPRUKpriEhCAicSx4JKaQQlCoCJFIKXESu63daMvb9EXOj46nBQWan/u211//Lf/0W57FqHkEkGCcGIUFEQnf3YghkB3bkRPLYUycIHKCHiiQsftChFCBB8hCiIGbSByniWt5MJvMnf/y/DPYP3JyZ+94Pf8TDSEQhUgZSxEaO+64IfVRUJAQJRSQiCqWIkDLCFBGFUbcjhUBKBd/n4BOygzPKHQ8pfrtcLr/yyitJO1XvtDc7HdyxI0CRECTgOJ95q0kASalQ9L3Ckkj06t0rtfZ3LcVP0lBnO+aVkeRw/j8ZaokQV0YNr9HqTK8400u86yGlaiFlHxqxhksspSKyncftDgwfAUQAXtyfFCCl4CGXnD/QjCEiVSihlGICUBNCRkEopSSUEEYRdh+sQohel7frvFMnZoIl02ClJCGWYiXSO6xpvu+jwNi/E1IIECGE9/kIjLEYNvmYe/Epc3bPEe59H3Y/ve/lA1rE+cJmveeFg8V00tClFBKAEgKIggtEIIQgAKW0UMrni7m95RDflA/cAO3VLv9iYwEA+H8BQr4YyMytQjoAAAAASUVORK5CYII=;" vertex="1" parent="1">
          <mxGeometry x="-240" y="248" width="458" height="44" as="geometry" />
        </mxCell>
        <mxCell id="KiZI3qLmPnLDJ573GTRW-97" value="" style="shape=image;verticalLabelPosition=bottom;labelBackgroundColor=default;verticalAlign=top;aspect=fixed;imageAspect=0;image=data:image/png,iVBORw0KGgoAAAANSUhEUgAAAdgAAAAmCAIAAADoVB0TAAAACXBIWXMAAA7EAAAOxAGVKw4bAAAgAElEQVR4nOy9aaxlV3UuOsaYc652t6c/Va7GHWUbd9gxhGB8CUmAiAv4YcgV0dUlN06IXh4/8oMfUaIEKVKkEEVCEUp0EwULw4XQCILIhQdxSEKrBGPwDRjbBdXYrua0++x2dXPOMd6PtfeuU43LJrq5T0+PodLRbtZac+015/zmGN/4xiwUEfiJXWYy+ysilZdCQBhYQCEECgJChYCIAgAijqH0YgUYEGR+NgChBtEImlAjEAIg4lVb9Z6roWRn0Y5AXH0sXrgjBFSiU44W0XRQR4AEcPFVL7yedyxC3csigrVd/P2/h4nIfGgRIiKIiICAlJJ/B7J/AGCgEMSDWAjvhORnKxf85X/7byefevQ/v+1Vm1v9j3zqaw+847++4Q2vS8Me5F8HjCC8GWgBqQGYAKnZk7mCISAgVdYyc2939+Mf/8Tf/M3fnDt3znsPAMaYw4cPPfjgr/38z//c0tLS1fvEe3/+/PlPf/rTH//4J7a2tpgZAIhobW3tzW9+03/5L+9cXV0hIkTc2d39wle/fhZj1WjB7obOx7sqitqL0tuYCN2w3P3Z244dWlszxuzrhIueGDN77xHrgYIAwMxVVQFAEARKEQCKMCH2ej0iShuNna3tL/+Pzx//H59/yXPn7iptytQLKDC0UnjD0+fPAB6kAPiByCPd9OZf+c9v/aVfWlxcfIHBKGKt3d3dXVpaIiJr7X6sQMR6OO0/vn5xtnf2Dz79B5/9zmc7S53u4Q4G1AxTFld6p5C8cGlLAWiH7WOLx1533evuXr17tbFqyCAiEWmtmdk5d8ll543CbJDXr733tqryLJuM+ufPPXvu2VN2vNcOMSEY7+yMN7dsv89F4cpKOReAaEIGykCNFw/+4v/1nmN3vuzy7hAR7733zMyIMOwPv/M3XzzzyFejVnO1yrm3N6qqJ7NCLS++4p3/6c7X/EyUJACiSGmtiIiIrvJgr2j6xz3h/1eGAIBoCJQAkwggASgEIsD6SwBA1CSIYGoghosQThMS1BA8PeUqJiCAYJqQHJCyh9VAuML51VALJWwaEHVAJ6gMzmbrFPVmODu794tb+9+84l42uOetG4zugPAYCIA4kDFgBNQWjPJstLe7023HoTHnNnpps3vkyNEwDFDGUv4r8BDEQvzTQMuAV0PhWYPivbfWNpvN17/udVrrL3/577e3thHx6LXXvuY1r3nVq16Vpqm19oUuI51O57Wvfe14NP76179+fuM8AKysrP7CL/zCG97w+k6n7b1HACQy2lyz0E3Gkxjz5RuPntrczHujQ1TFy53N3d2XHVo7sLISBMFV4M85V5YVIiAS7OtWACjLkojqLg7DYPootV5dX/3FB/6Pa44e/sE/fvVL//Loyu7eOsNKxTmgQ0AAASoQNoF/gPzUQnv51a/62Z//+Xa7fXUUvrrV517xCohotGknbQIa5aMF6YYqyG1ReSvCilQ36t7YvfFo6+hLFo/dunLr4dbh1KSa9Pxpv5im979WSlEUhVHU7nYXV9dvvOVOb8vxeDgc9PV41CgycRa8A2Zm8d4LIJBZDqKF1bW1o9c+X0P78bTdbV9z123nH3+id+KZnnPs/dhZq3X32qNHbjnWaDa01vNb+rc9WPyJR3y5iYhn8cyztwAzIJn6qM/zqIn5AhLPAXT+NV4JihGRCImmZ8waY4vsABhAEAAABQhQCSoghUBwqTMyb45mzU4/2e+iX2hfRNg5+Pfq/X2XRSKtENF779nvO4TBnpXqexC8BIPrmHFnZ+fzn/vscgdvu+XIP3/76dxG//HN9y8uLaBkUD4hxaPgdiC6C5P7QLWvCsSoSCmlrHPeOURi9pPJpNfrFUUBAI1Go9PpJGn6ojwXERFxzg2Ho35/L8syAIjjeHFxqdVqKq0JsZ60znvnPIMQYlEUj37ncQ9y+803aaXKqlroLsRReJVZKgIszJ4FBEQApp06H1EiwiwAFAbBaDRSihqNRu0kVmU16O+dO/3sxqmTeydOTTY2eDQx1gWKTBJDq+mTVK0srh07dt1Nx9bX15VSL4gXIuCcHQ6HrVabiLz3lzin8Dy4OSpGf/vY3376W582gf65u3++0+6UvvTsjTLNoLkQL3SjzlK83AwagQ4JqXYo6ksRkVKKmZn5ihefH3n1DmMWZgbhfbc4c6brZ4pERGEYKqXgskXlkiaYeTQcPfp//9PZf/kOlxULlOKo0bjltfe97L570jSp18j5Hf4bsPgnQHwFY5b/eWrjf546j0jMMCrZegGEej6EBIEhhRRoJJpCGQEERba+u9EGq0TQORiXYvfhjkJoxNRuoXOCCJoQEJwPG+nCrTclB9dr3L/g0OIFXuKCM107InAlFJL9S8WMiph+NX174V6UKgaDpx/5YjUeIyECivDsmiieQQQVSd107WtTPVSwnjj1ZYGn6wYiyvRoEBYQnrcVtTtHfubeZHnlyaefPnHyJMt0YUEABAtSAEVAEQB45yfjkVIYhjrPK0DVajWMIhQAsN5nnkvBELABqBBAaodv+ttkSiQBhGF4803Hjh4+vLW1de7ceRG5ZDWa0jzz0AHg4qXq4ilx6bsLoXF9lTiKDh482G53Js4XnutLMHNZFogUhhHV90ovEBFdWCMBhF1ptwp3DsEHxIZ41v8mja6PzAr7EqBCRPEs1jMLIAiI9c7Zylor3qNIHeyDUkhKGx2EoQkMIs078IVMmBVRBEiXAMVFgCgCwoD1wEBmHpWjUTZCwmbc1Eqz1I8FiUiRUqAI6fkc6v3P+d/bpvyPiAgQXeRsT3/X7Jd673e2drfPb3nnAUAAgjBYv2at3W1fvpz/G4D4J9TEle3bPzr30X/8bhyqcSHnBja3KAACggLtEBoRKtRpqLRC5xlQjKJ0b/flx79zRBUm0DAY0fk+jMsLYKgJDizR4QNUVUiEkQFArsrWykrQbAary2VlL3C4dXRKiIBQz5vZMruvj6dh6zyShfnwnQW09R+uB5pIzW9qrQix6Pcf/+v/Pun3gEib0FcFaoOIyFKMB4AUpE1flUha2LHzJo5tkSMpFYVIhIDgvXjHwsKslGEQVAo8uzwvRwOp4wnExWuvbx86pFvtv3vkyx/9xMe9Z0QkJERCIkREJEQkNYsEEWhKj3oSX3v/hOABMjRCul4SURgExFtwFbCwCAgzCwB0u93/89cfPHTwmh/88OQX/+kr3jp2FpUG4RoOfZmzLdEESISkEImdFXaoNGnDzrrJSJhRKfb7ggYiQqrBv/a66o/X19fvv//+ZqvdGw03RyOcIg4oJEKC8fgFJ6UAiFJsIkBVf+I4600e2x3+bWrKprKRngKxpuaRpV+Ng1WiXNxesTcYHT8zPv6snxSoVLDcbt18ND2yqtsBop4uzFgHRw7AARR1e8Igwt568f6KgIeIyihSSmEDMGQWV1kRIUWkFcJsCWbmbOKHPT/qUdLQzQ6kbSFKTdroNOqxWpYlMtY+IwszsAV7iTehta5Jm8sckas8s4uucPHnMPv2krdXMOf96c1eVthDK51mHImwACgiQGTPiEBECKCUWl5dWlpZnA+HelJeMaiqJ/J+H/mqvwXgJ0D8fHbtcus1txwKQxoXfpg7yzilCABDDYrY+zqkAgEPAIjSWI4Pr9Cy8RQYGGc4yqi0UDuKAALIoYbIoHXoRRBqvEnWVvVipw5NWBhR1R1bu43TlXmOzgAi7Jxz1nrvvGcWJiRSSikVmICUIqK5Iwz7vJ6ZWzzDamDxHkRcUSmlxbOKlDIBV1ZYVKApDF1RCDKzBxAyAVknIMLC3pLSSmkihQq4tKiUItRa26oSYVcUwr6+f1+W4llEhuPRxuaW955mEExIgFRDcZ3vklBB0wQOUwjyLHO2qr3sRInRNAjatiyktCIAwCAgzCjTMFak/gvOuSzLAcSZsGqvF4M9L6UKQvEOlVZBWNqdbNyPFpombgAzgIiOfJGTiXTa8GUxPL9hsxEFAVclzBgqNIFJUkRCABTW7AmhrKowDMuyRF+Fp77bfPoxBEEFSIBakYmBqF5VgAUUASIwA9F+H12EbdyZXPtK11iqqSXvATBNggOJrgjZXqCZUoYUAMS7fGtn+5+/N/ju8fJ8T5xHozCJJmc3F+451r31KMRmr5oEhO2gQXSpNy7MZZZvPXlqeGbLefbC8yChTmnoQK/dcWP7wKoKIgSxZbV78qzNSxNHYRojgSAIoEHHzzzhzv6IJ3sqjNXqYb7xZaWJEEkpbYwJw3A0Gjnn5sm9WTZyanW/1xSB1rp2IeoOrY+sTxSR+kilFIoXXwAiUgCoRDwIA2oUD1wJCAACaUANXNbBmaBCFSKSiIivkBSSrt0Xz3J2Z7C5N27GgVG02RuV1nZbqSKa5IUmCkODgsaoODBa1XcxpWXqfCZc8Hymtv8Ams7OF+CCfgLEVzBEuPXw8lKqBSEr7WBS4EzwoEg149AoqvsbZw4SACjvY3eLQUFULCDCOA3DAUR8VZVFVkf9wAKIOkmDODJRGK+vIk0pCJw5v/uNaOoTe8+TyXg0HLIwkdJKIaETcbln75VSzVY7TRu19zG32hEGImSeedYoIrYq8v6esLh8JAI4GtRUi68qV2RVNq5/IrMTLzbPsAYRmDKXhAQCqFBYRDwAIhEwe+tQKVSzJUTTRZz6XI+CIBcToACCRstSwiOXDb1VSjAEAhZmEEWavSNnhd0UeAFmCxbOF5iLRjtp1FrFqYoSVEqcJaUFwFW5KyeAJACoCEkpE1AQkw7IGGHAmjecdt3Mr/EOnU3iJE5io1QjjpWi3d1dRar+tvHcE/qxzwE6VIAKJIp44aCEKQCgLdAWEqWAStgLETqHgEAI4qGYlMlisXrMpUt1q0RBGr40Dg6pCzQxAIAmIrUGAq6o9h7/4eA7xwHQrC5QaADB5lU5mPQfO24acX648f3BDw6nnYY+RhjKZblbX5Rnvvbd577+vQvpEKyDEVTMJtJRI2mvLdfniecqK6tRPt7Yqy+lAg0K28vNwFVS7CFl4BlAKseTfKxIu8qmjdQsGe99WZb1SK4JWZ6vbTNcLsvSWlunvKqq2t7e9t5PJpMoirTWeZ7XWGaMWVle1n7A248xALWOUnqA854thqp5DZU9GfwQfOFAc+M6Ey/A8EdQ7ol4axbN8q1B3BWXlbsnKF4wzXWlphnRc7vj42e277hu3Tp3vjc4dX53qd1I49Czr6zzDMyy0EoPLbWSKGilsVbTwMVaOxwOEdFaW4tbage5zhl47733xphOpxPH8U+A+N9iaaRX2gkLP+erjf5eFJgoDDy7Rhgups00DC7zMCDLCy6dSRNtAtgXsAiAsOTbO/nmprOVeCYCUKbVaoery0YpCkIAIMJ9zMR+CJ6GP4hQlUWvtxuYYGFhKQzCC/4Cc1lVe3u9Xm/XGBNFESKK4FxrVcPxjNwAQAgayfX3/VTR25ryucKefZnlxgQmMEAkgIgESAIIWCcHa8eKLrjqALO0Ek8XJAERj8ICDMAg0lhZbyy1AWDGcKNWRErV2RK+IHETow078OcnIEbSKFpuB0ngvS2K0lXO93MYjBGF2qEura6cZyj8RSmSGRZPb87n4+zcaVtZ0KruBkQS7/LdTZ9n1WDXjvuklApjtlbHiTCDiC0yV+bzG55bt92+82V3LS0tnjxxoqoqY0xVVlEYkVYAIIBlkGTtNTJEmkABGC1RW0wgAEghBCmqQADrZ4TkAEgIgT1RaJsrTGaOUABA2CBsTH/cNJcjgAQYC4jPyuEPTo9+eEZ3mhQEIGMurctLlcblybOmmwYrNy2HcTNoFd6XviTCUOmpO18PAgE3Lty4RK0VKdQKaUq8MFs7yrlyMI35QIdm8foDbNnPRGxKa0EJogA6xi8uUKjEk2osqrSri0qRqsrKhAEhaa211oiotY7juEbbOdUuMw0cETEzEY1Go0cffbT+cG1tzRhz8uTJ9fX1wWCQpmmn1VDFc5MnPl54E3UPqsOvo3JztPFUfMP92g0nzzwGw+NlXuINb+seur3YfMrtPMHDZ/LmbQvRQRM2eHjKnvysb93UuP51lHQQSATyym30J3nljNZLnaaIGK3CwCjCynrrPCDEgXbeF5VrphcBhbVWKVV7vrU4MgyjWmtY+/X1+vGC7MRPgPjKhtOMBnbi8Mb1xUBro5VnjrSJAoP79Q8CAlA6+8OT5/LTp2+686bu+uocOusDAFGnSePAWh1AIyESBa3mJbALcLk3PP1GQLz3eZ4hQLvdiaN4nu2dTwzv/N7eblFkYWCQVI3gc4943kT9Mmm3Xv6ON0s1AvbADsSXeX7u+On26lJneUlpI0RAClDXUR6SBqzHkwKgfRglIgziQXwdJIo4ZAvsQSywI5NG68vFDIWh9ouUBiJEjANDSpVFzgColSEVSBCnzWShHS61MdTWVkVQ5JNJXrEDx3nJmpRXi+g8y2YOdu6jXzbUVRib9oLv99hWaAJlIl8VQatbDnuuyEzaAEBxjnTA3qMyIlbFcT7Y8WWJKBczjGCC4ODBA8tLy9ubW/1+31lXliUgxnEMAEx4vrly7iX3NdavM0mDSIGILUtmV/MopJCUFhH2XoRncQkAglLEJi4h8aMhIZLRzjrEqfy7VmUws2cOjXaxhkiLZ6ksM7D1wJUvSmHGQLu89Ju9crPfcrqdrheeuMxY2JBpBpEiAgCNpFEpo5PlTpAYlxfABExCiEAgjMJBIwlbjWlYU2djQ42GjehpJIgkwgwIzQVIW0KKiHQQGlJhkiCQZ++cs84aY+qxWrsIUw7qMiCeWxAEKysrNXAnSZIkyeHDh5m52+0aY5BIxFcSlum1ODkn2ycaMXE5AQC9cKNxLj+ZFW7S6V4bNA/yof/AqMfDvurcEKYL4kvXe7rcfsIXPlq7y8RtQFCENx9e6iTBWqcRGn14ubO+0EIAJJymgFnqtZ2QiID2kb9a6+7Cwv6kDSKSUnRhrgHM3OSr20+A+GqGgO0oaobR/KGyCIh49lC7NgACwCK7k+LbTzwbPPqt1Vil7aaJIiCqCYd6OpskMsn6rAikvvr+3qrdT0GqE1lTd7getQBc5pNsMuz3h0oFLL4o8jCM6qUYAJxztipFPKLs7W0LF0naiqIGzpLd86EzzQcCKKWSdhucrlFYgGCUod6lqBUvrakgrH8ugqqBWHSMKsIp14GCtQtfCySE0CN7EA/sRBywA7bCFbADFelAo63XLhSAyjnPDLV6X1ESx6BUXhQClMTNVqfbWFxUjWal0HsbOaYSQ2cW0k5uglGSFePcOtfzClkE/awf4FL9A6KKYpM0vXUuH6s41VFaDXs6jHHaMaiTBpIOW+1qPBL2wF4FoXgPwLOrXZhOo9HozHNnbGVHo9FkMjHGGGPKyaQuPWCBvXzy7Na5hZXr2ovXBnFDnJ8M9myei7AAaq3rNJerKue80loZ7Z0nRUpp9t4XJUBZ97tzDmBGBIkorZHQe++DgLsNBFChCZZaQTutXQYySoRUaLz1EgWIqICMCq2wBxaQSqp+5WraK9FByyQmjY++9p7WoVVfVHNNPMyeICYhHV2owCkAESjL4uzZs0WRIxIgKiKttXPOOWeMZhZm3253FhcXDdXSQeVLv9vb7fV6ImKMIaJGo7G6uoqX6c/wSimveW3L7u5ulmVFUcRxPPMqRGNhqq0in5CQTOkp0lEjCmFic7X2ssbSdSpM46TpeCzpwcaBO4O4wZPz2eZTExeF1aDsnYwWrkUipeiWQ8s3rHaiQDlriVAjgwDWEwWBRQQYBYkQWMqigBkLXN82C2NNzBExs7PVTOiEznsECMPQGHN1qLkUiGtWES9G9KtbWZbf/e53n3322TRN3/jGN77Is/43GzM//PDDa2trv/iLv/jiz6q7gmZPgoVza8eTAolYhEVQhBEq55/bzY4/27vuiZPjo0v9tUXTSFUcI+E0WYZkojhMUjVHZwDY78jVEaOgraxzLo7jeuzWRzHzZNIf9PfK0qdpMBlP8jyPojiKI2et1ibPs6ookyRGkTLL+2wBMAjSed5u2txcZlE3SQZQAwpQiDqO1MLazUHcaeq0DYTgSuFCgOpJjSpEHQpLWRRbO72yLNuthhJf5sM4bTRaLVXrs1AARFAAGVABMSDOpgoAYq1ckpo4Rqy8HYyGogMdRK1Gc2ntQLLY9QEVZQbeM4lS0FpskUc3GEfMsTbDMB6Gk2wwlqxCQALxcCUTsdm4HPTKwZ4vMsonNozZWgAUZhB0VUWh4yJ3xRhYXJmLcwgCzBeI7H1W5MVTTz211+vlee6c6w+H1lZVVV3oUNJVNir2NhvXHBMiQQZEQfSOUSnrvViLiOw9ACAzTfUXIIDOeWZHSoNAVRUiwiwIQIq8ZxBhEVJqnkWgyLRuubbcHZZ7Q3EcNjp2lJlWypWVlW5y/QGdRIY8shMARUoTCUDFLvOVFW9IpzpauOHQwnUHL1dNOOZzRf/p8fGXVhib5blwE6aUhgCI966uOpvFW5Tn+d7eXpIkYRjWUQLMFv4wDBHB2qrf7yulZvEi1iksPbPasbDW9vv9MAyJqN1uz3lYZk6SZJqCtpOsAly6a2H1VsqOT8d2NSjPP1ZY7Fxzl4mbwM7tHR9vnTZLP5UuHkYQHpyw/RNBmISY+96TrnyFidoIoFEY2dmKMFConXXee0QKwgAFrLXeOdIqVjELl2VRA67WxgSBMFdVVYsmFaHzzs7IYqX1YDAU5pWVlauATG2XAvFXvvKVhx566M1vfvMDDzzwYrBYRD71qU/91m/9Vr/f73a729vbL3jK/yvmvX/Xu9716le/+scC4v0mIIJSWbc5HFXOO2HHohFYYFTY7ZEbFxVXzvaH+dlz40aIcUKE4pwoQhWkrY5SiuIE9slZLvjDAAjo2W9ubp4/f/7aa69dW1urDxNg57214irJxxNbVs1WxzPv9XaZud/fa3c6RpsgMJPJaDIaWGeVbjsHNSlsrc2yjEgR0Xg8NsY0G41aYQUqBXHgCShGHZI4ZQLSARABO/H5FDqRABWiQdSC3BsU//SN7zx9/MkDq6udNLDjnfXDR++8+6eWui1CBehBcCoprSF4vzpz/k8QATBSGIUuZ+Vd0mh1llei1SUfQpEPoMy0tZF3SRRhZ5HjRqTCnD2VeRCHGOu+FscilSZXseWpVzzzjmtaId/d2jv+r7YqQAQByQRAhIBsSwEpds9X/W2pS9dRQFDYF/1tqaoaP+rs+zSEJiVEvcGwtK4s8nqmsvPs7GKNREqn69d1b3XRwjqZqP61RKS1qQFURGR6sWmtOwKaIBCWetKCE1IaRLQJEeoEGiIBKTBh4C+U/AIAqMA0b7xmfPpsfnaLCytZ6a0lhGC507jpSOel10ZJhOgdWy+5IRWqxAGcGJ5/bPdHuatu7Ry5e+mGRIczkc70oXlhFnDAEx61DCc6qG9Ua73QaTufEGkBAGYgNSe+6kSGiNQscI2nNf62Wi1jTBzHk8mkLMu9vT0RaTabdXlIncLK87wusakBOo7jY8eOWWudc1rrTqezuLhIRFVVKaW00VCAC5bNgZ9dvPG+KIqrZ39UK695+Ey+9UOVHo7TFkjF1aTc+HblXHvxkCL25cBuf4/LEWpm8TI6XQ7O6SBFZbQ2AAQAWiskMkGgmBFRawWAASJrXfcmIARhhAjCQorULI0uAEorQjQmmC8ziJQkCYCQ2k/lXdkuBeJTp0598pOfvO666x544IEXA09VVX3wgx8siuJLX/rSXXfd9WJO+f+o1fBhFCol4H1AaBQhgGeIDWpEAWQEFYbR8lLhrbOOkniatSOsXDkeD1tam2nUf9n1CZExy7KNjY0DB9YBpCYJ2flhv59neb+388ypE1oHq9ccjpOGdd5WVVVV3vvABEVRDHrbm+fPeueO3PCSIExMMEzSxmg43N3t1dqgOg2dJvGUsDWREIC3U1xGD4hS85bCtY4KgQAIkIAIQAGpcVb+6MTJb37zW4gQBgaFDx480eguL7zsVq0IkIQUcH06IdCcvMVaYOJYEMEJEBIAgmbUYRI1261gsV22QFzeyMfX2N4N7Xwt9UhqUm2e6+nnbFuCFjqhomw3Yz5IQy/VTsagKQConHgvQAIgBoEARJC9OFvTKCAonsE7QQIiMgaYhUQFkbcleEZFgoDCaAxqLTUOKkIMVRCQNuy9QxkVpTCA0gCImmauPiCpZP2GpcYBJNJaAYAiFccphDEgsohnvriCAoGQEEVYETGLgCAS+6maYq4DBwCkKcmlBIgUABBRtNBcevktBDj83slqZ6CNCruNzh3XL9x1Y7jQAAUhO+/OVtVZh4bCww46Zyc7G3kvs2VEwXXNtUSHDOK4lhKLZxlVxcQVhKDBLIZHFTUAAESUVCY77YpSNVdIp9Z5HSVBHCulRqMREUZRrBQRKWYej8dEFEVRo9EgpUaj4Xg8bjabzWaz3+9775Mk8d7v7u6KSKPRqIO/eaLSe19V1XA4rHVvRVEsLy83Go3xeOy9P7C+qtFIuBh1DietFeBKKBKVCFfV9hOSb8VK29NfqNo3B0b73vGQc9z82jh7FpPVYm9j0n1189DLlQx557tV/3TUPWK0MabG4ulIJaLSOms9KlCExhgwRgBEuKgYBFk4DgNdT38RZ1lrAqxlpBrETAeFQBgEAjAtCLiq/RgcsYhUVVXvyjH36fI8z7Ls0KFDt99+e7fb3X+w9945N6fqL7+ac24ep1zR6r0/tNbzY5i5Fu7ti9yvfGUA2H+flx/AzFcv/L/cECDW5kC369jXpRaAMsld5YpxmSEACLO1CAQ7A4pN49ABEyUIqIgEgegqWkIEQK11t9u95pprut1u7VaIiPeuv7e3s72xs7k5Go1YqGLpD0abGxtGq7XVtXw8SptNY4LxOBuMRuzs1sY5kXr/FFMU5ZkzZ8IwjKKo1+sdOHBgnrNnC/EAACAASURBVLIDJCQNoEAYwNdepHh2lQUh4RCEEZi0KDWFVAAipQNjojAMQhNqRC4XOo0oihAJYCZLmsL5pdH9nKWYmgdvHWnSpHQjxVYEaJtZeSON7zpSHVrTSaIFYDL0ixt2YSf/dn885mblnbG60WxmK64aViyMGoSRBeumAS88Zx3F4Jhdhaou3KhQ1SpfN2XP61JaZmEPSoEyUJMAOGWLoCpJax0lrsy4Kj0zGkOk2TthTyaYSg8RSWk0QV2UQgBJYNI4NAgOoHRSefZ11eHFvX7p4GRf538de28dzPR5Upek48znR0BF6ZGVcKG5eM9NbjxBUrqTmnYECef+HLus8uPcDia2UNhjyRyujqqtzGUTZycud+wBgEUmtqzYCYiAWPa1rDDUkSGFoAAABMSVbrSRD/pcjVT72twZcOMUMEkSESmKwtqKSIdhGIah1tp6HhdWkBwoBB8ZSZMQUDvniGo/EWrtcFmWZVlmWRaGYRAEAGCMWVxc7HQ6tSCs3++naRpFUZqmYRhGUSy0BsuvCFuriCSkoXUdLROFrcqs8OIrnPhq4nVoQadF804ORhOrIPdBqH337oWVm1or14sv8rBZ1sU6cnGyBkBYdodZbzQJjY6MmS7HAJXze+NcKyqqarndjALNzNbx3jgPjErCYLXbTKPgQgi4P+B9IXsBID5+/PhnPvOZN7zhDQsLC5/85CeffvrpIAjuueeed7zjHWEY/uAHP/jYxz525swZ7/373//+hYWF97znPQDQ6/U+9alPff/7359MJouLi6985Svf9KY3zelqETl9+vSnP/3pEydOLCwsvP71r7/zzjs//OEPr66uvvWtb2Xmz33uc9vb2w888MCHP/zh06dPv+td77rtttu899/4xjceeeSRc+fOEdGRI0fe/va333jjjTUc9/v9v/iLv7jlllvuu+++hx9++KmnnhKRn/7pn77//vvb7fb859TimE9+8pOPPfaYtfalL33pL//yL78YBqd+nIhgjO7qCxuUlOK/feLMTn8EyljH5Dn/1x/siZTnNsyt1y0euyFtd9QcF3CmFH6eqyNiFEULCwtK6bkG3lrH3hXZJIji5fVrdra3N8+dGez1qnyI5Me+p8fn6cARXFjRWncWVsJAE2GRTdh7Zh+GQaORJkmapqmItNttUhc6vc4pyFzTK+IqV+RD5xlYlNJKYZDoODTTfXaQ2u32HXfc3ul0DhxYTTAfnn3q0LHbbrj+6HS5RdyPNPuheJ78qpErQGhoGBOoyJhA62ZDa9HD8sBk8LLW4CXr3DmoMCBrRWtBB+ihn48GmZqQQetUaUwUYKRk7CBzwIIMIowAVHlgQUTSRkeJVBaEUSkk5X0FzDVai4Avc1dMgGVG5UMdoqLWJm0qHYh4m42FGbXxVemLvHa0MYzFe3ZWKXWBc8epT4UIsaK12LQDrREZpHCSO585Hlpvr1jKVrPCtpB8ADYTVIzGY4A6qEeNALD3HkT2iXC1MWpBh92GeAYEQZ/bjUn5bOaKynsWn3nZmDy7FAwNHvZQkAxyu1Myxnopns1HRPDCvs44ASjEmes+G6uEKmqFB16WNvthFIlpScUCGIQhKY1ELMDWKwVTpZpSe73J2Z0RahVCpbNzRm9LDEHrcKfTqUlhRAiCQNgje4xjUFTL2mpCY2lpCWb88traWk0lM3OtJhazsnDjz5E2gIhoooXrTeswKSOtteTgK+osCClDSsdLN07rcUiRNsKiTKh0IBImB+6KmbWJrlj3Vlo3mJRlNUaivHRxqBVi5bgRmTDQk8IWtl+n0a3zleMoUGXsus0khSte74XtBYD4xIkTf/iHf9jv97/+9a8HQRDH8YkTJx5++OEf/vCHv//7v7+1tfW1r31tNBox89e+9rVut/ue97zn+9///q/92q8988wzt95669LS0je+8Y0PfvCD999//x//8R/Xz/epp5564xvfOBqNbr/9dmPM5z73uTe96U0f+chH7r333vvvv98595nPfOaxxx57/PHHP//5zx88ePCtb31rVVV/9md/9t73vvfo0aNHjx7NsuxLX/rSX/7lX37oQx967WtfCwDD4fB973vfHXfc8aEPfWhzc7PRaGxvbz/88MOf+9znPvzhD6fpVPtXFMW73/3ukydPtlqtjY2Nj33sY4888sgnPvGJRqPxop9YLWtBEPYsw8J98/j2t394Po3CbHdyu/Xl40/uPvkjCHRky+H6Abz1lmh5WacJaXUVFK4RWkSCIOh0Os658XiCiEoRs0+brSPX3TCeTHq7u+Ir43bjcg/UFlYjtT1Wm2TzY666JVm7sb22bJJmI0l1EIRhzCzGmMOHj9TlPbVPcYXW6/0pWWxVCZFHQCIGAhMESarDAFQgIgAeAbud1n+4714RCbTqnXnyZLmx1G3HUYgIcGGjFpkloi76jftfhsgNQ2UamDQ2OjZxSJpwNFrKN9dbOykA+RBBR9pHceW0May7RC2stiQos0lCSBFjYlQUxQGQQF6WwoyIYRDU8TsQMbOAoAkAsN7xgJ1DqClgqev6ruiw1GXQUOc2hX2RifeodN1X7KwI14wBBSHMYj4EUAiJoqVIL4QmnDGwkYKmUYVnVdiJZSti+eKHIyLV2O+chtEmcaWDQCj2yWrUOEgmnJY+i2iEIIwuGjbTxR0FxHNR2HOFtc/uTc4MzxXkHDLzuagxSGlIYA4DpO0mhGuHG62OCRBAI6U6jlTAIAggIla8ZxYBRahgtoOUClTU1R5VEAZJO0V0Xga5O7OVFSUbCkINiQp0GBHRcFKe2hyPJr7TCDS5MvfiisZC38SLKmgREog4V1X5pNrc9Lu7ut0OrzlMdEFcvD+GviSeRgQgbSINcyZBh6RDAAATXgJnOkgu79la76BNdPlXswOw24y1Qk3EIp6FEIlQBKJAOc/LnVTXgiURlmkexCidXNr+j2EvcGaNDg8//PAf/MEf/NIv/VKz2fzWt771zne+8zOf+cxv/uZv3nvvvR/96Eff8pa3lGX50Y9+dGFhwVr7vve979FHH33ooYfe9ra3pWm6ubn5e7/3ex/5yEde9apXPfjgg2VZvv/97z979uyf/MmfPPjgg0qpb37zm+9617s2NzenxYOIRHT27NnHHnvsr//6rw8ePLi8vHzq1KmHHnrohhtueOihh26//faqqr785S8/8MADf/qnf3rffffN96D7l3/5l1/91V/98z//88XFxY2NjQcffPALX/jCI4888pa3vKU+4Mknn7znnnv+6I/+aHV19fz587/yK7/ypS996cSJE3fccceLeFbT3WVYpPJ+mFcbe+Pvnd17+tzg9G5hi3x14gQUhhHFGrWyJ85sfvSzg5u/37z1puaxG5ODK6bVUkFUS2mf72nXo3DO2wSBCYIQkSZEo9GE0MWmDBo58CCSkWGre6XJnGlkovvl4GSgEYIgy3AxbaSNRhAE3rNz/sWIYcT7rNePuu2400ZSLEhkAJE9F1mGoFAZpQNUupHEhOhdWVe6ogiyAE23DZP5zmEy/Tevz53+EUDEXMBbdKhMHGKjSZEWYWsd5QM/7I/3EhcFCYFGKHPwo1yGXiaGykhUIig2L5zzGMTQ1GFlFUBV76YEgLNyUpU0w6V17Xnm7nO9I9fFKwIICE4dmUska/W6MuOBp2JFBBCcpgUREZO1NR1PF3KNsBjphcC0A23ooqetCGJSKwhlwLnz/cpnblpLAwLiKhltS+85dJmJwziA4XDLbp1q61ulc70P2rPxceXBIwjC4DnzLoMhyNOT4e657bXSpdAJcs+jrOqrkuJzyQ3u5vCGNNSk0AsIAhoiDejFF27C7COdKFXXCtWVfyA1b1sWo95GGCcLUUMF8bisfvDc4MT5iVG01AzbqWo6FnSk9EYvO7NTtGNj0BvynKxP3MI4GyGccuFhpZQitGVW5ZkM+tXupuwej2mcrN4QpV0TBIQA4p53FrJcCLOm4cePYRdVIgMC6Vr6xLUfPdPxteOoUfsWs66fLnlQh09yYYMgvDDAFVG9hd78vuqv6KrzrrYXBmJEvPnmm3/913+9/uTlL3/5S1/60i9+8YuTyURrnaZpHS+kadpoNB5//PGvfOUrr3nNa97+9rfXTNDq6urv/u7vfuhDH/rIRz7y4IMPPvfcc9/4xjfuvvvut73tbfUB99133zvf+c73vve980aJqCiKBx988N57760/WVtb+8AHPpCm6W233VbnAV71qlfdcsstJ0+e3N7eXl9fr291fX39N37jN1ZXVwHgmmuuefe73/3Vr3717/7u7+aiujRNf+d3fmd5eRkADh48+PrXv/7v//7vn3766RcC4noKimfIK7s1zE9sDh790fbTZ/rP7eUV++VmUhkflAaMjl999+or7wiaqc/yanunOrvZ++o3Bt95PLnuaHr7LYu33Ro00st9sPlOgDNNpTCD1qoWqypFeTYp8lE1PN+Ki5XllcBaVSge74GuzNippQC6KgPbHz+zs7f33FCuP/bSe17+Cq11XV06f7AX8eb7FM313yCOhP1gc8d7tqVDrbUJdRy7yooTkyTtlZU4bdLUQ2AERhEAL+BBEKRW4DII1xrjOWs8bU4uvPaApRfKSr8KtNBysQJbjhjOZPgMGu4knTBkqwVgMoqyYZZNBlvb2S7GVdqQ2IzKKstKiFoe/aDKwHpXlfVSWdrSswfEsLvcfMmdXK8LSCIeUIF4JCXMSISkEYFtSUqT1lOHrBZIE3JVgoAQMTOKByQQBlTAHkkxOyQNws2lhaC9CPUENupQEjeMQrpo5tXqAhYJEEKjUqM0ug2u8pqZ947H29x7Du0ECaMoTJrJqL+te99PdopJ3BXTgtoBe76EioiXPMueKc9Phv+4PTl+0h+ZQBPJCXQZnGDpwXvczfVjG+ZHbX4N5sG5NL4ekLzPKi56ee9E/4nKF4dbx460b4p0uh87iAiQyKQmatbU1nY///4zg81Btd6JFxpIqJ2H3thaz89uZcOxb0cauGAuNQUlBnujvjGMPHDswrTpvK8EG4evh044fu6f3Pl/8NyTtbt1Zw3AQbV90ciZDxqp60gt+wopUMa8KP4VZk6UiHjPrnJZxs5S2jXdw6jjoqr2xhnOc6KA9e5RiOCZoWb2BRSi1iQCflpiL4gUaO3ZM0sdlKh6P0xEoxSLOO+Npk6aBuYFkPZF+dJ33nnn/i5ptVpVVV2iyq7tmWee6ff7Necw//DQoUOLi4snT57Msqzf729ubt52222dTqf+Vil1zz33tFqt/dfpdDrHjh2bv2232/fee+/Zs2cfffTRzc3NLMvG4/F4PNZa79/Ye319/ciRI/vfLi4unjlzJsuyGvQPHjxY0yO11Y2WZXn1nz/PKW8O88dObP7rM9vP7U6KitNIvfalS9etdpZa8Y/Ojf/5nzJ1guLrjiz87M/Eq122zmY5jzM/GNmdXrU7sL2+y8ugkT5fQ4hQwy4AyGy7kBqaBWQw6GnN3U6z06i0rOYDvzukik2i7SKFEVVAYelKle0FPhHvpl6hUlEUzTTEopSaQcTMe5XpZlxEFLeaQuiGEyKFYJG9UgjeibNEWmyZ9XbF2ihNw0bzQuEge2AnhCgOhEFYhLHGYpnRrwACQECxRkNAwIgUGZmgaMDAg2cEknFIz4QL11Q+3CXvbRxWjnFSKZvT0KXbnrZBlwqjIPDWSzNBNOgzYSvsgWQa3c5qZiiMg9ZiXRQBRMIeiWS6544gEmmNpLgqiYiUrjdxQ0QQQaXYVYAKkNhVwAyENXwLCxKJ96gUMJtmm7SBeitURcEUhPeJbwEEoCzL8XgMAFEUkVK+tK6oKueRHZVD2T0NWQ8AtNaNZqPRbPSS9ih5yaB9R+kizHPvnXe20WgIXCGmFnGV3cx3d8df3939/BOl6ycTCk+h7RK/Eokx+ldFFiDwfrIlX0AEzv9jbNbaiCrLT+XleLOaDIpt590WPbecXBPpi0YpsxfngiA1YQOQWMQx55Wzzk/1iIgCaL30x7YonbBYa21Zgh+TzywuTsJOBbGa7BJnRD1DMWgdNVZd7pFKLnaL3pOmcbDZWQHw4EcXqcOnQ9VzlUmVcznJe2d0czFevp7M82zxPN3S2QsLsPe2lLJwWV4M+2Vva3DyR+PdveZtdx9+zTuCbpSXtj/KBMA651mMVgDgPDMLUV2Ugc6zUsQicaARyXlfWYdEoaZZWQdY5zSRUmSdDwPDzM5xM43SMDT6f8WmPzWKze0qOofRaFSWZZ303398t9vt9Xr1t3meX0JWLi4uRtFFw6vWvszf5nn+V3/1Vx/4wAdOnz69tLTUbreJ6Ny5c4cPH77kPvefFUVRLWCsa8AB4JKtN36s/9HEeTm5OXh2e7jUTo4dbK93kkYSa5LlRpKE2ijz/SQgrHdoIBBwlReH0coSHVhBuZ4rAaFaRHHF6yOA81zTxPO9muq/3vutnZ3twh1YPSyJE9PLMr9RxFtwyLZtIJXVdqXKSQosTJuDsLWwvLzCLEqBMab+v2eKoiiKgkhBYABABNh7EA/CKH4attcxVL03XF04x+xdJcxhO60xqKoKHQaB+GmcjgLikR0ygngQB+IQPIAH8cgMxLP8nQTEy8041Rz6kkGWY3naYu7Ai3DpTcNgRIOltRN75Lc2lrcHTeUYlBUNKuxDut1e6EvIgU80qESrbuS3LeXjpCytE5Zp4aP2TCIAGDU7nXXF030gsaZLvNTR7TTkFO+9syBCWhut57WIgDhfQqb+1GWMRm1hasgYAGCAOiOn6k1C9nVuHRHXDJFj9t4PiyovSpePMdvR2Q4WA2EnIqhUnMYM5MJOePRat3CEnQfvnLXe2XonvMvGjnipCrtTnsgGXzldntoJ2S2fB0EoDprJocA0Kf4HDM4oTgVzgJ0e/ONZd3M8bkciwhsDv1lwF3QcMPI0krnY2PmiKCrrIM9JmzCKOo3g0GLMDIbQM1tX1yKKd04rjAIEX3nnXMVYTgoMFAdsfdpsgdcCJVQ7cbxkjDEmCqNW5fPAJOEVlJ0iLMKObc7l2O4953rny9298fb5aGmZbtXh8mFlQpjTSrUMQoCZuSzcqO+yoS2yYne3fO7M+MzmoBjlWPU3N9xufsi0Dvx0GdQ1zITCUlTOseSVVYgsUDkfGlUzM86L0URIuXUE4Ly3Toi4sjKrQZfKeaNIKbSOJ2UVaV2zpv4Cw/W89r+4xLmWml3uL1dVhYhBENReXv2/Qc1xsBbD7j/+Ejbzs5/97G//9m/fd999n/rUp6699tpa/HD//fePRqP9Z00rx2ZWV0k+n4jtxVs96zThTevdY2sd0Dguiu1htjfJrLWjSdFJwtzZeqozu2xvL+/1qtGYKxeksW4myepK3GgrFVwlX+e939ra6vf7Bw4c6HY7+xV7eZ6f396RqFO2jpzDcjTwqooh7RxYagOgd7YcbZ/bOxXs7RQZKoGQC85yZ61SVG8tmOf56dOnz5w5s7KycuONL2k0Unauv7XJVQEAROBtpY1i77QKldHMPjBx/f9BIErSanbXl4Kg1qgpJCIUXxMR7IUtsAUmEQ/i6r0mhB0w474AU0Aqhp1JPkBUIgjYr2hIgpVYg4Dekkm7XQndM2Q2Tw5bO9sL6EJFgkURYr+9cra76qFUtqzYw//T3pvFWnZe5aJjjL+Z/er22mt3VeVy2eWq2HES4iRA4N5cdBMhdODhkEggRFB4QIlEBBJEES95iRAQgXhAICSEeIqCUF5AiPMWdATH9xDnJsE4sRMnbqqvXbtb3ez+btyHufauXY2dhOTAvboZtuxaq+aa659zrn/84x/jG983zAQIt5j6qqza0DE5hsAAbGzwgQGgiOhCnxIZQgBJQAhLh3daeWSwo31kZleVyxtX2dtkYycernXlOGD21vhqGZzrDhNJggDs/SpL2+1AvQeAIFMOOQAwwMKGq8tmoGUkVhWP4P0qOw+EWR+Aa4DWuQas8KWaX+HyAGzNK8RnkEJIJS0o7O2kcoxCSwwAIHVEiFqrBxdyZvChcaZuvj1vXr1D3kbIvgYkUAcm/iJkEajrIHZZBEQd2Nrw2iG/XC4fu6n8UL8s6dkr8pxq32NshmlU6AcKWSiEzjJoW6m1UhIBBql652PDTNO8Cs6GsjJCIjBb60NgAQHZGGt9PZdmrnkWU6TCOMq3UawLIZrlQaC4qUvUaTx5p6gPdb4R9baRBIS7anXBGVse2ekNP98N1cLsXptdvXlwbR8RRuf2XN2OfuR/TzYvkMo60L1v6jBb+Pk8LOb17s29q99qhOP1UTVdLL769fr1PTuKYdLTg/HwkfHoybeKOCGEXhbHWlatkZICQ/BhRYYIQITA0NH9dYwDANg5FhKiOwq7+m1g670Qq7wiMCSRGvWyONKRlN/RAf2AHfH6+nqapjdu3OhqTd2bTdPs7u6eO3euKIo0TYuiODo6quu6KIrudl+5cqUsyzc57Re+8AVr7W//9m+fJHPrut7d3b0vVF8ul7PZbDQadS8Xi8VyuRyPxw+HCnwPhgAoKIyLmAFnVVU3TeAg0AsFHuzcQOsdIjMiI7ZVTUIEISCRhtm1LZVVlBRSvhmuu9u9Hh0dra+vn15RQgiLxWxRN1FvElQxbfXhLB2hLLKYUSKiC64OsfFDNVvklU2wqsq23L1dnT0nheiEZ6qqKssSAG/f3t3c2MjSJDi/PDi0TcUhoAD2Ni5yLaVK9FqR8wqJhQwCgEgKrRQeKzBAV4xjz8zBB29aDoZZdkqg2PHDcgDoUsZ3l0YPPG+8OMYqTD2Q8mnTgmd2vq4gS5NcsQG60Vu/Mmt6zhZaG+C5TIMslKbEY700RmvUMew3tKgwsAur/HPXm9xVwBAhlbiZ0losnActUBIfNFwHnFk8Xh+YlAJgW5XdssPH4O32aL++fQOl9NaSlNnmDkoJzhKyFoQgukgNARQrPH5YjmFqXOm87HDLyPVyadsWEXUUIYrAnoMPpnLz/TC7FZYHXWGKAJCRJPUGfSGlgZhVbloTmF3XYitIKhWp3kPBx8AOfPCLNrRW6qDi0CyFUJCiDy/YXKLKLZQSDOHE+Kk0reE9IfaGOvQ0kW/14LmDRy5uiq3JmcGTicjuCxcQUQrZhKpj4WjbtqrrcSbxbO/FK/N55WrjmcEH7z3HigVY8O2ibaGc9uEwjqI8jgiYOWidhuBlPHQOq9ktRTXlOxhtsUqY4uPLYeYQbFvvXVle/bf21qv28E47PYLWNS1GRVKsxTrX3ByUr36Z7TLZeVLoPFhbvvD18v/+N3frVohCO0yu1HemyvdMJKPETDZCnuda9Jec1ZHcHqpIIwIgaimVEJGSWRzBXe4IRIBjItvjzhqE4+IeiGONka7M22kTdKPvLgKRYi2PV+Tvr1j3vdrTTz999uzZL3zhCwcHB9vb2wDAzP/wD/9QVdX73/9+KeVkMjl//vwLL7xw9erVp556CgDKsvzsZz/bSYG9kdV1TUSd4wYA59znPve5a9euXbx48XQo/corrzz//PM/9VM/1b38yle+cnR09PTTT8dxfF/E/T0bdj1mAABJpAdZrJUHTrrClBTogog1Qqziybi3seGROHjsCqxKpr2BlNFq7XwDE0SDwaBrEjXGInZJXrbW7O/vNa2JSNaOa1Ba5eAXRwcHBy9/SyXpYrHo97KBiPo1924fmEVZAtg8l2fPkqAMIYSglD537tz29s58Pj9elhgIVazL6VQoElJ0jZgkRJTGx5IfCChW/coA0MkpMSIGAEB2HLxztm2WwRsQjOxP0bA5WKUvjnPE3GnSsO9QCgDMoJjBGFiUIKWv26mNqZ/3hiqcnRwqmNrQZJkJpm7rLBIZ+3rRuMpFiYSZ87sH5IxSKiCFAMzBOW+cPQ2kR5SBSUtkRsPABIIcYgCGTl2bskScO7+4c9ubxkz32blgWt/W1f4ds5jlO+dJKZ3mIk5FnBBAInigUVBH9oQE0I+UknfnkQ/BOy+ABKEUwgEGpMAMnpF8sC3X03B4lRd74MxJ+tO4IIjW14e9YQ9JeFYiziIBzKCFCN4xwOlvuf/XCYSEFBEQegfQUggABhBQ1SAZoVDQIHu0c1UbLDWomtduyShCmfdtr4heem3jlQ35VL+nUkEP+SJrm7aulNLeubqaz6fT/mC8Pcqrxn/tyuz2oVnWtjJeIIxzOU6ttbO2bhCionfG6higArPsegh98FFS6MDBRMiSZUbsAIX3K5Ij8Na38/bw6uLlLx9+++X68AjbuVvMNbBQmeoXzaJkYKn8cu9f29s37HKe7DypkoFdHrYHV/3RIbzzSfHYGf21Jdx4/bByB5FstDl/ZmcyOD+qNSzLsp7P//Ubkyf/z3jAnUyBIrrnDp/GwL+JHcfOx6Ca+/72u92M/+Aj4o997GOf+MQnfuu3fuvjH//4cDh84YUXPv3pT1+6dOlXfuVXAGAymfz8z//87/zO73zyk5/8zd/8TSHE3/zN3xhjTnflPWg//uM//vnPf/5P/uRPfuM3fkNK+fnPf/5LX/rSz/zMz3zxi1989tlnT+eF//AP/7AbxquvvvpHf/RHW1tbH/zgB0+oQr9/QwAlxFpeDDqGgc65IDeu6iWRlBQOFzyv480NEWsigQBIIFSHbH2zh8IdI1qaWmutNYiktSIia2y5WNbG3Zk3C1dWgXbasKmhR2LpvTHtaG10bmdbLhZqOudrN01V2SwpF4vFfDYar0fOOdcRVGshwmg00jpCRKHl2vakmk9NVSIBCcGh084JcMILBAzsu3neRWxwwiAO4J01TWXb1tStt4YFAHQu2EPwyO7+y+18TpdrRThZlRQDzRaMQgYsF820siJP9WC8nuXeGe8cHu5DzarxoW7dwkhQImhzuPRNqRPoeUcaK49VuVKaONlNiGBit6vZRBJdAFYjDrn1XSIxELCCQAA6ijC4ta+IRwAAIABJREFU8tvflJKIA1jDznJrnfWuXKbb53RvIKIYhSRgLQJRh2CDbmsajiPxzoKzbVWyc0qqJE4BQEglgAECeYflXpjeoPIQwIFYcUZ7DlrJ3qBY3x7rSDJi64Uxnpm899a0RCSUJKXwYVUNRBCkUUm1nole2k7L4FnI4D2ampRgDMhHBDo4AeVMTBX5YTxJROJJqpytxyyBBMX+nBcLt14qGNz3FUQoiNIkSpNUSiEwxJLjWEVanlvPiDDTi5dv2t15W7fBGRV7k6uDHEuVbwqJQpCKYoxix+BbAySDZQwOdS+OEyQdeQ+ASikEDMHZ8qi59aK59c07X3vRNXVvVATsT69cFdIHygKo5XQeMEJb+6M5Xts9un5z8PTe5Jn3pU9eEr3YXL8hxmMvpVJxvrljNM1n+4ubt12F8YWNpN+bK787veHZP3JKzfYhWLhTr/i48rwKbx90sAhvPsHf3H7AjhgRP/zhDxtjPvOZz/zd3/1dmqbL5fKZZ575zGc+00EvhBAf/ehHr1y58rnPfe6nf/qnR6PRhz70oU9+8pMf+chH3uS0H/zgB5977rnPfvazf/u3f8vM73vf+/7gD/7gypUrzz777Mc+9rFPf/rTH/rQhwDgbW9728/93M/90i/9Uterfv78+d/93d+9ePHiD/YaBZKQdLz6oQ+htvZw2bbBo/Pzf/xnuH2z976fHD/z9mhthMeShN+x2fzEukcuJSqllZKEGEdRw/jl24v9OEHAanlwIZ6PtscX33K5BSz6g0Tr+e07ZndfLCvhnRBCRJGUMoqjOI7rurG2E8QDKSUJAgACklLqWBfjASKiQHB88Pp1GcfRPfLG3WUGAAIOXZDZYROcbW1bR8UoG24iCWDL0CUlPMCDy94KXNz9K0jgimmB66ZRNkTLWktpArbt/MBR3O8rFYHiZrrrbi7IOsqVy1ToD3UgMMYtFggItSVrSVMIYKyx7nRIwiKUqXmlwH0BwCK28u1Ll1aeQwjemMXiaN7WBBAA3cEdahbxeF0nGSKEuuSDQwPWLKZRu27mHJxRWZ+Dm7dlTSt1VCIJCD6N/foqRYYAJISOIpZSksRjCgXmEOqZ2b/G05voWwjHbS/dUqRlb9CfbI2LXk5EBkTNkWMInWYrQoAgAO/CVO43RFRCRHInjnaG7Y1DBJf0uC3RWdaDIB3AoQrrrgI83Ff1OFl/687aI5NoNAEn6uef93f2QCAeGT+tODwERBR8AB+UjoEIAKM4F6S0jr1z3tZnR3pjMD6/lX396vSFbx+1lamqRg99GpPQKJo7qU4hfqSV/WrhjXfWWOaFwJAmejNLIn3S47cKLZ3181tX5l//yu7XXot7veFa4VsbJ4nKYz3ZQRRt2cyuHhYDlawP60Vp9g/Mta8vizi/+O700ttwsGYOdzGErbOPrd+4vXjpG6Mbu6G00dVd//oXqyced5t9gRyNhjJS3828ZA7BB18vfLPQ/Qmp6PsqOj3M7nfEH/7wh3/hF37hpEXi/e9//+7urrx3T/Tnf/7nf/qnf9rhHAaDwT/90z8x8wnsIcuyj3/847/6q79648aN+Xy+tbU1mUxOszpkWfbHf/zHv//7v79cLvM8j6LoX/7lX6y1XS9yFEV/8Rd/0RFBnHzj5ubmX/7lX37605/e29vb2NjoePufeeaZD3zgA3Vdj0aj27dvd5/96Ec/+ou/+IvXrl1j5scff/yEjk9KOZvN7oNJfOQjH+l6tf8dN44Bmbky5tu3jr70yu3nvr3va/+uD/zE9kaG1oT53M0WMBzgA3Jhb3i+Dvt9TJvd8QISkVSq6PUGSdxM66PFLkwPn9+/mu9k2ZmNC5ONkVLBuelr12/9j+frr1/vcaNTaYqeHA51FHXSAEQn2GTuZHQBIATfVhV7F2cph8DALDjp5zKOkO4d8AqCxqvaNHfwdtQ62rrwlvWzF6Io0tKAmUFwKxwxvEFwwAAdRWYAYA6EKLAmRcYJKhXqwlMF0C7IAHGUgBSCpSx6OlKUZ01rmU3EwRwdtbN5iJMmRDetxZYds4OO++2un0IIFEriQwYWYnLE6X4L1gdbLpZ7t33doJQYvD3ag9leUvRG5y+p0XpV1fPXX/ZwKJLc17WZHamiZ5dzm8x1r+8AGreCW4BAQZTeS+ZDJESSCkSBQnQ8Xba2h3vNrVfcfC8SKJTo4CYkSCmpY93rF/1RT8cREXkQJWeGiihdTboky48bSYBNxTZAchcbyszMrbFXjH1ZTBbZU4PypTjMl01FwSF7sEtyngLDcikOFdXr+eaPXdx+5+X0kQuMyty6xYsyXLvBRwvu923tZrYmZSOhTiOhnbOLZekDKxOSJEaE4DhiCMzWGO9cksRPbOfruR/Jg5dfr31d6jTRUc96cJh6m9VLLaxA6ZC8d8FZWDZcm/bxhi4/Mor1cUWdmYSMi1Gy8/TB1VtmzZvAN2/Mw/5uf5JHxZov57MbB8u9Khv1p7f2fCARS9uGcm9RP/fPxcGt4eUfizcuyN7ILqZDlPbGoTYU0nRvktxJhEvlhQtr584/uSljTnpxXrxhGLtqTPK+rX05a/evm93XfXCjd/0Mqe+z5vQQu98Ry2PIRWfdZvm+Y057ro4e4b4Dunzu5cuXH/w+59zf//3f/+M//uOv//qvX7p0CRG991/+8peXy+Xly5dPlATv+1SHuOj6m0+/2e/3T1NJwDFU7sFEByI+eCH3Xez3agH4YFm/ujttvX/PxfFWvvPkONsc9zrACyUJ3iUi+A7GAIAQRREf678SUSdvLIiKvLfRS8/sT1999eWD2zebsqqbwunox2u3oaXcnx489/XdZ/+1vjGPIs6FyieTbDBI0rRb/zp3zCtS7ZX8UgD2wXvnjrOUQSqZ9os4eQNgJjAywwmvPYMQkBU5QAohgG2YHcIbN0TBMR5bSCDBYtWCDETBufJwn/pxIXLtICOSxvs7i6DiUAwUgM4KEaydLtys1M5mWepD8E3rWhuEYBBAq8wOswXXyUfedY0VxwGoT3HDUeshBN8eHYS2TTa2ZZy4uqRg2dUSoa9FkihzuI/lQgkS/ZFH0v1hurHtmro5uINSZhvbIQS7nDfLIxIi7o9EkncZA2b27ImBEBmBKTAz1zN7cN3sXQ31MsviwbCQSiIwIAoh41jHaaQjLYQERA9UhnTGhWU6RgeeavljBu9OuCZObqv1h2Xzb635BqcUP7ke7fSreWWrQAKEhNBSG8jEvOeF6Rfjt1/Y/JEnk/UNXzk3PfJlBUIwALiwFOKbjbn5+rfOD/BH1h9Zi7MTX4wkUGmwVghBJDptjq5J+yRgKsv9q1e/Ot+/utUbNeTTKCIIBLKhdF7HwXmV2CwVSaRJKgIB1h2V1ddePexl+vxWX5zsHImE1oNzl+P+ZPT2m9PdfXNwyw9emy/2Dq8vyJOdVlEkZATpxpgSkNLpeFK1ti8BpteWLzbAkJ65rIu+7w9NMQhb43yxy6LNOICLRjpRr19FC/LcBXLHbZZ8N8XbFTLY2dAsfTlt92+a/evm4KYrj0RvDMEf99LxqQ/dYyeP7LvHa/1HK3R0ZIx/9md/9uKLL/7ar/3aeDx+8cUXf+/3fu/ixYs/+7M/+z0Be/9zrbvTgyT+yctnokgoorZpoCpJCJ0kSPS9J4xQStlxADpnlVJKyS7AKnq9jUH/crL35cXtK9PDhsU37sxvLb753EtXnpnPn7i+yzf37Lx0gSuSbX89PnNW93r9/kBKRUQdAd5yuazrutfrCym6Rur+oLAttnUFBOyRCMK9XbkPsWMqiZPyBACE4LxpwTuB98ve3PfhrrepY49HQggMIQRrPPDct6E1hY5lniRSibZFY7RAYKwWs3qxrMtSCemA59a0xiAieQ/OAeAKBB06Qpx7MIwMOA+5x6hHsWP0gX3T+KaOBuOoP3BV6asyH29EMbV3btv51Hu/uLOr0lzGEW5e8CTMYo5I0WAtmNaVS2+dN/Xs+ivBWqGUrxa+lyL2AZh9aOZzb62Sigg1ceSW7s5rbnFEaT/ZupCn8aiAWASBgSAAAh1TBXkmy3LhoyOb1h6MWQCC0pGO4lO1R4QoJx3fd08DtwwoaMCxTy4N+j/6aHtz7g+XUgedBD+XU8nzCZaDtTPveNv5px9XrW1fej1UVWgaLive2+P5nEnd3Cj+2dDLV65v79Ua9Ht3HtWn+KEkCcu2a9SM4yiK4+42d/qegOHVqy//9//5D+jlhZ3zMYnpkfKOpmZwZAYNi0Ahy/3GGoxJpkKiAKU41uJw0V7fK89MCnFq7iOSimK1vpmtbZx5ioN3zexodvvm/muvHt7c5WRP+qkxc5nI+aJyTVMuDwRyGk/qUE2v7wXSMtbxxuNqbUP1R2prOy+nZv+meflr7rXbeHC1LVvDmL5Pw7EGM3Bg33Efed+W7WzfHN3m2a5f7Ln5YWhqZyxTV3WFwME2DYeWuWXXAgdmIAQfAJGEjAAVqVjISMjvrFa3ur3fzUE/WPvQhz5069atv/7rv/7Upz7V8Sq85z3v+dSnPvXoo4/+u89JRGtra/e15/2vNgLMYyUlAnBr3csvX6tfeOHiu946euSc0BJJkJSd7tF3PhcDM7dtu7u727btdDoNwV+6dGk8HiOiVLrf7z+21v+Jx3cq47+9P7feH5SNmZaDmzfHN++kzgEAxjo9vz1491vVZJT0e1nRA1hRWHX0r7u7d3Z2djY3N0AIZI9hrqAUygAwEzMLE1rm/grqwMe5iDcdt3d2erB/9dsvFZnY2e6Qgg+n+mEA9oFDCBS6FAyfVD2IfNUuG2t1q5tGLyMJKABSHZnWLPb367pxznslGWBZVT6E4AMfs6Zx8OxD4LDaTd7TksAxNoEtBBFhUAi+qYFIJgk7V926bpezaPuMFMK69vqr365ZyPFW1FvDttR5LqUOTQm2pTSTae7K0jWVWU7ZueGjlwGhunWlmR4AbAIAEKookkJIQcJUeHi7nd4MtpG9sd58QhZrTtABuQishiZyUwEWgLxIHUWGVcu6tFS3jtk5awLzaZ681c0kAjxN5d4tOYrZ+TAFkHLAxU9s1a9NZ8+94k1lGvSKK4l1Mdp+73vOPXU5DqH+n8/ydA6RDlUZjqZYVpAIfMtm+c51m4FuoXV21tY+8IoFk8F737Rt2zbd0g4AQtCJbrGUomlmr73+tYODWxHk1wwlcQYC8v6wxr6T+axUjeeFt0CtQOk9o8CqMo2xkkCJh8A6uwZiImYAEiJf38zWJpPHL7d14+rKL+40d661i0Vct6Y1xXKBrmZhF3W5d3h08Pwr205vv1MUZy4JFcWD9ZD3ScZu7w5khyIrRG/NBRce2YBIhRDs8sjM9kMzZ9OwqdzyyMwO6vmRa5YavQAGJlSKdCKLESDV1fzGK/9GPNUapPdSaQYUBG1tvLMhhLpqIRmPdi6vTc7J70I5FP5THHEcx5/4xCd++Zd/+cqVK9bawWBwOpn777PxePxXf/VX/8GOGACM9Tem80VTLSr33JdfH/xfXx2nGtAH5ijP+1vbOvour6tDToamaYwxHcFrR9bjnLPO9QfDR86e+TFjPLP72uvXZlXrAwfvvHMcPJFIdXHx3OAnnk7ecra/vjYer3dszl2veQihLKvpdJokycbGZOVqzQJ9TQAdJM17i7Zk3wKnwL5D3j24ucKT/wAjB9surr/+zef/9fmzZyeDfqa1ZmZjrPeeBEVa3+2wXMEsAwcOXYsx0kofmhkCBA51XTemFSSIABG9C8bYqqq741tjA4fgA3dsOZ3sxb3WfdHJYJFUDwNDQGBFEAlEWPn/lcMm0ZSlme4tb90uA7HQg/UdH5hdSACiWKdrI5DKE3Sqe+x9MI2IIl0MmAPp2NZl14pHRCpKSDmsjmD/VT/bZWfUaEdvPi6KCQjpET2olmPhZVofdN6njXIjex2LZRCgE0aAOM0AAOg7KDv4ENrgENNIn2WoBfUk7dDF5eAD592sLl+46oylPlOh1je2zoyG6tZue+u2e/U1DIGVgvkcbQAZ4xNb/NM7cicpb0+vVYdbaU8rcS9bBggpkiSOopgBQnAhOGZ0jpXSSsvF4qicH0pHh4dz6osmakSmjPDbZ4bvenzr+h6+cquaVX7Z2EVtoggjIQFDEuHOenpmPRcnZYlVy30IIXQI3A4I0z1MEcWJjrE/gM3N8OiTfMz54K1xTRlM4+pqcrQoF4so0xT3EEQHckClk/Ut8cz7Futn3PRAjyeRTkV/B5MYOJR3rs9fe4GW++QNe8u2Ze/a1swq20t1L00oyaNiTQ429fiM0PFydnC0dyWYI1RpGsX5MJMqBmctU+tCu5hW80NPU4rSwWhTfie1us7+c8RDO4KejqznB2JxHJ8wBP2HGQME9lpSHmnrYDBKJ+e3VJGClgAMsQKBJ2WW73gqZlZKbWxsLJfLLM/iKE7TpK5rAOwISHWk67q05SKHrRduHL52uLQlpsNUqrXe5qS4sC0uTFwR635+4dLl8dp6YLDWGmOYwTmXJPFoNMrz/CTeDSFACHg3HGEIBuwSXMShYUDQA8RVP/SJ3ZV8Z4+h4vaIfZ3l0dp4CETW+el0ef3G7aZppFRnz25OtrKVL+4mTQe+5eNe1FV6vCOIQABkH5xftYEcTaeEAlbQ+k4nbfWRVXruhCtjxQdz/A4wAJDMouKywHMmBCPiLIoe68uqzPfv7NlqGa9tFOcucAjgXVPNXD6QqEhHKASYhusFtVU27MVrA8/QON82S2SQcdLM4JgGDfEE0gcAAIiAwXM1C4t9Blbrj6jNJyjtdzyZd9eJYDwzU8ymXLjWUNUl8W3bIAmhZJLmQsjjBPE9v5O7D4Lh2nLvyuK1i/2t9fhHsuitiJKBhLjJ70GMSP23dPH1G75e9D2NDg/xvz/b2BaaEpY1e4JU0U6OoyG/ZQJvG5mzwwH2PhBtX1pb7uSDt4135KlcgRBUZIktD8H5oDKpEbgKQQcvmBkBs7S3NthM5be2L4o4Vi+9tJ8CGRCX0suPTPKz68nF7XpvWi9qNx6lk1GeKBk4SEF5ohItseMoRQSAZVldffmqFDAcFmuD3tF0cXN3P4q0lKJcVmXd9Ip8bdgry3pZNUrJ0aBYG/aT/rDDj60xe+sOp4uDxtx6/YbWumOwtMb64KPhOepteyHSorAi1wEJANlzeeRm+8QBVgTdKJNMxKmebBbbj6jBusyHMilQaRRKp73J2bcsZvuLZVk2FTXMjWmXh0ISRRlEg3QyVMmgGG6RfIgmxkPthyrOb24n2Xh8yNvMSspxlnqO1ws+839k0Y8+pvMYlQQGobXoBL6Y8RRbOj54tu6UzAAgBMVxHMdxl08QQkaR6qptHQd5FunH1jJtyjORY+yNHh0UIXAeL4uYlSdnzua9fn+gtAYAa7Ft27Y1IfgkSbe2oiSOO0flQ5jOSoltniYnyA4EAF+xIWAHKEGmgJIBvA9t2wohGGA+nxtrlSAlfCxaU1dC0JmdjVjr+aKs6nbvzuGN67fyItvbmxrjsmJNDE7kOBkQoFMOJbxbVENk6gqbiKuuPJAAbG1AB4ieV0QNAKsENR77XeigJsxA5L133h8DidFCNMdJg86iJ0ZsPXHQcSSiqJkdyTiRSYYkTLnw1vbOXsDBOqlIJgkuj8zioNy7gzqu8yIENuW8ns9k2iOtu0UAj9eQVaDPIVjj2hJDoCiFYkwANNwOQrFtwZpTTzqQObDOehGhaYNogERH4AnBAgeQncrHA16YuWNZ7G4ZMze+QigJMIAmTBBRACZ6B9YDvVuInoqfX2uvzGJnhUdeNoSEvRQ3+ixT2MzgqQzO9GhrSP216ybM7fzdG4//5PYokSpT0d1KHQIASgLvGg8kokJKASC8E90az8xxnGZ5tr2dvOXx/nTWvvyt/VzB9mSyNtyqlk0UiUESYgxLbUdDGg8jIbhtLCIqwd5VxgREpZSWUlZV89K3rhZZBMBrg958UX79G691CRApRVnW6+MhMMyX5dHRvNfPlZSjQY4oToC8nnHvaHn7zsGNW3fyLJWShJBNYwlByJU0+s7WOO9RMvBSBbuc+fkhWsMkkBCFEL1Rf+NC0d9Oh+vZYE2o48I7IjAkSbF57i2jtm6bxrUVkAghhOEEiYSKEUGrSEWZjhMpv1t8xQ8d8ZsZr/65z41CCFy2rfHuFJkHJpFSMmMXgnckhavaAC1JqaNIKsX3Y8UfCHW6cJH5hO6HiJSSx4pefj6fz+eL4fp6khdHR9Pd61en0/lh8Fek6tXFtt558om3x3EcAKuqStOsK9M555lbZqDOjvvOvfcHR0eJ9Fkc8am0I7Bj33R+DmyJqJjF4eH01u3djY2xUuqlF79xcLC/s73WzzDV1LbmYH+2sTHKi3T/YLasmrZu29aMRoOmaV955fUoGz45fKtIViUm1FIWkZCCGbh2bAIDQJyIOCNBHEKoSzatBM4FRhIBwHGY+05DDqRSRIQMgYO1JgSWQmRpIoUA5rppFsvlqpjNcGT4+UNL4I4foHcBp06q4bqxt5c3r3ZJWDaNJEjX1mm8A1IiM7DDtXHZ+L1rV1GpLhqXWZGM1jtSpK6He7VmrHgi3PzKi7e+8TwwIwdyBgDw6muAD5Rt2Qu/BABGTaH2lAbSsHLrGGX9tcfeLvqjhyYWjWmdJQANwIiwFvWJH21DdNAsATCROpGaQCu9kw5T+Y7d9OLALipvDDQOZo7aQJpDJDCNcJhRL+OokGoMlAi7u5nItXiYqeKYevduSyQzWx+CSISOSOkQ2NmIGXWkEFcgy7X1fLuMdGL9PJw9M9la6114/JntzSedE8wcaRGpRCkF3pi2jiP0ztRNpZRUwhoLDLIoelLKosiefvICQpisDQChKNKLF87mWdKxJzfG5FlSZGkc6/Gon6ZxHEUA1Cn+dQMmwl6eeud7RRZp1cE3jXHBBxRIRIKoyNMoTYQkYDBVaepaAwMBEenRZnzh7Xr7EkWZ1JEQ95LVIEgphciTJFtlUY4r2HACczllD3UsD9oPHfGbWQg8b8zNuVsYICRgz6YKwVvvd+fzsjUQAImIkAByb7bmB8l8jggkBTvHzCqOstEwznIZx6QlMARBcjiKB30hBQLd/bXz6oGecHQIIYlENw3qqr5z+3bR66+Nx03Tyije2D67v79vjNVar62tbW5t7ezsKKUO9vf29/byvEiShI8JjhGxE3U+waUIQaPhUELdWlfO2yyJtJLH6w17x2VZHS0Pk95Gmo929/bm89nOzlaappPJuKmXRab6hbRtWy6r/b2pNe7y5UfyLI5i1TRRFNFgUADysqx1JLqUbhfQKRQpxUQiMFtCww0DS4SYgAhCYINggANgUDooiYAhBAwGgkMg1SEOO0VEa1YpCKSudxYRaeUoAQAqB9dLDu5kpgRUGogoSuPhuJ0dhLZhZtXrK7kWdMxtzWaFouLems7A1GUwLQDKLIuHa0JHbMqcbxbyZt81yKGgmyKse9NAnqGMKC66oH9Fy3E8ExHguIkDABiggFWPDwtAAbiiNECUcd6Raj7UOi691QtERbEQWRuCCQYBTHCVazvNvlgOi3wQsjKMG2YOwQbbMrsA3oEAUkKmQGnjsHQMGArVi4UmjLsBMoTTwQJ75w/32TWoMwDgEKyxzBw4KBV3xwkdvA4N9SZbZ8+eP5tHg9HauWK43XEuIoESIkn7s/nCWiPAxVHuPDrbgK+FLJBW4pZdtSSOZRIrApREWss41mVVOxcEEodwOJ0LwixLqrqdzpbLNJ6sD+PoFJU7BEDQSiglBJFzLk2U98GHoJUy1lVVrZNBRx9cN2ZRNz1NKk6i9a3siXdFW4+LpAeIiA/HceHq8cJKzPX7th864jc0Zq6N++qVw//2jfJGo+NYsTfV7Su+rR1zY02nwqMlRYoE8KiZv/f6S+fm+1oKrGooK/ZMhHMdyTROdybR+ggbYxHpHU+Nf+xd2droNFyvK/hrHcHxDOjIMJk5BK6bpmnbza3tyWQCgGfOnOn0T09crZRSKRVC4BDm81nTNHEcM7MQovPIJwd3O2vnw61b+5E0eZHevHlwdmcy7OcnJS/vw9Fs+sprt0Zry8cux3kq2SVKsKKQZ1GayIP9Pd9Ea6PecNgbjXuIlCTxeDxABOd88AEJz2xvhMA6GaRZ0qwAb4wBpAPBwIiM1AIzM3knnKFAFDgwWAZGMEAAAhEDdGxngHhMUrEKOwg5QGDvPKyILO7ZaXjvTdO6pgIfGAGQRMwiImDP3nZzlJlRSM/s6wrbNnhPRIDYFYKEECLJuoa5FaeWXZxJXn7r4EvWPIvMesPeKn/U1f8bUi/fenQ9W0cAASCICFZcmMgM3glXU3AMyABMouuKYSGAAzqLwIGIVQZK3+0XOIXD66zb1XR/RgAilCSIO3QLEpFnRmCJUqCSQhOuuv8ZAgcXwBnvZsZYZgzEAVwIDgKGAKgAZWA2wRMwsCUkRIXEiEAAYroP80MrY+cCydCYGQfRNCKOfZJE1i0W5Z04Hm9M3jsoHo+jYfAkVYRISmkibKrbpZkPR4+laRpCc7j/apJPomSD3XI5u57km73hIx3snZmtc1C7+bJaG/aJSAphrLPWW+eEgH6UpiSEoDiKpJDOuo4M4OQuIaKQgjt2dwapRBSrWGsACIEJyTqPCGkSraiEEWrPmuVg45Hs4jvinUsUpd+/gz15ev8vRU38f8YQkFBQiBX3SEeRdCa06EByEUdSJIiMQGKFv+FBI/t+o+hrJRBbg43tkK2uqhyxTzQUCQvhvRNKCSlPWIQ66xKb3XaGTjE2dW/3er23Pv12JaVU3Ubp4bmnEMLZc+e65HII3AWJHRNm56PvTm3mAMGHgEh5HislnQvWeuEC2QDASRIPBnkWA9nDYcy5IjJ7xgk0Rxtr0XzWModYay3FZH0tiiOlFCEhoJaCu5+VAgCHIgHbAAAE8UlEQVQgpYkIQqdFRsfXxMxAK3UZJmbmsNpgAnTlcuqaR5gZV4vNXSRgt3UgwSIQIkMHxFh1A9w90LfoSxIM2FEtM0CDAVBKlSoIFaLoqqkcOlxGEIIBGTgAnZAQBxCSlJKZIuExiXz0zF62sVhyYB4U7LMLMkoRSUaxToBWVKFIRAIJgTmwaJeyrUS7BJKBCFAABCbFFIE3ollg8EFFNs5DnJ4GqNlqXh/dYe+BvUyLJO1DftJxipp0T3Hr3czWlbeEWMh4FCWp1BLFCScyAyAIEoqYAXym2trb7vIUwYpehEEJubTuynQPwWzqvULGid7RqocIKKTaeRT6I8wKJuHZMoosH8axEEIy+On8inX23NZ78+SpugatdBRHx2GEN6a5ce3r5fy2f4w2t5863Lvx+qtfTYutJy6/bza7deP1r2T59qV8nbIcAKQUo0HBwXctoEKKNNEARFmCAEqJteEgjnQ3Pe7mDO+mARABI62Hw15TG+aghFwb9eLo/k4llBkIEQLmo7Xxucf665uDy+/Wa5uk4i4F/3Cv8P1x6r6R/dARP9wIUQoZaT4/zv9rGiuVKSWc94eXnkDEIouVlIgMx22/CCC8L8xb42C6fSh2M9o5s1g676J+ERW5N7ata1n0krxQWh33uUH3hxNH/GCCSQghhVxRU94l5blrKzZzQCmVFLKTiutmQncAImDHots1yzIyZq2ThzNwLtk9cAi+WjhdN1J7QjQWSA4aRzduLY9HYpi5NSYECpDbQLsHzjlfttoE4XaNkA/prNOJ2MyDjOVTTz35cz/7XwAwihQCBQ4+rMSDlZBCrpgZgg9dBX1Fi8HcsVd31XkpBAkKnVhN8J6PHTdgYPbe++DzLDv/yDlEGGX0xEQdz6cuR4BIAchBEH6QQ1d8AVzx9tBJUZXvmYrdGiIB0CJEBE8GfCJOAQA8QV8lRRETwEass06KuLvbJyhpZgwK+ikFB4h8zDvCHbkdB/QWgZkEq5jprh47MzsdjPQcPEIQUSJ1mqsuUssRlZZBypCEIKXJggOARKhUaUXiYbQ0HT0QZCLEvCp+AHCAVeSICD7ABNaAbS53IiGF6AMOAYgRahnZrB8CsXfMqGXfexlCQAxVVTlDm+N3jEcX2efW2iRJokgDgrOua1BC5uB9t5UXRMwBwQsptFZEkoQ4aejQSk8mm8AeEYEwSdV2nHWj7a5IyLvQutPXePxDB0IYDKJebwWxIQIhiB5sFiMFgECit3U+SdJktKmHmyQVnpIE+IHYSeHnTewNHf//n60TpugmvwvH3KOdFkXo2F7ub9Po5ht0VfR7zgXsPQMgUddLFjggEp3S4DjO4XbVmnvP+hCiijfmruB7/nf3xQONmIgYgq+XMw4BTiB2DHws0nHPb/E4y/mQ0yMAc1gRnz90tIAkoiQnIRfLZVmWsFptTveUnkQZ2EXEfPri7x98FwedzrceD+X4p0yEeVZkWdp63/g37bq+z+57dN8dS4hAjKRUD08mnoSk35M94F5Wy+xJyPfA07j3oXzHYb/hgI7988kZOpC3Me10NrPWdp1HHXuU98F7L4RgDoChV2Rp1gMmuKt9w96Hslx675zZt+28PzqfpCNrltP9b6moGIwebdvF4uiKjvq94VkhI0Tg4MHXDwz2f0EcigQUAxJ7BxyQJDwwr78f+55SE/8Ppr+4p/u2lZ8AAAAASUVORK5CYII=;" vertex="1" parent="1">
          <mxGeometry x="-240" y="350" width="472" height="38" as="geometry" />
        </mxCell>
        <mxCell id="KiZI3qLmPnLDJ573GTRW-98" value="" style="shape=image;verticalLabelPosition=bottom;labelBackgroundColor=default;verticalAlign=top;aspect=fixed;imageAspect=0;image=data:image/png,iVBORw0KGgoAAAANSUhEUgAAAd4AAAAoCAIAAADfQAwkAAAACXBIWXMAAA7EAAAOxAGVKw4bAAAgAElEQVR4nOx9eXBkV3X+ve/1vu/daqkXqbWN9tZsmn3isRnjBTvO4AJDgVniCiFlUjjggiLgFJgU+YOYpQKFExLsYgs7tsF4Gc8+Wma0t9TapW61utXqfe9+y/39cUaNLGk00sw4gV/mUIyl1ut377vv3nPP+c53zsWEEHRHtiGEkGw2k82mCSGEEIwwpiiKoiiMMMaIEIIQx7E84THCCGNEEEEEI4QwIoQQguATuBuFKUxRa8eeEJ7neZYjFEXpdXqZTEYIKRQLuWIOIYIQIghhhDDGCBGMrt2IQojjeYblOY7nOJZnebgU/ocxQhiuxARBHxFFY4qieI5wLEcQwhjRFGUxmqQSabFUCgSWWI6jRSJaJKIFQpoWIApjjBBCGEHzGHp7rUeYwhSFMbV2rOByjBEiBCFEKAojDB/DcIkEWEZhREg6m8vli0KhUEBjAUVouDemCBIgTPOELz81xhQmPE8Iy7Ho2l0pplQSEiKgaYQpwjOERgyPC0WGsCzCFMGYwhRBSEDTMplEJpVgjLOlXKaUwZhAJ+EVXPvn2tNRFBIQghFBhCCe5wjhEMIURWNMkdVnh8eGyYAwQZi69mowhRGmaUomFItoiidZnkvzLMuVuALD85gSCkQisVAgEPCEZ7gSxzII8TSNRUJMUxTGNILWEYWxABGEEIcQjRAFA0gQTxChEEGIRYjFGCMkQkiGsXjtXL32IvC1l1UoFQS0gCcshTFNizHCRTaVCo/S8zNiXiIuSmmVGRsNRCpBGCM5hcUZREkQFrNEwKMMj4ocEoiwUojVGNNwc57nz1z6/emzbywvxoVCYaVDr9LIeBZJJeJ8Ie90WsQSSSyZjUWTkeWVqgqx2STNFouxVC4R5wkrkEhomVwqEIpYlqEwkkolNVXmSoNOTItYjmCaEtFIQrEiVKIoAaVxjw6OXHzlBbmIVavFmgqdQiEupZJsnskzJJVhEykmnORZggVCLBJikRBLJCKZVCSTSWQqFRIpCCVGiFpditfWE8YUZgqISVGEJ4jmCc8hga12v6v5yB9OX/ROTIkoji+mEVtCPI8QEQhpsVSGKTHCNE3TAiEtoClYGKvDTQjhC9l8MpLIJlMcwyCe5ziOsBxBRCgWyrUamVotlErqGhqO3XW3VCq9tro2CL6jmu/IHfn/W64ZExg2yj/qa54rYZbBmMIEI0xjmiYURgQhCmPMwZ5IEGywBCGEEYUw7LLXbpsvZHP5PMdwCGOBgKIoCu5PCBGKaIwwx/Mcy3M8JxRQNI05QjiWYxme4ziECKYwTQtomsYYUxQWCQQCmsYIk2t6E2FEYLckWFwqFvLZNMaEpjAtoDBFIZ4jPOIJ4nie4xHHI4wQpjCoSowxhRGYTwRf29g2Gx0e1C6YUwhhgUgiEElzuXyJYUDVojVbHcZ4re2B0CY3JoQQjud5fvWXazYKpjCmYE/HQpFILpev3nATuaOa78gd+V+QdevueuvztgjP84VCoVAo8DwP7RJCQHEIBAKlUikSid7RDoAQQkqlUjwen5+fX15eLhaLHMfp9frm5maTySQQCP4H+vBnJHdU8/8V2fiib+NKgJv/zyzvdT8TQsqmx5/L2uZ5nmXZfD5fKpUwxhKJRCwWCwQC9M48AsMwExMT586dI4TIZLJyExzH0TR96NAhp9N5ezXjplqlVCqNj48PDw/n83mDwaBQKBiGCQQCCoXi7rvvNhqNYHTfeqNb67Q/l6ki+N/uwB35nxCwkhiGKZVKFEUJBAKhUEhR1G2ZoHBzQgjc8J2Y9GRVeJ4vm375fD6dTlMUJZFIQLuBa/ynvOrgKdLptM/nm5ycjEajGOPKysr6+vrKykqxWPxOdJ6iKJlMFg6HKYpyuVwqlQrc/GKxODAw4Pf7q6qqYGO4LUII4TiuVCoVi0VCiFAolEqlHMfNzMxcuHBBr9cfOHBAp9OJRCKe571e7/nz50OhkMFguLm21voB0C7LsmW3YJ3QNC2VSoVCIcb4ds3/d0juqOY/GynPQvRHzGtbwvN8qVTy+/0LCwvxeJymablcXl1dbbVawYa6xQlKCEmlUisrKyqVSqvVikQidPusElhjhUIhkUhks9l0Op1IJMA3X1lZ8fv9BoNBqVRqNJqKigqTyaTRaKRSKdiAf4ILj+f5eDze19c3NzdXVVV16NAhnudHR0fPnDnT3Nzc0NCgUqlgg7mNjVIUZbPZTp069frrrwuFwqamJoVCgRDK5/PBYDCfz3Mcd1sagpeVy+Xm5+fn5+dDoRAhRKPRtLS0cBx3+vTpqqqqI0eO6PV6MJAJIUajESGUyWR25L7DWmAYJpfLZbPZXC6XyWSy2Ww2m81kMqVSieM4UNDrvigUCvV6vUaj0ev1arVaJpNJJBLQ1LdlBNYJx3HFYpHnealUStP0jr57RzX/GQjM+Hw+n8vlWJYVi8USiUQkEl1jiFx/VsHULJVKU1NTPT09MpnMarUSQqLR6FtvvbVr1649e/ZIJJLtzEtCCMuyLMtCu+u+wjDM1atXI5HIkSNH6urqtog77+ipYfnF4/Gpqanz58/n83mLxWIwGGQyGU3TsLTsdjvHccvLy2fPnuV5vrq6eteuXU6nUyaToW3sEGtX7zutygkhuVxueHg4EokcPHjQ5XJJJBKEkNVqnZ6eHh8fX15e3rt3r8Viub0GHcZYIBDU1NQcPny4u7tbLpe3tbVJJBKapmmavl2QJszSSCRy9erVhYUFnU7X0NBAUdTy8vKbb74ZiUSEQuHu3bt1Oh0oKTCuY7EYx3FSqXSnbeXz+dHR0eHh4VwuJ18VqVRaWVkpEkFAcf0Ox/N8sViMxWKLi4sjIyO5XE6pVHZ2djY1Nd12fwVGIxaLeTweiUTS3t6+zYVWljuq+U9dIHiyvLw8MjKysrJSKpUkEolcLrdYLHV1dWUDZK2shuCvgRjBYLC3t9fpdLrdbrVaTQgpFAqjo6MDAwMCgWD37t1isXizlt/Wh0KhMD4+HggEDh48qNPp0NuteIVCUVFR0dfXxzBMMpl0u90KheJWoEPYCWKx2NTU1NTUVDabZRjGYDAcP37cZrMBGgPghkgk4jjO5/OlUimlUslx3Llz55aWlnbv3q1Wq7e2QGHDYxhGJBLtdOXcxBPxPL+8vDw/P+92uxsbG8vqQKvVdnR0GAyGvr6+8+fPP/DAA2sR4dsiGGOpVNra2ppOp69evapQKBoaGtDt3o0KhcLAwMDExMShQ4dqamrANs/lcn19fX19fSaTCWMMkBrGmGGY2dnZoaEhu91us9l2alRGIhGfz1dXV2e32yUSiVQqlUgk2/GWwJIF92t8fPwXv/iF1Wo1m8239ORrBNZFPp9fXFy8cuUKwzB79uzZ6dOhO6r5T1zAsvD7/b29vRRFNTQ0yOXyxcXFq1evTk5OarVauVxeKBSKxSJCSCwWi0SiMuSKEEqn016vd2lpCWPc0dGh1WopiiKEKBSK9vb2YrE4NDRUXV1tsVhuOJsDgUB3d3cqlWptbdVqtQihYrEYjUbz+bxOp1MqlXa7vb6+XqlUBgIBjHF7e7tKpbq5lQ8Ixvz8/NDQUCqVamxsdDqdS0tL8/PzcrlcoVCsvS0hJJFIeDweqVR64MABlUo1NTU1MDCQyWT27t1rtVqvZ4HCnjcyMjI/P2+1Wm+lwzcU0MuZTGZ6erps2QE2CiatSCSy2+0sy164cMHv99fW1t5iTGyjYIxFIpHb7U4mk319fTqdTqVS3d4misXi8vKy2Wxuamoq7y4cx4lEIplMxjDM5cuXDQbDrl27VCrV3Nzc6dOnxWLx/v37ZTIZz/Pb9xVg6Ewm07q3Bry9tVeStwt8IhQKtVqtTCbz+/1Go1EoFN6uEYAFG41Gx8bGZmZmjEZjS0sLQPk7nVp3VPM7Lmuty7JsHwnNZrNer5eiqKNHj+p0unw+H4lEdDpda2urVCoFIyWZTAoEAqPRqNVqTSYTrDqxWFwsFsfHx0dHRw8fPlxeKvCvRCLZtWvX5ORkJBIxm81boyKlUml+fh4hpNFokskkx3GEEJ/Pd/ny5WKx2Nra2tbWBn5lW1sbxnh4eFgikbS2tt6EKcrzPOwoV65cMRqNJ06cqKqqoigqnU5jjFmWXTt0ABEAFHDs2DGz2SwQCJqbm7Va7blz586fP3/33XcbDIbrUkcxlsvlMpnM4/GoVKrm5ubbuErLPQTfJR6PDw4Oer3e3bt3g04Mh8OwvzY0NMCGajKZjEajx+Ox2Wy3nUwG4VNw4V9++eXR0dGOjo6ytrotZD6apoVCYSaTKRaLAGoVi8WxsbGhoaH29nbgYExOTi4vL9tstvPnz8/MzNTX14+MjCQSCYfDYTabtwn7Aijn9/tbW1vxauIPPAKwXxiGKRaLEPeGgCRgvqDT4QdwII4cOXJb8DfoVbFYDAaDV69eTSaTdXV1LS0tN3TdrifviGoulUrZbBa8jK2vBFMCZsw2zYRisZjL5cB/uR2dfQcFlmUqlQIWJzwgTdMQhVgLI6zd2NfGjnmeD4fDiUSitbXVYDCk0+n+/n6fz9fR0aFWqy9fvgxxsI6ODqlUmslkIpHIzMyMQCAA69JgMDQ3N0O0Z3p62mazQXQetJtWq1WpVKlUCmy3680eQkgymYzFYg0NDSzLTk9Pa7VasI4hohiJRJaWlqampkwmk8PhEIvFhULB4/HIZLKGhoYdKTuO4xKJRE9Pz9zcnNvtbmlpARuZZVm0qlzWdqxUKnk8nvHxcbfbXVNTA+pMLBY7HI4TJ06cOXPm9OnT73rXuzQazaazSyQSNTU11dTUDA8PZ7PZYrF4PYUIqDdFUTtaZvA4Pp9vcXExEAiMj49XVlZWV1cDCDM2NvaTn/yks7PT6XQCs1gmk1VVVV25ciWVSt0uTKMcR43H4/l8Hrh6u3fv7u3traioAC22srICmC/GGAgVcrn8Jjg8MpmspaXlrbfeOn/+fFtbm8FgCIVCZ8+ebW5u7urqksvlHMcNDw///ve/B8sAQF6WZcfHxz0ez5EjR2pqarYJ+1IUlcvlwuFwbo0AfRsUcT6fhx/ATIZngRAxBGn8fn8ul2tubr4tmoTjuHw+7/V6YeYfO3asqqoK1vjNvcf1qjmTycTj8dnZ2UQiIZFIXC6XwWCA9bz9m166dOlLX/rSRz7ykccff3zrK9Pp9Kc+9Sme57/xjW+Am3xDeeutt5599tknn3zyve997/a79D8vsJgjkUhPT08wGARzgGGYRCJRV1d3/PhxsVhcjmjDHCoUCgzDgOIGjQY8BKlUqtfrs9ns0NDQwsJCe3u7TCbr6+tTKBSnTp0ymUywsMFeyOVyqVQqkUhEIhGPx8MwjEwmSyaTL7/8cmNj4759+wwGA1xPUZRcLofQ4hbcKVDNEGETCAQDAwN9fX0OhwNjXFNTk0wml5aWcrmcUChsaWmBAJ3L5Uomk16v12w2b2G0rmuF5/lkMtnT0xMIBLq6unbt2iWRSGDiAbEBllb5K8CKHRwcdDqdu3btKudNwKNZLJaurq6XX355amqqs7Pzeog8TdMikUgqlfr9/lgsxvO8UCiE+Nja7YphmIWFBa1Wq9Pptr/SWJb1eDx/+MMftFptY2OjTCYTCATggNM03dLS8sQTT6jV6rJvQdO0Xq8XCASxWOy2oJ8wCVdWVvr6+k6fPp1KpViWNZlMADp7vd75+fmpqalLly6BOwJ7rc1mc7vdNptNo9HAK9iOkwdfd7lcHMf19fW9+eabOp1uaWlpcnJy//79IpEIiBP5fF4mk9XX19vtdlCRHMdFIpHLly/39/drNJobwmsIIYqi1Gp1PB7/wQ9+oNfrVSoVeD9ADwc+pdFoVKvVJpMJFtrMzMzKykpLS4vRaISVeObMGb1er1Qqb52hBBaYx+OZmpqqqqpqbW3V6XS3SPz444LkOO7y5ctf//rXz5w5E4/H4UOJRLJ3795PfOITjzzyyA2DRWWBodkOU5LjOI/HAzplmzePRqNXrlxZXl7e5vX/KwKx4Onp6aGhIYZhIDDN8/zS0lJ3d7dIJALNSwiJx+MXLlwIhUJlL6yjo+PgwYPlC3K5HIDIU1NTPp8PbnX16lWNRrN//36j0Vi244BLJJFIIExXKpVSqdTc3Nz09DTDMDRNT01NLS8vd3Z2NjQ0KJVKtD0CA8dxmUxGLBar1WqlUrl79+6JiQmv1wsByXQ6DcSJpqYmk8kEnVEqlY2NjWfPnvX5fGq1Guh0WwvHcXNzcz09PZFI5NixY42NjWWFRQjJZrPBYFCtVms0GrTqZITD4d7eXpPJ1NnZuQ6ABu1sMBhcLpfH46mvr9doNFs8LE3TgUAgl8tRFKVUKrVardlsViqVMI0pispkMv39/c3NzdczwDcV4EW43e6FhYWZmZloNFpfXw8RIYyx0WjU6/XQVbgeNI5MJovH4xzHbTRa17lWW7cOermvr++1117z+/3AJ4O4xYULF6RS6dmzZ5PJZLFYtFqtLpcLNgmTyaRWq4eHhwcHB41GY3V1dWVl5TYVDRCom5qaVCrVyMhIX1/f2NhYMpn0eDwGgyEej0ciEb/f39bWZrfbQScCHCGTyUql0iuvvOLz+UB1bt0WbL179+69ePFiW1tbfX09sJUhtDg9PZ1IJMC3fuCBB4rFYjabtVgsXq+3t7f3Pe95j1wuD4VC8Xi8rq7u5jIhwYGDfnIcFw6HR0ZGgsEgMCAhBn6LGv+a9uQ47sc//vFTTz1F0/SpU6ceeOABs9mcSqXeeOON3/zmNx//+MdHR0c///nPy+Xy7dy0q6vrpz/96Z8+4PBOCKycZDI5Pj4+MjJiNBrdbndFRYVAIAASWEVFRVtbG1QvAvUdiUQaGxtNJhN4dpDAWr6hQCDgOC6ZTM7NzZlMJrvd7vV60+n0XXfdtVYvgxIfGhoyGo319fXglkokEoPB0Nrauri42NfXl0gkDAbD4OBgMBjcu3evRqMpFotyuXzrRc4wDJAfgJNksVhUKlUsFksmk2Asq9Vqo9Eol8vLaABYf1VVVT6fz+FwgALaetAYhhkYGHjttddqa2sZhslms+CEAhNjeXk5nU6DHQ3Xp9PpwcHBXC536NChtZZsmXK3uLjo8XgCgUAmk1lYWFCr1dfrA0VRoPHB404kEn6/n2EYlUql1+uBkgXuSzweLxQK2yeDgwZ597vfnclklpeXz507V95v4A7rRh4idWq1OpVKFYvFMhYEMA7HcblcLhKJpFIps9lcUVGxdesMw4yMjDz//PN6vf7hhx+ORqPT09NKpdLpdCYSiampqUQi0dzc3N7eHo/HVSpVQ0ODRCIJBAJ6vf7ee+9Np9Pz8/NXr17t7+9va2trbGwsK9Ot2wXEmeM4pVJ58uTJXC6XTCYvXrw4MzPD8/yhQ4f27t27lsAD5rbVapVKpQD9bceqk0ql9fX1gUBAJpNZLBaRSASrqaenp6mpaf/+/UtLS6Ojo/l8HuzlxsbGYrEILgvLslNTUyzLulyunXInwOqCyWAwGDQaTTgc7u/vL5VKu3fvdrlc4NjdOhglQAgRQoaHh5955hmWZb///e+/613vKs+JEydOPProox/60Ie+/e1vt7W1Pfroo2XQfd1Lgtwb+FAoFK4LdsNXotFooVAoO+CbdqgM55fvTwjJZDKJREKv168Dr9deDGxzk8kEJAQwtaLRqFwu1+l05U1sY+ev9wlCaKdRcnBtIKdgfn6+vr6+qakJoh/FYtHr9Uaj0fb2dovFIhAICCGpVMrn81VXV3d0dCgUCljAQLcAwRirVCpAcguFQlNTEyFkeXnZaDSu1ctoFXgNBoNarbb8LGXUora2ViqVXrhwoVQqtba2Tk1NnT59uqamJhKJVFZWbj07IWMFNDisIqVSqVAowAqD3MJyXZtyt4VCodPphCSXG4IA8LKSyeTRo0fFYvGlS5cmJiZaWlocDodKpSoUCsFgUCaTmc1m6CowtYPBoNvtNpvNa18uz/OJRGJycrK/v18qle7evXtycnJ6erqpqel6dh/gJDRNF4vFmpoa6G00Gg0GgwBllkolhFAymRwcHMQYNzY2AtdlOz4+EGwhX9Fms93QRqNpWqVS+f3+YrGoUChgKrIsm8lkFhcX5+fnA4FAPp9vbGzcWjWDfXD58uVgMFhfXz87OwselUqlAqRCqVRGo9EPfehD9fX1L730UrFYXFxcNJlMcrl8dnbW4XAACr+ysuL1evv6+vL5/J49e26IgMP8v3TpUjQaPXbsWG1tLcdxS0tL0Wh0dnbWaDTu27dvo+dBCAFkCYJ1W48qWp3YKpXKZDItLS3l83mxWAzzXyAQWK3WfD7v9/v1er1er19aWgqHwzzPO53O1tZWkUiUSqUmJiZqa2tvaDSs6ySsWY/HMzg4mM/nHQ6HzWYbHR2lKKqrq6u6uno7QDnMUrwq17vsWk7Od7/7XZ/P98UvfvHee+9dG7ehKKqzs/Nf//VfMcbPPvssjNrPf/5zi8Xyne98Z+2NHnvsMZfLBXH8l19+2Wq1fv3rX4c/MQzzk5/8BFaR3W6vqKh4+umnw+Hwph2amZnZu3dvZ2en1+tFCIVCoccee8xkMtXW1lZWVj7xxBPJZLJ8cS6Xq6ure/TRR1944YWKiorW1lbgD5w7dw6MqdraWrPZXFdX98ILL+TzeYTQV77ylcrKykuXLpVv8swzz2i12ieffLIcYpqamrLZbE899dTWQ7xuuGEJxePxs2fPBoPBffv2HThwALRJPp/3eDxer7eurg7C8bDDBYPBXC5XXV2tVCrXmpzlFwbWRKFQuHDhgk6nq6qqgsQnq9W6TtEQQvL5PMuyUql0oy0mEAgqKyv37t0biURkMtl73vMei8UyNDTEsqzFYrlhaAuv4SSVzT0wzEUiEewKAJczDFNO2lar1UKhMJFIkC2TGgghhUJhcHBQJBKdPHny0UcffeSRR/R6/YULF377299euXJlfHx8YWGhpqYGLF+O4xYXFwcGBmpqahobG8vKDryQycnJ3/3ud1euXHG73adOnWpvb6+qqorFYrlcboung90lGAz29PT09fWxLNvU1HTy5MkPfOADH/3oRz/60Y+eOnXq6NGjhUKhr6/vzJkzoVCIYZitn2vt/ctvBBJ2triYoiiFQgHlNYrFYiKRmJ+fv3Tp0u9///uenh5CyJEjR1wuVzqdBqxp05w3+NPExESpVHrwwQelUmlNTY3FYpHJZI888siHP/xhg8Fw+PDhe++9VyqVarVaq9X64IMPPvroowaDYWVlZXZ29vz58xBtstvtx44dc7vdk5OTU1NTW+cNwiuAaMHx48f37t1rMBjMZnNHR8fu3bu1Wu26mDNZpa9ks1nwb+Ry+TbNWIyxTCZzOByJRCIQCIByV6lUHMeBpa/X648cOWI0Gru6uh5//PGHHnro+PHjlZWVkH5JCGlubt5ppkk+nx8eHj5z5szKygrHcW+88ca//du//eEPfwiFQoCGbUcv5/P5+fn5SCSyLqy9TgQIIZ7nX331VaPReN99920cF4zx0aNHa2trBwYGYIUwDJNOp8GUKEsul4PpghBiWbZ8Ac/zL7/88lNPPVVXV/fTn/5UJpP97Gc/++53v5vL5Z577rl1bfl8vieffDKRSDz33HO7du3K5XJf/epXf/WrXz3++OMf/OAHC4XCD3/4w+eff37tvlosFiEX4/HHH7fb7WKx2Ov1/s3f/E2xWPzWt77V2tq6sLDwjW984+///u+tVus999zT3t6ezWb7+voOHjyIMc7n8xcvXiSEDAwMgH1HCOnp6UkkEvv27dtifGFWAUBcWpV0Oh2NRgUCwaFDh4AJD3GPkZGRK1euVFVVWSwWSOpDq1EsgUAAJhhCiOO4QqEAQeTy4Gu1Wrvd7vf7KysrpVLpysoKQmij8QIKDiF0vdkGzrXFYonFYs3NzYcPH25vb+c4DoDpLQSMPogWlj8EEhI8SzqdXllZ4XleLBbLZDKdTgexLFB5m+qOdT0HX9vtdkOIsrKyErgl4+PjZ8+eXVpaslgs+/btA00UjUZHR0dlMllzczOk/JWdJEgatFqtDzzwQEVFBRAhADtaN103CmRhmEym/v7+06dPHzlyBKYTWHMikWh+ft7hcDidzqmpqYsXL3Z2dlZWVgK+CTG0rSuTwITZWi+DzqJpulQqraysLCws+P3+SCSiUqnsdrvT6YRQ+eLiIiAbkUgEIbTRWIPRGBoaamxs7OrqIoSEQqHJyckTJ07U1dVNTk6GQqHjx49DDufS0lKxWFSr1TA/GxoaXn/99VAotLKyAsED4LFAVNnpdG6N2nMcB18ERnn5cwB8fT7fxMQEoBmglAuFAkSSfT6fVqutr6/fUUwLqKJzc3MwCBAMAF9Tq9VKJBIAsgGJBQsD8pgaGhrAv9xmWzCqsVjM7/c3NzfL5fLu7m4gidbX18/Pz8/MzDidTpVKVXYiN34d9DKEajo6OrZeegKEELjV7e3tNTU1m14kkUg6OjquXr3q8Xiud831hOO4f/mXfxEIBP/+7/9eV1eHEDp27NjMzMyPfvSjL37xi2tBpWg0+vTTT3d3d7/wwgv3338/QmhhYeG///u/Dxw48JWvfAWqnxw+fLirq6u8dcM8DgaDTz755Cc+8QkYkVAoVFlZ+b73ve9jH/sYxvjQoUM2m+3o0aO//OUv77nnnsbGRuAnQaR4eno6GAzed999Q0NDMzMzOp2OYZju7m6LxdLc3Hy98S0Wi6lUKhwOAwaaz+eBsgOa1O12w6oGgLK7u/v8+fOwyff19YFFAyOTSqXK4BSoj1wup9fry3EzAB9bW1v1er3D4QBgBDIUNlXNcD3arBQcxGZ1Oh3QTuVyeTkYsMUELcNTkUikrN2AjBUIBIaGhkApp1Ipq9Wq1WqBq7R7926bzQaY79bhIxiNxcVFoVBY9vehBpnT560AACAASURBVE1VVZVSqSwUCuCxQi6G0+kEdP7w4cPlTEhgufT29k5MTLS1tbW1tYHLjDEGz/GG5kzZD6iurtZoNH19fRcvXkylUsCsAhZBOByuqKjYtWuXzWa7fPnypUuXqqurDQZDOBwOhUIikchoNDocDoPBsCmbG5rYjrcO2PrZs2dVKlVVVVVTU5PBYIBoKsYYJp7f73/11VdjsVg2m/3IRz5isVjWjWooFEqn07W1tRqNhuO48fFxqVRqMBhSqdTQ0FBtbS3YWAMDA8PDwxzHKRQKoVAoEolqa2vlcvnZs2czmQyUpgNNZ7Vau7u7M5nMFqg9QkggEJjNZnhH4CIAQXZiYoLjOJvNNjg4mMlkaJoGCw9WjVQqdTgcEHHZPj0RPAyn0+nxeHw+X319vcFg0Ol0hUIhEolMTk5yHKdSqaqrq2F75jiO47jJyUlCSENDw04DgMAgArLv4ODg4uJiZWXlwYMHDxw4MDg4qFAohoaGwL/flDQMwKzH4wEspbKycutpKUAIJRIJhJBGo9nClQDNCFfuSCKRSG9v77vf/W6XywWfKBSKX//616VSSafTpVIp+DCbzT7zzDPnz5//zne+8+53vxt6DOz0j370o3q9Hi4Ti8UPP/zw6Oho+f4YY4halHeqo0eP7tu3D3ArKN0CnV9aWkIIOZ3OpqamwcHBRCIhk8nGxsZSqRQ4rR6PZ+/evYlEor+/v7GxsdzhtcKybDgcHhoaCgaDUM5CqVSaTCaVSqVUKiFkpFKpQB+BuiwUCvX19XK5HNJARCIRTdMAiIvF4qqqqjIZA4pmQXGDtQ9oNBoNBgNFUYDtojX4+LruQYwC2HgIIehJ+a8URel0usnJyWw2C2W8t/MGAdRjWRbgfoQQ4AYej2dlZQVjXFNTEw6Hd+3aBY62x+MZHh4G4wVYHFur5kwmEwgEzGbzOisGtGEkEjl58mRNTU00GoXSZSsrK/v371cqlWS1ulgmk4H0yM7OTiDwrUXx4JotDBmGYQBACAQCTU1NWq32yJEjV69evXr1aj6f37VrF8TlstlsfX29RCIB1mp/f/+rr76az+ftdjsgql6vd3x8vLW1FbKB1rUIxhSATmXDEHB8hmHWJhlLJBK9Xm+1Wvfs2QMV2sraChIlQqGQTqerqamprKwcHh7e+Fw8zy8uLhqNRngLFEVVVFR0d3cPDg6mUimGYSAQzbJsZWXl7373u127dkFSNeyLZrO5tbUVHCO4Id4GIQStWhJtbW0+n+/cuXOgZ4F3GI1GOzs7d+3aFQgEstksx3HABoG4hUqlgr1ha/h1owgEArvdPj8/Pzk56XA4IGaQzWZ7e3sjkQhgjA8++KDT6QQDlGGY4eHh5ubmHZEgyWoRG3DvwuGwQqHo6OhYXl4GXDudTk9MTORyObPZbDQaN4bEYH/q7+9fWFhobGwsz9KtHg0eDyFUKBQ2Xe0g4CzvtAoJQmhhYYHneUjoKn9YVrXlm3/zm9988cUX/+Ef/uHUqVNlxQTKtLKycm2vbDbbuk5CQYnyrzRNLy8vf//73/d6vbDzl6EVhJBIJDp69OhLL70UDoetVmtvb69Gozl27FhlZWVPT8/jjz8ejUY9Hs/TTz+9kY5CCInH4xcvXkwmk1VVVVDqTCaTlZmwZQYo9BCWxLve9S6Y8Wv/ilfDdGX3B1QzIWTjZr4ulg25TOv6BlY54DNSqbRUKlVVVbnd7rWqGcwTjuMYhrnRe3vbnUHFB4NBp9NJUVQikZientbr9fX19VNTU1KpFLByyNjmeb67uxumL0LohqlWqVQqmUy6XK6yfQ0rCvLRtVot8AXtdrtCoQgEAlAT5+zZs01NTU6nk6bpsbGxycnJjo6OjXoZIXS9hBowowDMnZiY6O/vz+VykMpsMpn27Nkjl8sHBwdDoRCEB8rOCgwIcLwQQgaDobOzUy6Xp1KpkZERr9erVqvXZVrjVepFMBjMZDJrk5gXFhZWVlZaW1shRRBjXFFRcf/99yuVynWJZDAswJG/++67KyoqRkZGVCrVptxE2BRB3cM8BLwY0tkhNC0QCBoaGqLRaF1dXTluD3PS6XRCfgrcDapLi8XiG4KzFEWZzea77rprZmYGwkKEEL/fr1arofoK5KPDlbBwysbjjpRyeWABihkfH4/H42KxmKIoIHouLi4CxETTNDCmzp07B9VHgaG/nebKMaRYLDY9PT0zM+NyuTo6OpxOp9FohGj/7Ozs6Ogoxhh2aMiVLT8OWU3dHh4eBnYdMNxvuNUJEEIVFRUKhSIUCkUiEajRt7F/EJQDRGJHAsG3rfEjiPMYDAYg6pVbKYOn5SvX6rKy0DS99ppXXnnlYx/7mFwuv+eee/bv3y+XyxmGuXDhQvmCkydPPvXUU+fPn+/o6Hj11VfvuususVh81113/exnPwO1ks1mH3jggU27CgDfsWPHXC5XeaFe77mo1VLCWzw7vDnA3TKZDBCQr3dPePxNaeA0TRuNxtraWli6ZrMZ0Ld1XxcKhWutoe0Ixhg8g1AolEgkFArF4uIix3Gtra0ymSwSicAKzGazkK9hsViUSuXi4qJCoZDJZOsYxxsFCgyVIQhwNfx+/6VLlxQKRVdXFyStAPxqNpv/6q/+CmPs9Xp7enoGBwfFYnE4HO7o6Ghvb9+4DZRxnnV8rHI05urVq9lsFrDR6enp6enpUCh09OjR6upqt9ut1+vHx8ehWptKpQK0ERLYwPyxWCwLCwtjY2O7d++urKxUKBTd3d2Tk5OVlZXrFj9N01VVVX6/3+fzgS0MiPD09PTaWQROetmGXdtnqOs2Pj7e0dFhs9kQQuFwWKPRAOC+TiiKgpAsWt2Sjx07duDAAZqmgTQC1zgcDmB2rsWdMMbw7soLrVAopFIpjUZzQ9UMc6y2ttblcoGGAro9ZE5BQ1t8facCzdlstoWFBa/XC5UxFApFa2srJFJVV1cbjcZAIDA9PV0sFn0+3/Hjx4HVc8Obg7ULJMLx8XGWZRsbGxsaGtRqNQA1CoXC4/HMzs4Wi0XAQmF/LRQK4OuATxYIBPr6+gqFQldXl8Ph2CaQIkAIwUkHFy9ePHPmzKlTpzZO7qmpKY/HY7VaGxsb135e/hmiYZs2AIGLaDS69kMIDZVXi1ar/epXvyoUCj/zmc984Qtf+N73vqdWqxFCkBaxlpJBCEkkEltoFp7nv/nNb8ZisV/84hddXV0wDxYWFj796U+Xr6moqGhpablw4cJDDz00Ozv7xS9+ESHU1dX1zW9+c25u7uzZs3V1dU6nc9P7cxy37swecv3iA6AXIEEWQkDrJgQo2UKhAPE0n88HgZ3rCV6FksHFWfdXhUJx4MABKMa2aQku2P/RDkmBMPvtdnswGPT5fHa7HZANsNeMRuPY2JhUKgWSGVhqarXa7/eHw2Gz2Qxa5noCcxchBM/FcRxkqY2PjyuVyr179wIbkmXZQCCwvLzc1NTkcDjA6fb5fFeuXHnzzTeBjFgoFMBEKj84PG86nYY8sbWN8jwfCAQuXryo0+kOHjxYUVHR39+vVquPHTvW19d36dIlnU6n0+mcTqfFYoGqCIFAIJ1Og3JhWXZkZATKOblcrkQikU6nNRqNQqEwm80TExOZTAZm79phhErBi4uLAAFjjAFLMRqNa/X4pgY+VJgE+GLXrl1CoXBlZQUKNWxc6hhjqMWRSqXKzFFA8GGQl5aW0um01WoFCG5dW6lUampqSi6XO51OiKQVCoVMJgM7ynbmDOB15RtKJJJCoXDDSOzNCcZYo9FUVVVNTU3V1dVBETuTyXT8+HG0SomB9AKxWMwwTEtLyzZTLmAvHB4eDgQCRqOxqakJYst4lUllNpsh3tjb2wt02EgkcvbsWaPR2N7ertPpisXi/Pz8wMCAWCw+evQoEFW36RxcO/Pmgx/84Pnz55977rljx46ZTKa1V5RKpW9/+9vhcPizn/0svBjYYMswMUJoeXn5ejqlpqZGLpePjY3lcrny9v7iiy/29PR87nOfg+nrdDofeeQRlUo1Ojr63HPPdXV1PfnkkzRNV1dXY4whgFBGOa5cubLF82Sz2ZmZGYvFcujQobICOn369NprpFLpkSNH3nrrrV/96lcGgwH2m5qaGrPZ/PLLLw8ODh47dux60A2cmrOwsKBQKDaiqGWSb1k1ZDKZoaGhq1evRqNRWJlr7Y5y7TEoSgkkii3yesD8kUqlwBFcB0lDlu0Wg8PzfDQahQoJW1y2USCzrqKiYmZmBqomGQwGUFLAacEYZzIZYM6Cr7CwsCCTyXbv3n3DZVCO1LEsCynF4XC4pqamra1Nq9XC/p3JZGADqKmpgbWhVCptNpvf76+vr9fpdMPDw36/v6Wlpbq6ei1YD+beRhsW1gx4S1CHwGQycRwHdQ9+//vfLywswN4jk8mqq6tNJlMwGIxEImAD9vf3e71e8Ha7urrAYEeruLxAINiUqwdkL8hlLYfdZDJZLBYr1wO63hBlMpkrV66EQqGuri69Xg8oAcuyNptt40ZLURSkQU9NTUGVu7XbVTKZ/PWvf720tPTe9763qalp3cgATv0f//EfFRUVjz/+eFVVFeB4uVwOqIo3nC0ga/0AmG9rCfu3UTDGwBmfnJycnZ0FJwAELiCEAJt7ZmamoaFhmyYzQgiKzcbj8Y6ODpfLBUUI1l4A5CW9Xm+xWMbGxiDADoCqWCxuaWnxer3Dw8MOh2Pv3r1arXZH6S3XVPNf/uVfnjt37j//8z8fe+yxz3zmM+3t7QqFolgszs7O/uAHP/je97538uTJv/3bv4XvOBwOoVB4+vTpT33qU2q1OpvNvvDCC9PT05s2LJPJHn300Z///OfPP//8E088IRKJBgYG/vmf/zmXy33ta19ba/+KxeKnn37a4/F87Wtfq66ufvjhh2tra5uamt56661Lly4dOnSIZdmenp7f/e53W4ysRCLRaDTj4+MzMzOQV/bGG2+8+OKLYrE4kUgAYQDIbb/97W+///3v19fXV1VVIYSqqqpqa2v/67/+Kx6PHz169Hpul8FgqK2thUqSSqVy3R4okUjMZjPky8EdlEplc3NzoVAYHh5OJpMKhaKqqspsNoP6wBiLxWLIMQUPF7ykLV6YVCpVKBSQyLvFZRsFiCXgAq8z6G4o0M/6+vqVlZWhoSEI4aJVzxfmQKlUymQyEMqDgCccqnTDZYAxBtWzuLg4NjYmEokOHjzocDjK5w2DGo3FYpCtgFYRwFgsFgqFDh48WF9fH41GJyYmLl++PDMzs2vXLjjAhRCSTqdzudzG+AR4M8Aohx46HA44AspsNjc0NMzOztbU1JRPKlIqlUqlsq6uDixxoVCYy+UOHz7c3NwMlAy0Sn0DTGZTJgawy6FshV6vNxgMUqnU6XR2d3dPT0+3tLQAVLrurQEgDqg35JsBeDo2NlZRUbHpuU2AwO7fv//y5csOh6P8IOULoAJ4NBrd2E+wdoHCASoVXBaoSnETcDBCCBKU8vn8FtGsWxGKovR6vc1mCwQC4NLhVSZ++Y0AkWb//v3bD5jRNF1TU+N0OoGhf71rKioqPvzhD/f29r7yyitut/v48ePd3d0zMzORSASqdrS1td0Q1tso1zYWuVz+T//0TxRF/fCHP/zgBz9YW1urVCphSUSj0QcffPBrX/taOfuotbXV7XZfunTp1KlTVVVVYC93dXX19vZu9LJpmv70pz89ODj45S9/+fXXX5dIJFAD8Mtf/rJSqVxH+TCZTM8+++z999//j//4j/v27bNarR//+Mc/97nP/fVf//XevXsLhcLIyMgjjzzyk5/85HokJKFQ+L73ve8LX/jC+973vs7Ozng8PjMz8+STT2az2eHh4U9+8pNPP/20y+Vyu92EkNHR0b/7u78DyEWtVjc3N3/rW9+CgMmm44gxlslke/bs0ev1wFtiGGZtlCaRSCwsLGg0GpvNVlVVBZUHrFYrnMEDRL1IJAKF56FQ7KbH2W3xFkUikUKhmJubKxaLOyq5Cd2LxWLOmzqjE9gdzc3NfX19KysrtbW18LlEIlEqlRANz2azhBCKoqxW6/333w/Z29uBJlmW9fl8oVDIZDI1NTWZzeZyagY48jMzMxUVFWXjF4gNPp8Pii7p9XqtVms0Gv1+P5w1Z7VaoZy/3++HM4c2YjsURa2tiAQxLrQa9J+bm8vlcrATrIMaMMYNDQ0+n29lZQWOwgLDH60iVOVf1z0pQkihULhcrr6+Pq/X63a7gSNos9m8Xi8Ao2CalS1cyAn2eDyhUMjtdtfW1gqFwmKxODMzk8lkDh8+vKkZC9h6Q0NDMBg8d+6cQCBwOBxljEupVN57771QQnZjPymKqq6u/tCHPgQsdYxxPp8Ph8NQQWWLt0lW64uue2SEkEgkgpOiyIZiypuO0k4FDGeHw7G0tBQIBMANgiNxAfOFEQOK3vbRPJjzW3cMZk51dTUkNIhEokwm4/V6I5GIy+U6fvw4sGN3mleMEKKfeeYZ+EmpVD7wwAP33HOPXq8vFotnzpyZn5//5Cc/+aUvfempp55ay6mAADEoVp7nOzo6nn32WYPBYDKZ7rrrLgi7icViSFvCGJtMpoceeggSQxmG6ezs/MpXvvLwww8DlJ7P51taWg4cOADrxGq1NjQ0YIzlcnl9ff3+/fsbGhqAR2w2mz/72c+eOHFCLBYfOHCguroazKLOzs618IXb7QYzKpvN2my2z3/+8/fdd19HRweg8ocOHdJqtVqtluO4xsbGD3zgA2A1Y4x1Op1EIrn77rsffPDB6w0lRVFSqbSiosJms9nt9uq3i8PhAEbgwsICVO/jOE4sFsvlctjVrVYrTdPz8/OgVhQKBRhK+O1yvbdVtiJ9Pp9IJIKzfLY5m+Fkk8XFxa6urp1azWhNaiyoSCAdw5BGo9FAICCXy8ViscViAQ8ATMIbzkjgpfh8PqFQ2N7eDhxeSNxAa2prxGKx3bt3AxkLrTJ/h4aGHA4HFAwBINVgMEAaiN/vn5qaArINoBzrwoCASiGE7Hb7ujHEGJdKJcgguB6HVy6Xa7VaCMpBYlg54OPxeHK5XH19/aaF+SmKgqLys7OzqVQKootarRaAuIWFhVgsBgB0MpmEMiBjY2Mcx8HgQDryzMxMX19fS0tLfX399WJKoJWqqqoCgcDo6CgchQfzBzRObW0tJPhszB0VCoXwNgEyhhiay+W6IRW3VCotLi5CzQqoAQL7wfLycm9vb3V1NYx2+dXDFgs5AUAM3U5C3aYCgF4kEgmHw1qtdmRkZGBgYGpqChyIYDDY39/f0dFht9u3f0DtdpZk+VkSicTVq1cHBwevXr06MDBA0/R73/ve1tbWjZ7QdlvfuHERQnK53Pvf//5XXnnlN7/5zX333bfprXmez2azoKq2Ge7M5XI8z6/NdtuOgO0A6n77UFcul4Mzx8oLDxCAm373G3u16YfguC0vL/v9/mAwyHGcXq+32+1A4aRpulAozMzMXLlyZXFx0e12Hzp0CDjL2283nU739fWBknU6nVuzQcH3L5VK09PTvb29DQ0Ne/bs2X7C1aZ3I6sFRjDGDMOMjY1duXIFQOe77rpr65SEjTfM5XJnzpxJp9N33333utoUQKE7f/68zWbbt28foLEQlerr64PTsNaCrdA3sDQvXbo0NjbmdDofeOCBdSMM11y+fHl2dvaee+4BIx2tWkZQIPCNN96AKv6bPgu8aGCzTk9PQwSynBDU1NTU0tKyKXYMPUyn0zMzM5OTkxKJpKampqqqiuO4YDAYCoVSqRSw1uBJ4UgUu90OI5NKpYDqp9Fojhw5snWVc2hreXn54sWL2Wz2+PHjVqsVdCVZk3Z/w7fT29u7tLR0/PjxioqKLWYaHMfz8ssvAwGUoiiNRtPQ0GC3230+37e//e39+/e///3vL4cis9nswsLC/Px8KpUCoMNms7W0tOyIcbxWisXi4ODgwMBAQ0NDb28vGMudnZ179uzp7e1NpVJgd74TiAokl/3oRz964YUXIEGcEPLYY4/dymk1m6hIsFg/8YlPnD59+rOf/Wwikdi/fz9Uq1l7GQBw228JbnsTXQRvZad17DYyim7ieK4t5HqmCkQC5XI5lG4IBAIzMzOXLl1SKpWQLwepDVDGJZVKbVHb4XrtwmEikUjk4sWLLMtuUX0cNEgymZyenu7r66usrOzo6LgV9tKm2ItCoQC4PJlMptPpHR3jBC/XbrdfuHAhGAwC9aXc+Ww2Oz4+Dilqa9GbaDS6sLBgs9mAn7uue2KxWKfTAf2rs7NzU7ddJBLV1NQsLCy89tpr+/btc7lcZeuGYZhwOAzG4xbdFggEGo2ms7Ozvr4+EonE4/FSqaRWqyF35nqQURlSgEyW8fFxSJV2uVyAbEDcEhjuMplMrVbDVgcnck1NTcXjcYfD0dbWdsNxhr+aTKbDhw+/9tprFy5cOHHiBBzQt80XBJrd5/M5nc61ZbO2uDiRSDz88MNyuTwWi3m9XshnASbvzMxMqVSCMn7Ly8s9PT2zs7MWiwU2jKWlpUuXLgE2dXPaE5j1CKF4PA7VuIxGo91uD4VCfr//4MGDOzIati9g/gOKBSeX19TU9Pf33wS+vFb+CGisE7vdbjQaz549++Mf//j555+PRqMPPfTQTTfzf0pgBgsEAoVCAWU8tVotwzChUCgQCMDRwk6n8+DBgx0dHeVyEzu6P2RSAfgOtZ5Bo8EUYVm2VColk0kozvvqq69euHChs7PzyJEjsJ5v7wSFkwMhmYUQUlFRsSPXBFxvODdPJBKBb4EQYll2ZmZmYmKitbW1DJUihPL5/NjYWCwWc7vdwAwr3wrsxHg8PjAwsLi4CMmBG/ct+FUmk1VWVqbT6bGxsbm5uUgkEovFlpeXvV7v4OBgU1PTDRMTYCeGgw6sVqvNZgOy4Kbxg3UCFEOLxaJQKMLh8NzcnN/vT6fTAHOp1Wo4RUwgEGQyGZ/PB6colE+A3ubpFtANmUxmNBqnpqaAGL4uRAGoAoDv6z7PZDI9PT1w8OgNC1VDzb+5ubmGhgaXy2WxWJxOp0wmGxoayuVy0Wh0cXHx2LFjMplscXHx9ddfz+Vyx48f37dvX11dXUVFRTwej0ajDQ0Nt2LYYowDgYBYLD506FBtbW1zc7NarYZ6gQcOHHgnTuaFjISpqalf/OIXZ8+eVSqV1dXVsNfCET833eJ1gQWxWPzEE08cPHjQ7/cjhKqrq2+y7/8nBa/Gi0QiERzXZLfbk8lkPp+HNQk5hBuZztu8OVgE+/fvt1gsHo/npZdeEovFAJsoFIpcLhcMBhcXFxmGkcvly8vLUJd9+8nZO+qMTCaDYAvUcS4UCluTTDbeQalUut3uCxcu9Pb2QsVLOJkFDruy2+1rEwVhkUMJpHV6GcqS9Pf3z8/Pt7e3r63Hv7FRoVAIFqXf75+dnfX5fLlcDpzxuro6AHZvOFzlC3a6uaLV+p/19fUmk2llZWVlZSUYDA4MDAD1DTg8xWIRqt2r1Wq32221Wjfygm7YFmTo7du37/Tp0yMjI+Xanni13M/Q0BCcjAVIF8AdEJwIh8NQduqGLQL1EyqQWK1WlUqlUqncbrdEIvnNb36ztLQEpfShhD/Lsvfccw8cgcjz/NzcHAARWx9TecMnlclkBoMhFosBgo8xDgaDy8vLbW1tt+sAwLKUR2l6evrFF18cGhriOA6q69XV1e3evfsWW7yu1YxWx7q+vh5mz0238X9cMMZQvgtKs2u1WnD/bwX1hnUFkcBisbiwsCCRSHw+39TUFMQAlEplQ0MDFGItlUoOhyOdThsMhm2e8rWjnkCxi3w+D7V+tFrt1sXJNr0JWHalUsnr9YZCIchgDofD7e3tEDtFq57j6OhoLBYDh2MtypzL5WZnZyGN3u12Q126LXa+MvphMBicTmd1dXVdXV1jY2Nzc3N9ff3aWu/vnIB3JZfLgTZuNBrB16murgaOQSgUWlhY2Ldv3549e6qqqtbyN3bUCoRwpVLplStXIHEUHAKooPvjH//YZDI5nc4ymgSHQHZ3d0PBh21qGSB1DA0NJZNJi8UCUSVIk7t48WIgEHC73bFYbHJy8vjx47W1tZCmsbS09Prrr8tksr/4i7/Y0SEyGx8TIcQwDBBbzWYzy7JAN+7s7Lztx6UDQ7y7u/v06dOxWOzuu+82m81Hjhw5efIkHBl+i/NnK9V8R26j4LfLbbknmDxwUNDhw4fz+XxFRcW9995bX1/vcrlsNptarYYa6u3t7YuLiyKRyG63vxNwWy6XW1paqqioiMVisKPvCNmHMQFkAMx8KJxoMBigSmSZmMXzPETPoK4FoDfZbDYUCg0NDU1MTMjlcrfb7XK5yucK3rBpKOYgk8nA0IMTS9+JUbphH+BUQIZhTpw44XK57Ha7RqOJx+MtLS2wP93KXg7nBRcKhfHxcWCYAAFjeXm5UCh0dnaW3xqwgK9cuaJWq/fu3bt98AQ2AKVSOTw8DHw7sVgM5EWfz+f1equqqsLhcGtra3t7O5TMDYfDb731Fs/zx44du8VnLPdhcXExk8k4nc50Oj0wMFBVVVVXV3cbE8SBjRMMBuGkApvNBgCjUCiEmotlitGtyDtyovYd+R8QICqMj4/n8/lDhw6B/jKZTOXqz5BxCxHwYDBYLBY3LbZw6wIQDVRs0Ov1kJV3EwA6TdNqtRr4c3Cm3NLS0oULF6Amr0qlAm0LP5RKpUgkks/n4/F4IBBYWVkRCAQA8Gk0mpsgbv8pCCho8IfkcjnP80ajEfI10M1yfsuCV8/STqfTFy9eFIvFQO/p6OiAxPEyb4phmMnJyXw+v3v37q0LUm7aRFNTE8a4u7v7l7/8pdvthoBnV1fX5cuXPR5PQ0MDVOaDXLvLly8vLy/fc889G1mMN/eMcMIW1IZMJpPxeHz//v03TUnaKJBzNDc319fXxzAMRBfffPNNYe+I5AAACY1JREFUr9e7a9cui8Vyuzhgd1Tzn7EUi0W/35/JZGZnZ4Hx3tTUtPYCCL9ASPDIkSN1dXXvhMLCGMvlcoVCEY1GFQrF6Ojo7Oxsc3PzjiiS5VsJhcKKigqdTldXV7e8vJxMJgFcZlkWyvtBwGpiYoJhGKgGpdPpwK7UarUAEP856mW0ypovnw+AMVYoFC0tLTdNWlgnGGOVSnX48OGenp4333yzqakJXG8oVIIxhkrc09PTk5OTjY2N68rhb1OgpL3FYpmYmJiYmBgdHQUCjEaj8fl8J06ckEqlS0tLY2NjExMTer3+Pe95z3aO5tqmiESi6upqv99/8eJF2OxvOolxowBuNjU1deXKlYqKio6ODuAInTx5EsqV7CjKsrXcUc1/xiKTydrb20dGRiB2D4yFtbNQrVbff//9IpEIjlW8CV25TZFIJGq1uru7G7zUMvf5JgSvFuKBs8qg6HahUMhms1DsGE4V4XkeEhGVSuVNV/v9UxNIpFxbnk0sFtfV1d0uJwD8fb1ef/DgQZFINDIyMjY25nK5ampqDAaDWCzO5/Ner3d0dBRqmd0EpQGuh9qHarXa4XDMzMzMzs5CHqxYLM7lcqdPnw6FQgghqJC5o/L522ldrVa7XK7f/va3GOP77rvvJkoZbypgLy8sLECuU3t7eznaARXVby9cuUnKyR35cxGYK7lcDmqDwLlqa2dGWUW+0zqLYRifzzcwMOBwOMxmM5SVuC1htLUoc/nfcs7L2irYt97W/7qQ1Qqx1zvE6HYJZOFGIpHFxUW/3x+PxwkhAoGgWCyKRKL6+vq2tja1Wn2LezlZPfovEolMT0+fPn06k8nYbDaoRFpZWWk0Gm86WW4LgeNIXnrppVKp9Mgjj9xKaHGtAITo9Xrz+XxTU1OZ5fkOyR3VfEdWhRBynSzH7XwVznmTSCRg8W2tK9/+1+u0SDb+Rt72OX7bf24oqwr8/wclfutSThOFg+eBOyiXyx0OBxzwers2vHJCNhTYg7oFME9uFyy7sUUIMEL05Xb5HGT1rBOA1N+hzpfljmregRCCyPX0yG0VvKq7dooMrH5r5y2uEo+i0SjLshhDvd1yOi9cABPxmiEL/URlZUcIwghjiqYwQYTnCEIIUxhjhBEm5G3PIpVKVGoNxriUSzPFbLkbhBCMEEKY/HGnIIQgxPMcy7IMw3M8z/EEEYQxRWFMC2gBjTCFcPmxV/Xv21cNRdEypUYq36pAzzshhJCbeR87FYwwpq7X0B+nLV736TUpV2UqH9Zz4+bKk+HtLb3tqrcP9R9n8tvfAIbvrd9x1ze4oxf3zvmL28xxv3W5gzVvV3hCRuaS/dOJ1XeztsLWZl8gb/srvvbzjVIYEJJJBAeaDFa9lBDi9Xr7r/ZzHIcI4csFLHie/2OVL0JRSCigBDQSi0VikRBhwjBsschkc0y+UGK5a1eu9hqU5LWf4f8CgfCRRx622+2JRPwHP/h+LJakKJpcO16WYIwpGgtomqavnTqKCSIsy60+kVBAE4QoSoAQpiiEoUIQU6IpSiKWUKtOH88ThmU4hqUEdHNz87333S8SCpfnPcszwwjxCGNCeJ7jMCKIohFBLMdxTKlUyOfiiVw8VUim89lcqVBiGJYjPEEUFgoosYiWSUUyqUgmQRSFMKJpmsYUpihMY4wRhSmCMEJYJle0dt1T27YfY5oQ/trTIwKbAVkd3vI7oiiMEOJ4nucIRQFMtIniW/tC8bVyoIRhmEKxJJWIRQLK57myODmC0GqhxDUb3urkoBDC1/aSa0qU5/9Yhp4gQjCBCQgvHxGeoDW9FcpkjXuPmx11aU9/MTBP0ZRALJFYq2i5FBNSTKXCy4uz0QVWwssUMlogZhimWCgVivl8IVcqMQzDMQxhWcIThBDmCSIEI0QhTBGEeR5f6xNHCEE8IQKa7uzcf6DrGIvYS1MXV9LLNCUQi0XFXCG6kGIyREgLJEKJVCJTqdRanVGpVHEcky3mYtkYJ2ARwYQpFdhIkU9jQmQivVgqzZfS0ZVInsnRYkqukNJCgqiCVKqUCg1ckZIJFbtde01KSz6bYdkShTCNCOIJojBNUQJagCkKY4plikypRNM0JRRQtIASCHhEioUiy3IYEwHGAgpRCBHCYUTAYkAY8RgVWZwrcoQgjClMYaFQKFcoEcLc5uUtd7LREkLKe8+110sQzyPC0bRAKJJgjK+jPu6o5p3IbCj72tVljicIEYRXzcbVn8uCr9kjGGwPjBG1OvxbqOayd65XiRqqlFa9FCGUzxcikSjLMBzhOJbleZ5j4fgxnuM4jmMxJjIpJRIQnmNZhuV4nqIpsUgkEgly+eJKNBWNFzmO8ITneX51pRN+Vc/DJ2Kx+K67/sJmIwzD+n3+0HIETsXgOY7jWIrCtABjjIUCISEEY0qAKZ5lSizL8hxGvEQkpgQitdYmUxjSqWgqGS4VUixTlIhFMqlUKBIhMJ0RLhYLDMMKBUK9Ts9xPBKSUj6TSS4jQjDChPAcxyBCMEUTgor5XDYSTQZDyWA4n0wXcoUiy7Esz/GEJ4gjhEWYYIyEtFAqFinkIqVcIBULRdfOaaQFFEVjmqIRpjDCCpU2l/3j4Q+I8IgnPOE5nqeveabXjHR4FSyLOI4vFPIMw4lEIrFYAtnXaEPdy/Kvq6hOMZ3JlUqM0aCjZaLg7Jjn/MuE56+5FjxBpHx2HMKYRphGGK8aoqB8Oe6aqU0QIhQiFOEJz3M8xxPCcYhnOUII4XiMEKYpmUZntrvMtpq015O8ekEoFko0OlxoFpuMGGMmGslOjQQXr2bVRaXJTAmU2VyuWCrymEmn4hF/OB3LZ3NsKs8WedD5CCEaIZpgikcUyyGeRzxPOI5wPIEzdDDGne6uIileHD4zG53RGvVCkTATjS+Nx+LzeQkSKWUqrcZYVem0VdklIkEqE89wxeXCCkczKrGW5vhQcijKzFK0UC9ySZTiPJMMzoUihRWhklLr5VKpENFJsUQqoS2IUVr11a6KOo1Yc/70b/0z4waRSMUwXDYrksnVKrXFYFLpDZREsjwzuTA+rtb+v/EJSolzCwnxyCt8Y2K4fOnKi+cveJj+SXExCXMwcTD9/vv9CzPDL04uFmYWZkY25t8szBfesu0/8/LnHyY2Dg4uLh4FBXl3/+Af/xjfffqMcvgwtEMHrcshAvAK8j/Df8ggxP///xgYGf7/+8fwn+Hf/38MkHbAv3///v37+/fPvz8//n378PfrezEJWSUtMxY2dlwlAgB6hRxtjz1WEwAAAABJRU5ErkJggg==;" vertex="1" parent="1">
          <mxGeometry x="-240" y="440" width="478" height="40" as="geometry" />
        </mxCell>
      </root>
    </mxGraphModel>
  </diagram>
</mxfile>
